{
classes = (
{
automatic = 1;
code = "A Aacute Abreve Acircumflex Adieresis Agrave Amacron Aogonek Aring Atilde AE B C Cacute Ccaron Ccedilla Ccircumflex Cdotaccent D Eth Dcaron Dcroat E Eacute Ebreve Ecaron Ecircumflex Edieresis Edotaccent Egrave Emacron Eogonek F G Gbreve Gcircumflex Gcommaaccent Gdotaccent H Hbar Hcircumflex I IJ Iacute Ibreve Icircumflex Idieresis Idotaccent Igrave Imacron Iogonek Itilde J Jcircumflex K Kcommaaccent L Lacute Lcaron Lcommaaccent Ldot Lslash M N Nacute Ncaron Ncommaaccent Eng Ntilde O Oacute Obreve Ocircumflex Odieresis Ograve Ohungarumlaut Omacron Oslash Otilde OE P Thorn Q R Racute Rcaron Rcommaaccent S Sacute Scaron Scedilla Scircumflex Scommaaccent T Tbar Tcaron Tcedilla Tcommaaccent U Uacute Ubreve Ucircumflex Udieresis Ugrave Uhungarumlaut Umacron Uogonek Uring Utilde V W Wacute Wcircumflex Wdieresis Wgrave X Y Yacute Ycircumflex Ydieresis Ygrave Z Zacute Zcaron Zdotaccent Delta Omega";
name = Uppercase;
}
);
copyright = "Copyright (c) 2015 Quote-Unquote Apps.";
customParameters = (
{
name = openTypeNameLicenseURL;
value = "http://scripts.sil.org/OFL";
},
{
name = openTypeNameLicense;

glyphs = (
{
glyphname = A;
lastChange = "2014-11-22 04:45:53 +0000";
layers = (
{
layerId = UUID0;
name = Regular;
paths = (
{
closed = 1;
nodes = (
"549 1209 OFFCURVE",
"517 1191 OFFCURVE",
"500 1144 CURVE SMOOTH",
"106 84 LINE SMOOTH",
"90 40 OFFCURVE",
"103 16 OFFCURVE",
"157 -2 CURVE SMOOTH",
"210 -20 OFFCURVE",
"235 -8 OFFCURVE",
"251 36 CURVE SMOOTH",
"396 427 LINE",
"406 456 LINE",
"610 1043 LINE",
"614 1043 LINE",
"818 455 LINE",
"828 427 LINE",
"973 36 LINE SMOOTH",
"989 -8 OFFCURVE",
"1014 -20 OFFCURVE",
"1067 -2 CURVE SMOOTH",
"1121 16 OFFCURVE",
"1134 40 OFFCURVE",
"1118 84 CURVE SMOOTH",
"724 1144 LINE SMOOTH",
"707 1191 OFFCURVE",
"675 1209 OFFCURVE",
"612 1209 CURVE SMOOTH"
);
},
{
closed = 1;
nodes = (
"335 474 LINE",
"335 330 LINE",
"893 330 LINE",
"893 474 LINE"
);
}
);
width = 1228;
},
{
layerId = "222D0B97-E2BD-4249-A584-FAB7D66A0D71";
name = Bold;
paths = (
{
closed = 1;
nodes = (
"531 1209 OFFCURVE",
"494 1191 OFFCURVE",
"476 1144 CURVE SMOOTH",
"77 97 LINE",
"60 52 OFFCURVE",
"78 20 OFFCURVE",
"172 -2 CURVE SMOOTH",
"265 -24 OFFCURVE",
"304 -17 OFFCURVE",
"321 27 CURVE SMOOTH",
"442 354 LINE",
"455 409 LINE",
"613 865 LINE",
"617 865 LINE",
"770 409 LINE",
"782 354 LINE",
"899 27 LINE SMOOTH",
"915 -17 OFFCURVE",
"956 -24 OFFCURVE",
"1049 -2 CURVE SMOOTH",
"1143 20 OFFCURVE",
"1163 52 OFFCURVE",
"1146 97 CURVE SMOOTH",
"760 1144 LINE SMOOTH",
"743 1190 OFFCURVE",
"707 1209 OFFCURVE",
"619 1209 CURVE SMOOTH"
);
},
{
closed = 1;
nodes = (
"339 455 LINE",
"339 220 LINE",
"903 220 LINE",
"903 455 LINE"
);
}
);
width = 1228;
}
);
unicode = 0041;
},
{
color = 3;
glyphname = Aogonek;
lastChange = "2015-01-21 14:26:31 +0000";
layers = (
{
background = {
components = (
{
name = A;
transform = "{1, 0, 0, 1, 0, 0}";
},
{
name = ogonek;
transform = "{1, 0, 0, 1, 355, 0}";
}
);
};
layerId = UUID0;
name = Regular;
paths = (
{
closed = 1;
nodes = (
"549 1209 OFFCURVE",
"517 1191 OFFCURVE",
"500 1144 CURVE SMOOTH",
"106 84 LINE SMOOTH",
"89.9999 40 OFFCURVE",
"103 16 OFFCURVE",
"157 -1.9999 CURVE SMOOTH",
"210 -19.9999 OFFCURVE",
"235 -7.9999 OFFCURVE",
"251 36 CURVE SMOOTH",
"360.028 330 LINE",
"863.972 330 LINE",
"970.951 41.5246 LINE",
"846.679 -59.6833 OFFCURVE",
"766 -162.962 OFFCURVE",
"766 -281 CURVE SMOOTH",
"766 -397 OFFCURVE",
"842 -472 OFFCURVE",
"966 -472 CURVE SMOOTH",
"1028 -472 OFFCURVE",
"1084 -462 OFFCURVE",
"1130 -446 CURVE SMOOTH",
"1159 -436 OFFCURVE",
"1169 -414 OFFCURVE",
"1162 -368 CURVE SMOOTH",
"1155 -324 OFFCURVE",
"1138 -309 OFFCURVE",
"1112 -316 CURVE SMOOTH",
"1076 -326 OFFCURVE",
"1038 -333 OFFCURVE",
"999 -333 CURVE SMOOTH",
"953 -333 OFFCURVE",
"922 -307 OFFCURVE",
"922 -260 CURVE SMOOTH",
"922 -183 OFFCURVE",
"974 -103 OFFCURVE",
"1110 20 CURVE SMOOTH",
"1126.58 35.5717 OFFCURVE",
"1128.32 55.6279 OFFCURVE",
"1118 84 CURVE SMOOTH",
"724 1144 LINE SMOOTH",
"707 1191 OFFCURVE",
"675 1209 OFFCURVE",
"612 1209 CURVE SMOOTH"
);
},
{
closed = 1;
nodes = (
"811.408 474 LINE",
"412.255 474 LINE",
"610 1043 LINE",
"614 1043 LINE"
);
}
);
width = 1228;
},
{
background = {
components = (
{
name = A;
transform = "{1, 0, 0, 1, 0, 0}";
},
{
name = ogonek;
transform = "{1, 0, 0, 1, 342, 0}";
}
);
};
layerId = "222D0B97-E2BD-4249-A584-FAB7D66A0D71";
name = Bold;
paths = (
{
closed = 1;
nodes = (
"531 1209 OFFCURVE",
"494 1191 OFFCURVE",
"476 1144 CURVE SMOOTH",
"77 97 LINE SMOOTH",
"60 52 OFFCURVE",
"78 20 OFFCURVE",
"172 -2 CURVE SMOOTH",
"265 -24 OFFCURVE",
"304 -17 OFFCURVE",
"321 27 CURVE SMOOTH",
"392 220 LINE",
"830 220 LINE",
"902.537 16.7044 LINE",
"783.759 -59.223 OFFCURVE",
"691 -145.161 OFFCURVE",
"691 -269 CURVE SMOOTH",
"691 -402 OFFCURVE",
"781 -472 OFFCURVE",
"937 -472 CURVE SMOOTH",
"1010 -472 OFFCURVE",
"1087 -460 OFFCURVE",
"1153 -438 CURVE SMOOTH",
"1183 -428 OFFCURVE",
"1196 -402 OFFCURVE",
"1192 -343 CURVE SMOOTH",
"1188 -280 OFFCURVE",
"1169 -260 OFFCURVE",
"1142 -265 CURVE SMOOTH",
"1102 -272 OFFCURVE",
"1061 -278 OFFCURVE",
"1022 -278 CURVE SMOOTH",
"965 -278 OFFCURVE",
"934 -256 OFFCURVE",
"934 -211 CURVE SMOOTH",
"934 -147 OFFCURVE",
"996 -69 OFFCURVE",
"1127 28 CURVE SMOOTH",
"1153 47 OFFCURVE",
"1156 69 OFFCURVE",
"1146 97 CURVE SMOOTH",
"760 1144 LINE SMOOTH",
"743 1190 OFFCURVE",
"707 1209 OFFCURVE",
"619 1209 CURVE SMOOTH"
);
},
{
closed = 1;
nodes = (
"755 455 LINE",
"471 455 LINE",
"613 865 LINE",
"617 865 LINE"
);
}
);
width = 1228;
}
);
unicode = 0104;
},
{
glyphname = AE;
lastChange = "2014-02-04 01:12:29 +0000";
layers = (
{
layerId = UUID0;
name = Regular;
paths = (
{
closed = 1;
nodes = (
"519 1187 LINE SMOOTH",
"474 1187 OFFCURVE",
"449 1169 OFFCURVE",
"430 1119 CURVE SMOOTH",
"27 84 LINE SMOOTH",
"10 40 OFFCURVE",
"23 15 OFFCURVE",
"76 -2 CURVE SMOOTH",
"129 -19 OFFCURVE",
"154 -8 OFFCURVE",
"171 36 CURVE SMOOTH",
"323 427 LINE",
"339 471 LINE",
"550 1043 LINE",
"624 1043 LINE",
"624 1187 LINE"
);
},
{
closed = 1;
nodes = (
"255 514 LINE",
"255 370 LINE",
"624 370 LINE",
"624 514 LINE"
);
},
{
closed = 1;
nodes = (
"679 144 LINE",
"679 0 LINE",
"1107 0 LINE SMOOTH",
"1152 0 OFFCURVE",
"1170 20 OFFCURVE",
"1170 72 CURVE SMOOTH",
"1170 124 OFFCURVE",
"1152 144 OFFCURVE",
"1107 144 CURVE SMOOTH"
);
},
{
closed = 1;
nodes = (
"575 1187 LINE",
"575 68 LINE SMOOTH",
"575 18 OFFCURVE",
"593 0 OFFCURVE",
"638 0 CURVE",
"725 0 LINE",
"725 1187 LINE"
);
},
{
closed = 1;
nodes = (
"679 684 LINE",
"679 540 LINE",
"1042 540 LINE SMOOTH",
"1087 540 OFFCURVE",
"1105 560 OFFCURVE",
"1105 612 CURVE SMOOTH",
"1105 664 OFFCURVE",
"1087 684 OFFCURVE",
"1042 684 CURVE SMOOTH"
);
},
{
closed = 1;
nodes = (
"679 1187 LINE",
"679 1043 LINE",
"1087 1043 LINE SMOOTH",
"1132 1043 OFFCURVE",
"1150 1063 OFFCURVE",
"1150 1115 CURVE SMOOTH",
"1150 1167 OFFCURVE",
"1132 1187 OFFCURVE",
"1087 1187 CURVE SMOOTH"
);
}
);
width = 1228;
},
{
layerId = "222D0B97-E2BD-4249-A584-FAB7D66A0D71";
name = Bold;
paths = (
{
closed = 1;
nodes = (
"428 1187 LINE SMOOTH",
"383 1187 OFFCURVE",
"367 1168 OFFCURVE",
"354 1130 CURVE SMOOTH",
"-7 97 LINE SMOOTH",
"-23 52 OFFCURVE",
"-4 24 OFFCURVE",
"90 -1 CURVE SMOOTH",
"183 -26 OFFCURVE",
"222 -17 OFFCURVE",
"238 27 CURVE SMOOTH",
"349 354 LINE",
"360 409 LINE",
"533 952 LINE",
"626 952 LINE",
"626 1187 LINE"
);
},
{
closed = 1;
nodes = (
"239 505 LINE",
"239 270 LINE",
"626 270 LINE",
"626 505 LINE"
);
},
{
closed = 1;
nodes = (
"726 235 LINE",
"726 0 LINE",
"1117 0 LINE SMOOTH",
"1162 0 OFFCURVE",
"1180 22 OFFCURVE",
"1180 117 CURVE SMOOTH",
"1180 212 OFFCURVE",
"1162 235 OFFCURVE",
"1117 235 CURVE SMOOTH"
);
},
{
closed = 1;
nodes = (
"550 1187 LINE",
"550 63 LINE SMOOTH",
"550 18 OFFCURVE",
"568 0 OFFCURVE",
"613 0 CURVE SMOOTH",
"800 0 LINE",
"800 1187 LINE"
);
},
{
closed = 1;
nodes = (
"726 729 LINE",
"726 494 LINE",
"1034 494 LINE SMOOTH",
"1079 494 OFFCURVE",
"1097 516 OFFCURVE",
"1097 611 CURVE SMOOTH",
"1097 706 OFFCURVE",
"1079 729 OFFCURVE",
"1034 729 CURVE SMOOTH"
);
},
{
closed = 1;
nodes = (
"726 1187 LINE",
"726 952 LINE",
"1097 952 LINE SMOOTH",
"1142 952 OFFCURVE",
"1160 974 OFFCURVE",
"1160 1069 CURVE SMOOTH",
"1160 1164 OFFCURVE",
"1142 1187 OFFCURVE",
"1097 1187 CURVE SMOOTH"
);
}
);
width = 1228;
}
);
unicode = 00C6;
},
{
glyphname = B;
lastChange = "2014-02-03 05:42:40 +0000";
layers = (
{
layerId = UUID0;
name = Regular;
paths = (
{
closed = 1;
nodes = (
"268 1187 LINE SMOOTH",
"223 1187 OFFCURVE",
"205 1169 OFFCURVE",
"205 1119 CURVE SMOOTH",
"205 68 LINE SMOOTH",
"205 18 OFFCURVE",
"223 0 OFFCURVE",
"268 0 CURVE SMOOTH",
"690 0 LINE SMOOTH",
"936 0 OFFCURVE",
"1074 126 OFFCURVE",
"1074 336 CURVE SMOOTH",
"1074 480 OFFCURVE",
"1000 576 OFFCURVE",
"874 623 CURVE",
"957 671 OFFCURVE",
"1008 750 OFFCURVE",
"1008 858 CURVE SMOOTH",
"1008 1051 OFFCURVE",
"883 1187 OFFCURVE",
"644 1187 CURVE SMOOTH"
);
},
{
closed = 1;
nodes = (
"832 531 OFFCURVE",
"920 467 OFFCURVE",
"920 336 CURVE SMOOTH",
"920 207 OFFCURVE",
"825 144 OFFCURVE",
"670 144 CURVE SMOOTH",
"355 144 LINE",
"355 531 LINE",
"665 531 LINE SMOOTH"
);
},
{
closed = 1;
nodes = (
"779 1043 OFFCURVE",
"854 979 OFFCURVE",
"854 858 CURVE SMOOTH",
"854 742 OFFCURVE",
"778 675 OFFCURVE",
"622 675 CURVE SMOOTH",
"355 675 LINE",
"355 1043 LINE",
"622 1043 LINE SMOOTH"
);
}
);
width = 1228;
},
{
layerId = "222D0B97-E2BD-4249-A584-FAB7D66A0D71";
name = Bold;
paths = (
{
closed = 1;
nodes = (
"243 1187 LINE SMOOTH",
"198 1187 OFFCURVE",
"180 1169 OFFCURVE",
"180 1124 CURVE SMOOTH",
"180 63 LINE SMOOTH",
"180 18 OFFCURVE",
"198 0 OFFCURVE",
"243 0 CURVE SMOOTH",
"680 0 LINE SMOOTH",
"954 0 OFFCURVE",
"1106 116 OFFCURVE",
"1106 344 CURVE SMOOTH",
"1106 496 OFFCURVE",
"1022 582 OFFCURVE",
"902 621 CURVE",
"1005 668 OFFCURVE",
"1064 751 OFFCURVE",
"1064 864 CURVE SMOOTH",
"1064 1059 OFFCURVE",
"942 1187 OFFCURVE",
"654 1187 CURVE SMOOTH"
);
},
{
closed = 1;
nodes = (
"783 499 OFFCURVE",
"846 453 OFFCURVE",
"846 354 CURVE SMOOTH",
"846 263 OFFCURVE",
"785 215 OFFCURVE",
"652 215 CURVE SMOOTH",
"430 215 LINE",
"430 499 LINE",
"652 499 LINE SMOOTH"
);
},
{
closed = 1;
nodes = (
"755 972 OFFCURVE",
"810 934 OFFCURVE",
"810 844 CURVE SMOOTH",
"810 755 OFFCURVE",
"752 714 OFFCURVE",
"632 714 CURVE SMOOTH",
"430 714 LINE",
"430 972 LINE",
"632 972 LINE SMOOTH"
);
}
);
width = 1228;
}
);
unicode = 0042;
},
{
glyphname = C;
lastChange = "2015-01-15 05:58:26 +0000";
layers = (
{
anchors = (
{
name = bottom;
position = "{674, 0}";
},
{
name = top;
position = "{664, 1187}";
}
);
layerId = UUID0;
name = Regular;
paths = (
{
closed = 1;
nodes = (
"355 1209 OFFCURVE",
"150 964 OFFCURVE",
"150 594 CURVE SMOOTH",
"150 224 OFFCURVE",
"355 -22 OFFCURVE",
"664 -22 CURVE SMOOTH",
"797 -22 OFFCURVE",
"916 10 OFFCURVE",
"1037 79 CURVE SMOOTH",
"1075 101 OFFCURVE",
"1084 133 OFFCURVE",
"1061 183 CURVE SMOOTH",
"1037 235 OFFCURVE",
"1003 233 OFFCURVE",
"974 216 CURVE SMOOTH",
"877 158 OFFCURVE",
"775 126 OFFCURVE",
"664 126 CURVE SMOOTH",
"447 126 OFFCURVE",
"304 306 OFFCURVE",
"304 594 CURVE SMOOTH",
"304 882 OFFCURVE",
"447 1061 OFFCURVE",
"664 1061 CURVE SMOOTH",
"775 1061 OFFCURVE",
"877 1029 OFFCURVE",
"974 971 CURVE SMOOTH",
"1003 954 OFFCURVE",
"1037 952 OFFCURVE",
"1061 1004 CURVE SMOOTH",
"1084 1054 OFFCURVE",
"1075 1086 OFFCURVE",
"1037 1108 CURVE SMOOTH",
"916 1177 OFFCURVE",
"797 1209 OFFCURVE",
"664 1209 CURVE SMOOTH"
);
}
);
width = 1228;
},
{
anchors = (
{
name = bottom;
position = "{684, 0}";
},
{
name = top;
position = "{674, 1187}";
}
);
layerId = "222D0B97-E2BD-4249-A584-FAB7D66A0D71";
name = Bold;
paths = (
{
closed = 1;
nodes = (
"344 1209 OFFCURVE",
"126 974 OFFCURVE",
"126 594 CURVE SMOOTH",
"126 214 OFFCURVE",
"344 -22 OFFCURVE",
"674 -22 CURVE SMOOTH",
"815 -22 OFFCURVE",
"945 9 OFFCURVE",
"1061 65 CURVE SMOOTH",
"1104 86 OFFCURVE",
"1121 127 OFFCURVE",
"1093 208 CURVE SMOOTH",
"1066 288 OFFCURVE",
"1025 304 OFFCURVE",
"985 285 CURVE SMOOTH",
"885 238 OFFCURVE",
"793 215 OFFCURVE",
"684 215 CURVE SMOOTH",
"497 215 OFFCURVE",
"388 346 OFFCURVE",
"388 594 CURVE SMOOTH",
"388 842 OFFCURVE",
"497 972 OFFCURVE",
"684 972 CURVE SMOOTH",
"793 972 OFFCURVE",
"885 949 OFFCURVE",
"985 902 CURVE SMOOTH",
"1025 883 OFFCURVE",
"1066 899 OFFCURVE",
"1093 979 CURVE SMOOTH",
"1121 1060 OFFCURVE",
"1104 1101 OFFCURVE",
"1061 1122 CURVE SMOOTH",
"945 1178 OFFCURVE",
"815 1209 OFFCURVE",
"674 1209 CURVE SMOOTH"
);
}
);
width = 1228;
}
);
unicode = 0043;
},
{
glyphname = D;
lastChange = "2014-02-03 05:17:59 +0000";
layers = (
{
layerId = UUID0;
name = Regular;
paths = (
{
closed = 1;
nodes = (
"238 1187 LINE SMOOTH",
"193 1187 OFFCURVE",
"175 1169 OFFCURVE",
"175 1119 CURVE SMOOTH",
"175 68 LINE SMOOTH",
"175 18 OFFCURVE",
"193 0 OFFCURVE",
"238 0 CURVE",
"574 0 LINE SMOOTH",
"889 0 OFFCURVE",
"1100 223 OFFCURVE",
"1100 593 CURVE SMOOTH",
"1100 963 OFFCURVE",
"889 1187 OFFCURVE",
"574 1187 CURVE SMOOTH"
);
},
{
closed = 1;
nodes = (
"792 1043 OFFCURVE",
"946 891 OFFCURVE",
"946 593 CURVE SMOOTH",
"946 295 OFFCURVE",
"792 144 OFFCURVE",
"555 144 CURVE SMOOTH",
"325 144 LINE",
"325 1043 LINE",
"555 1043 LINE SMOOTH"
);
}
);
width = 1228;
},
{
layerId = "222D0B97-E2BD-4249-A584-FAB7D66A0D71";
name = Bold;
paths = (
{
closed = 1;
nodes = (
"223 1187 LINE SMOOTH",
"178 1187 OFFCURVE",
"160 1169 OFFCURVE",
"160 1124 CURVE SMOOTH",
"160 63 LINE SMOOTH",
"160 18 OFFCURVE",
"178 0 OFFCURVE",
"223 0 CURVE SMOOTH",
"574 0 LINE SMOOTH",
"924 0 OFFCURVE",
"1132 214 OFFCURVE",
"1132 594 CURVE SMOOTH",
"1132 974 OFFCURVE",
"924 1187 OFFCURVE",
"574 1187 CURVE SMOOTH"
);
},
{
closed = 1;
nodes = (
"761 952 OFFCURVE",
"870 832 OFFCURVE",
"870 594 CURVE SMOOTH",
"870 356 OFFCURVE",
"761 235 OFFCURVE",
"554 235 CURVE SMOOTH",
"410 235 LINE",
"410 952 LINE",
"554 952 LINE SMOOTH"
);
}
);
width = 1228;
}
);
unicode = 0044;
},
{
color = 6;
glyphname = Eth;
lastChange = "2014-11-22 20:43:19 +0000";
layers = (
{
layerId = UUID0;
name = Regular;
paths = (
{
closed = 1;
nodes = (
"288 1187 LINE SMOOTH",
"243 1187 OFFCURVE",
"225 1169 OFFCURVE",
"225 1119 CURVE SMOOTH",
"225 68 LINE SMOOTH",
"225 18 OFFCURVE",
"243 0 OFFCURVE",
"288 0 CURVE",
"594 0 LINE SMOOTH",
"909 0 OFFCURVE",
"1120 223 OFFCURVE",
"1120 593 CURVE SMOOTH",
"1120 963 OFFCURVE",
"909 1187 OFFCURVE",
"594 1187 CURVE SMOOTH"
);
},
{
closed = 1;
nodes = (
"113 684 LINE SMOOTH",
"68 684 OFFCURVE",
"50 664 OFFCURVE",
"50 612 CURVE SMOOTH",
"50 560 OFFCURVE",
"68 540 OFFCURVE",
"113 540 CURVE SMOOTH",
"595 540 LINE SMOOTH",
"640 540 OFFCURVE",
"658 560 OFFCURVE",
"658 612 CURVE SMOOTH",
"658 664 OFFCURVE",
"640 684 OFFCURVE",
"595 684 CURVE SMOOTH"
);
},
{
closed = 1;
nodes = (
"812 1043 OFFCURVE",
"966 891 OFFCURVE",
"966 593 CURVE SMOOTH",
"966 295 OFFCURVE",
"812 144 OFFCURVE",
"575 144 CURVE SMOOTH",
"375 144 LINE",
"375 1043 LINE",
"575 1043 LINE SMOOTH"
);
}
);
width = 1228;
},
{
layerId = "222D0B97-E2BD-4249-A584-FAB7D66A0D71";
name = Bold;
paths = (
{
closed = 1;
nodes = (
"253 1187 LINE SMOOTH",
"208 1187 OFFCURVE",
"190 1169 OFFCURVE",
"190 1124 CURVE SMOOTH",
"190 63 LINE SMOOTH",
"190 18 OFFCURVE",
"208 0 OFFCURVE",
"253 0 CURVE SMOOTH",
"574 0 LINE SMOOTH",
"924 0 OFFCURVE",
"1132 214 OFFCURVE",
"1132 594 CURVE SMOOTH",
"1132 974 OFFCURVE",
"924 1187 OFFCURVE",
"574 1187 CURVE SMOOTH"
);
},
{
closed = 1;
nodes = (
"103 719 LINE SMOOTH",
"58 719 OFFCURVE",
"40 701 OFFCURVE",
"40 606 CURVE SMOOTH",
"40 511 OFFCURVE",
"58 494 OFFCURVE",
"103 494 CURVE SMOOTH",
"615 494 LINE SMOOTH",
"660 494 OFFCURVE",
"678 511 OFFCURVE",
"678 606 CURVE SMOOTH",
"678 701 OFFCURVE",
"660 719 OFFCURVE",
"615 719 CURVE SMOOTH"
);
},
{
closed = 1;
nodes = (
"761 952 OFFCURVE",
"870 832 OFFCURVE",
"870 594 CURVE SMOOTH",
"870 356 OFFCURVE",
"761 235 OFFCURVE",
"554 235 CURVE SMOOTH",
"440 235 LINE",
"440 952 LINE",
"554 952 LINE SMOOTH"
);
}
);
width = 1228;
}
);
unicode = 00D0;
},
{
glyphname = E;
lastChange = "2014-01-30 15:11:26 +0000";
layers = (
{
layerId = UUID0;
name = Regular;
paths = (
{
closed = 1;
nodes = (
"288 1187 LINE SMOOTH",
"243 1187 OFFCURVE",
"225 1169 OFFCURVE",
"225 1119 CURVE SMOOTH",
"225 68 LINE SMOOTH",
"225 18 OFFCURVE",
"243 0 OFFCURVE",
"288 0 CURVE SMOOTH",
"375 0 LINE",
"375 1187 LINE"
);
},
{
closed = 1;
nodes = (
"329 144 LINE",
"329 0 LINE",
"977 0 LINE SMOOTH",
"1022 0 OFFCURVE",
"1040 20 OFFCURVE",
"1040 72 CURVE SMOOTH",
"1040 124 OFFCURVE",
"1022 144 OFFCURVE",
"977 144 CURVE SMOOTH"
);
},
{
closed = 1;
nodes = (
"329 684 LINE",
"329 540 LINE",
"832 540 LINE SMOOTH",
"877 540 OFFCURVE",
"895 560 OFFCURVE",
"895 612 CURVE SMOOTH",
"895 664 OFFCURVE",
"877 684 OFFCURVE",
"832 684 CURVE SMOOTH"
);
},
{
closed = 1;
nodes = (
"329 1187 LINE",
"329 1043 LINE",
"957 1043 LINE SMOOTH",
"1002 1043 OFFCURVE",
"1020 1063 OFFCURVE",
"1020 1115 CURVE SMOOTH",
"1020 1167 OFFCURVE",
"1002 1187 OFFCURVE",
"957 1187 CURVE SMOOTH"
);
}
);
width = 1228;
},
{
layerId = "222D0B97-E2BD-4249-A584-FAB7D66A0D71";
name = Bold;
paths = (
{
closed = 1;
nodes = (
"263 1187 LINE",
"218 1187 OFFCURVE",
"200 1169 OFFCURVE",
"200 1124 CURVE SMOOTH",
"200 63 LINE SMOOTH",
"200 18 OFFCURVE",
"218 0 OFFCURVE",
"263 0 CURVE",
"450 0 LINE",
"450 1187 LINE"
);
},
{
closed = 1;
nodes = (
"345 235 LINE",
"345 0 LINE",
"997 0 LINE SMOOTH",
"1042 0 OFFCURVE",
"1060 22 OFFCURVE",
"1060 117 CURVE SMOOTH",
"1060 212 OFFCURVE",
"1042 235 OFFCURVE",
"997 235 CURVE SMOOTH"
);
},
{
closed = 1;
nodes = (
"345 729 LINE",
"345 494 LINE",
"814 494 LINE SMOOTH",
"859 494 OFFCURVE",
"877 516 OFFCURVE",
"877 611 CURVE SMOOTH",
"877 706 OFFCURVE",
"859 729 OFFCURVE",
"814 729 CURVE SMOOTH"
);
},
{
closed = 1;
nodes = (
"345 1187 LINE",
"345 952 LINE",
"977 952 LINE SMOOTH",
"1022 952 OFFCURVE",
"1040 974 OFFCURVE",
"1040 1069 CURVE SMOOTH",
"1040 1164 OFFCURVE",
"1022 1187 OFFCURVE",
"977 1187 CURVE SMOOTH"
);
}
);
width = 1228;
}
);
unicode = 0045;
},
{
glyphname = F;
lastChange = "2014-01-30 20:24:51 +0000";
layers = (
{
layerId = UUID0;
name = Regular;
paths = (
{
closed = 1;
nodes = (
"308 1187 LINE SMOOTH",
"266 1187 OFFCURVE",
"245 1169 OFFCURVE",
"245 1119 CURVE SMOOTH",
"245 55 LINE SMOOTH",
"245 9 OFFCURVE",
"263 -10 OFFCURVE",
"319 -10 CURVE",
"321 -10 LINE",
"377 -10 OFFCURVE",
"395 9 OFFCURVE",
"395 55 CURVE SMOOTH",
"395 1187 LINE"
);
},
{
closed = 1;
nodes = (
"344 644 LINE",
"344 500 LINE",
"862 500 LINE SMOOTH",
"907 500 OFFCURVE",
"925 520 OFFCURVE",
"925 572 CURVE SMOOTH",
"925 624 OFFCURVE",
"907 644 OFFCURVE",
"862 644 CURVE SMOOTH"
);
},
{
closed = 1;
nodes = (
"344 1187 LINE",
"344 1043 LINE",
"977 1043 LINE SMOOTH",
"1022 1043 OFFCURVE",
"1040 1063 OFFCURVE",
"1040 1115 CURVE SMOOTH",
"1040 1167 OFFCURVE",
"1022 1187 OFFCURVE",
"977 1187 CURVE SMOOTH"
);
}
);
width = 1228;
},
{
layerId = "222D0B97-E2BD-4249-A584-FAB7D66A0D71";
name = Bold;
paths = (
{
closed = 1;
nodes = (
"283 1187 LINE SMOOTH",
"238 1187 OFFCURVE",
"220 1169 OFFCURVE",
"220 1124 CURVE SMOOTH",
"220 63 LINE SMOOTH",
"220 18 OFFCURVE",
"238 0 OFFCURVE",
"283 0 CURVE SMOOTH",
"407 0 LINE SMOOTH",
"452 0 OFFCURVE",
"470 18 OFFCURVE",
"470 63 CURVE SMOOTH",
"470 1187 LINE"
);
},
{
closed = 1;
nodes = (
"361 667 LINE",
"361 432 LINE",
"904 432 LINE SMOOTH",
"949 432 OFFCURVE",
"967 454 OFFCURVE",
"967 549 CURVE SMOOTH",
"967 644 OFFCURVE",
"949 667 OFFCURVE",
"904 667 CURVE SMOOTH"
);
},
{
closed = 1;
nodes = (
"361 1187 LINE",
"361 952 LINE",
"987 952 LINE SMOOTH",
"1032 952 OFFCURVE",
"1050 974 OFFCURVE",
"1050 1069 CURVE SMOOTH",
"1050 1164 OFFCURVE",
"1032 1187 OFFCURVE",
"987 1187 CURVE SMOOTH"
);
}
);
width = 1228;
}
);
unicode = 0046;
},
{
glyphname = G;
lastChange = "2014-02-03 05:21:35 +0000";
layers = (
{
layerId = UUID0;
name = Regular;
paths = (
{
closed = 1;
nodes = (
"335 1209 OFFCURVE",
"110 964 OFFCURVE",
"110 594 CURVE SMOOTH",
"110 224 OFFCURVE",
"319 -22 OFFCURVE",
"634 -22 CURVE SMOOTH",
"788 -22 OFFCURVE",
"937 11 OFFCURVE",
"1047 74 CURVE SMOOTH",
"1070 87 OFFCURVE",
"1083 111 OFFCURVE",
"1083 143 CURVE",
"958 195 LINE",
"865 146 OFFCURVE",
"758 126 OFFCURVE",
"634 126 CURVE SMOOTH",
"412 126 OFFCURVE",
"264 306 OFFCURVE",
"264 594 CURVE SMOOTH",
"264 882 OFFCURVE",
"427 1061 OFFCURVE",
"644 1061 CURVE SMOOTH",
"755 1061 OFFCURVE",
"857 1036 OFFCURVE",
"955 980 CURVE SMOOTH",
"985 963 OFFCURVE",
"1019 962 OFFCURVE",
"1042 1015 CURVE SMOOTH",
"1063 1065 OFFCURVE",
"1054 1097 OFFCURVE",
"1015 1118 CURVE SMOOTH",
"893 1184 OFFCURVE",
"777 1209 OFFCURVE",
"644 1209 CURVE SMOOTH"
);
},
{
closed = 1;
nodes = (
"666 594 LINE SMOOTH",
"621 594 OFFCURVE",
"603 574 OFFCURVE",
"603 522 CURVE SMOOTH",
"603 470 OFFCURVE",
"621 450 OFFCURVE",
"666 450 CURVE SMOOTH",
"992 450 LINE",
"992 594 LINE"
);
},
{
closed = 1;
nodes = (
"933 594 LINE",
"933 143 LINE",
"1083 143 LINE",
"1083 526 LINE",
"1083 576 OFFCURVE",
"1065 594 OFFCURVE",
"1020 594 CURVE SMOOTH"
);
}
);
width = 1228;
},
{
layerId = "222D0B97-E2BD-4249-A584-FAB7D66A0D71";
name = Bold;
paths = (
{
closed = 1;
nodes = (
"304 1209 OFFCURVE",
"86 974 OFFCURVE",
"86 594 CURVE SMOOTH",
"86 214 OFFCURVE",
"304 -22 OFFCURVE",
"634 -22 CURVE SMOOTH",
"795 -22 OFFCURVE",
"946 11 OFFCURVE",
"1062 74 CURVE SMOOTH",
"1085 86 OFFCURVE",
"1098 111 OFFCURVE",
"1098 143 CURVE",
"945 285 LINE",
"845 238 OFFCURVE",
"753 215 OFFCURVE",
"644 215 CURVE SMOOTH",
"457 215 OFFCURVE",
"348 346 OFFCURVE",
"348 594 CURVE SMOOTH",
"348 842 OFFCURVE",
"457 972 OFFCURVE",
"644 972 CURVE SMOOTH",
"753 972 OFFCURVE",
"856 946 OFFCURVE",
"955 902 CURVE SMOOTH",
"995 884 OFFCURVE",
"1036 899 OFFCURVE",
"1063 979 CURVE SMOOTH",
"1091 1060 OFFCURVE",
"1074 1102 OFFCURVE",
"1031 1122 CURVE SMOOTH",
"915 1176 OFFCURVE",
"775 1209 OFFCURVE",
"634 1209 CURVE SMOOTH"
);
},
{
closed = 1;
nodes = (
"632 667 LINE SMOOTH",
"587 667 OFFCURVE",
"569 644 OFFCURVE",
"569 549 CURVE SMOOTH",
"569 454 OFFCURVE",
"587 432 OFFCURVE",
"632 432 CURVE",
"954 432 LINE",
"954 667 LINE"
);
},
{
closed = 1;
nodes = (
"848 667 LINE",
"848 143 LINE",
"1098 143 LINE",
"1098 604 LINE SMOOTH",
"1098 649 OFFCURVE",
"1080 667 OFFCURVE",
"1035 667 CURVE SMOOTH"
);
}
);
width = 1228;
}
);
unicode = 0047;
},
{
glyphname = H;
lastChange = "2014-01-30 15:04:12 +0000";
layers = (
{
layerId = UUID0;
name = Regular;
paths = (
{
closed = 1;
nodes = (
"977 1197 LINE",
"921 1197 OFFCURVE",
"903 1178 OFFCURVE",
"903 1132 CURVE SMOOTH",
"903 55 LINE SMOOTH",
"903 9 OFFCURVE",
"921 -10 OFFCURVE",
"977 -10 CURVE",
"979 -10 LINE",
"1035 -10 OFFCURVE",
"1053 9 OFFCURVE",
"1053 55 CURVE SMOOTH",
"1053 1132 LINE SMOOTH",
"1053 1178 OFFCURVE",
"1035 1197 OFFCURVE",
"979 1197 CURVE"
);
},
{
closed = 1;
nodes = (
"249 1197 LINE",
"193 1197 OFFCURVE",
"175 1178 OFFCURVE",
"175 1132 CURVE SMOOTH",
"175 55 LINE SMOOTH",
"175 9 OFFCURVE",
"193 -10 OFFCURVE",
"249 -10 CURVE",
"251 -10 LINE",
"307 -10 OFFCURVE",
"325 9 OFFCURVE",
"325 55 CURVE SMOOTH",
"325 1132 LINE SMOOTH",
"325 1178 OFFCURVE",
"307 1197 OFFCURVE",
"251 1197 CURVE"
);
},
{
closed = 1;
nodes = (
"259 684 LINE",
"259 540 LINE",
"969 540 LINE",
"969 684 LINE"
);
}
);
width = 1228;
},
{
layerId = "222D0B97-E2BD-4249-A584-FAB7D66A0D71";
name = Bold;
paths = (
{
closed = 1;
nodes = (
"901 1187 LINE SMOOTH",
"856 1187 OFFCURVE",
"838 1169 OFFCURVE",
"838 1124 CURVE SMOOTH",
"838 63 LINE SMOOTH",
"838 18 OFFCURVE",
"856 0 OFFCURVE",
"901 0 CURVE SMOOTH",
"1025 0 LINE SMOOTH",
"1070 0 OFFCURVE",
"1088 18 OFFCURVE",
"1088 63 CURVE SMOOTH",
"1088 1124 LINE SMOOTH",
"1088 1169 OFFCURVE",
"1070 1187 OFFCURVE",
"1025 1187 CURVE SMOOTH"
);
},
{
closed = 1;
nodes = (
"203 1187 LINE SMOOTH",
"158 1187 OFFCURVE",
"140 1169 OFFCURVE",
"140 1124 CURVE SMOOTH",
"140 63 LINE SMOOTH",
"140 18 OFFCURVE",
"158 0 OFFCURVE",
"203 0 CURVE SMOOTH",
"327 0 LINE SMOOTH",
"372 0 OFFCURVE",
"390 18 OFFCURVE",
"390 63 CURVE SMOOTH",
"390 1124 LINE SMOOTH",
"390 1169 OFFCURVE",
"372 1187 OFFCURVE",
"327 1187 CURVE SMOOTH"
);
},
{
closed = 1;
nodes = (
"230 729 LINE",
"230 494 LINE",
"1004 494 LINE",
"1004 729 LINE"
);
}
);
width = 1228;
}
);
unicode = 0048;
},
{
color = 6;
glyphname = Hbar;
lastChange = "2014-11-22 20:43:19 +0000";
layers = (
{
components = (
{
name = H;
transform = "{1, 0, 0, 1, 0, 0}";
}
);
layerId = UUID0;
name = Regular;
paths = (
{
closed = 1;
nodes = (
"93 974 LINE SMOOTH",
"48 974 OFFCURVE",
"30 954 OFFCURVE",
"30 902 CURVE SMOOTH",
"30 850 OFFCURVE",
"48 830 OFFCURVE",
"93 830 CURVE SMOOTH",
"1135 830 LINE SMOOTH",
"1180 830 OFFCURVE",
"1198 850 OFFCURVE",
"1198 902 CURVE SMOOTH",
"1198 954 OFFCURVE",
"1180 974 OFFCURVE",
"1135 974 CURVE SMOOTH"
);
}
);
width = 1228;
},
{
components = (
{
name = H;
transform = "{1, 0, 0, 1, 0, 0}";
}
);
layerId = "222D0B97-E2BD-4249-A584-FAB7D66A0D71";
name = Bold;
paths = (
{
closed = 1;
nodes = (
"83 1008 LINE SMOOTH",
"38 1008 OFFCURVE",
"20 994 OFFCURVE",
"20 915 CURVE SMOOTH",
"20 837 OFFCURVE",
"38 823 OFFCURVE",
"83 823 CURVE SMOOTH",
"1145 823 LINE SMOOTH",
"1190 823 OFFCURVE",
"1208 837 OFFCURVE",
"1208 915 CURVE SMOOTH",
"1208 994 OFFCURVE",
"1190 1008 OFFCURVE",
"1145 1008 CURVE SMOOTH"
);
}
);
width = 1228;
}
);
unicode = 0126;
},
{
glyphname = I;
lastChange = "2014-01-30 15:06:05 +0000";
layers = (
{
layerId = UUID0;
name = Regular;
paths = (
{
closed = 1;
nodes = (
"539 1131 LINE",
"539 63 LINE",
"689 63 LINE",
"689 1131 LINE"
);
},
{
closed = 1;
nodes = (
"263 144 LINE SMOOTH",
"218 144 OFFCURVE",
"200 124 OFFCURVE",
"200 72 CURVE SMOOTH",
"200 20 OFFCURVE",
"218 0 OFFCURVE",
"263 0 CURVE SMOOTH",
"965 0 LINE SMOOTH",
"1010 0 OFFCURVE",
"1028 20 OFFCURVE",
"1028 72 CURVE SMOOTH",
"1028 124 OFFCURVE",
"1010 144 OFFCURVE",
"965 144 CURVE SMOOTH"
);
},
{
closed = 1;
nodes = (
"283 1187 LINE SMOOTH",
"238 1187 OFFCURVE",
"220 1167 OFFCURVE",
"220 1115 CURVE SMOOTH",
"220 1063 OFFCURVE",
"238 1043 OFFCURVE",
"283 1043 CURVE SMOOTH",
"945 1043 LINE SMOOTH",
"990 1043 OFFCURVE",
"1008 1063 OFFCURVE",
"1008 1115 CURVE SMOOTH",
"1008 1167 OFFCURVE",
"990 1187 OFFCURVE",
"945 1187 CURVE SMOOTH"
);
}
);
width = 1228;
},
{
layerId = "222D0B97-E2BD-4249-A584-FAB7D66A0D71";
name = Bold;
paths = (
{
closed = 1;
nodes = (
"489 1078 LINE",
"489 109 LINE",
"739 109 LINE",
"739 1078 LINE"
);
},
{
closed = 1;
nodes = (
"233 225 LINE",
"188 225 OFFCURVE",
"170 202 OFFCURVE",
"170 112 CURVE SMOOTH",
"170 22 OFFCURVE",
"188 0 OFFCURVE",
"233 0 CURVE SMOOTH",
"995 0 LINE SMOOTH",
"1040 0 OFFCURVE",
"1058 22 OFFCURVE",
"1058 112 CURVE SMOOTH",
"1058 202 OFFCURVE",
"1040 225 OFFCURVE",
"995 225 CURVE"
);
},
{
closed = 1;
nodes = (
"253 1187 LINE SMOOTH",
"208 1187 OFFCURVE",
"190 1164 OFFCURVE",
"190 1074 CURVE SMOOTH",
"190 984 OFFCURVE",
"208 962 OFFCURVE",
"253 962 CURVE",
"975 962 LINE",
"1020 962 OFFCURVE",
"1038 984 OFFCURVE",
"1038 1074 CURVE SMOOTH",
"1038 1164 OFFCURVE",
"1020 1187 OFFCURVE",
"975 1187 CURVE SMOOTH"
);
}
);
width = 1228;
}
);
unicode = 0049;
},
{
glyphname = IJ;
lastChange = "2014-02-05 07:11:51 +0000";
layers = (
{
layerId = UUID0;
name = Regular;
paths = (
{
closed = 1;
nodes = (
"978 1197 LINE SMOOTH",
"922 1197 OFFCURVE",
"904 1178 OFFCURVE",
"904 1132 CURVE SMOOTH",
"904 283 LINE SMOOTH",
"904 170 OFFCURVE",
"864 126 OFFCURVE",
"782 126 CURVE SMOOTH",
"722 126 OFFCURVE",
"658 142 OFFCURVE",
"607 167 CURVE SMOOTH",
"579 181 OFFCURVE",
"545 179 OFFCURVE",
"522 125 CURVE SMOOTH",
"501 75 OFFCURVE",
"512 47 OFFCURVE",
"550 28 CURVE SMOOTH",
"617 -5 OFFCURVE",
"712 -22 OFFCURVE",
"781 -22 CURVE SMOOTH",
"957 -22 OFFCURVE",
"1054 74 OFFCURVE",
"1054 253 CURVE SMOOTH",
"1054 1132 LINE SMOOTH",
"1054 1178 OFFCURVE",
"1036 1197 OFFCURVE",
"980 1197 CURVE SMOOTH"
);
},
{
closed = 1;
nodes = (
"253 1197 LINE SMOOTH",
"197 1197 OFFCURVE",
"179 1178 OFFCURVE",
"179 1132 CURVE SMOOTH",
"179 55 LINE SMOOTH",
"179 9 OFFCURVE",
"197 -10 OFFCURVE",
"253 -10 CURVE SMOOTH",
"255 -10 LINE SMOOTH",
"311 -10 OFFCURVE",
"329 9 OFFCURVE",
"329 55 CURVE SMOOTH",
"329 1132 LINE SMOOTH",
"329 1178 OFFCURVE",
"311 1197 OFFCURVE",
"255 1197 CURVE SMOOTH"
);
}
);
width = 1228;
},
{
layerId = "222D0B97-E2BD-4249-A584-FAB7D66A0D71";
name = Bold;
paths = (
{
closed = 1;
nodes = (
"916 1187 LINE SMOOTH",
"871 1187 OFFCURVE",
"853 1169 OFFCURVE",
"853 1124 CURVE SMOOTH",
"853 349 LINE SMOOTH",
"853 253 OFFCURVE",
"815 215 OFFCURVE",
"734 215 CURVE SMOOTH",
"697 215 OFFCURVE",
"641 226 OFFCURVE",
"593 241 CURVE SMOOTH",
"552 254 OFFCURVE",
"520 235 OFFCURVE",
"499 153 CURVE SMOOTH",
"478 69 OFFCURVE",
"488 35 OFFCURVE",
"532 18 CURVE SMOOTH",
"600 -8 OFFCURVE",
"676 -22 OFFCURVE",
"741 -22 CURVE SMOOTH",
"980 -22 OFFCURVE",
"1103 96 OFFCURVE",
"1103 333 CURVE SMOOTH",
"1103 1124 LINE SMOOTH",
"1103 1169 OFFCURVE",
"1085 1187 OFFCURVE",
"1040 1187 CURVE SMOOTH"
);
},
{
closed = 1;
nodes = (
"193 1187 LINE SMOOTH",
"148 1187 OFFCURVE",
"130 1169 OFFCURVE",
"130 1124 CURVE SMOOTH",
"130 63 LINE SMOOTH",
"130 18 OFFCURVE",
"148 0 OFFCURVE",
"193 0 CURVE SMOOTH",
"317 0 LINE SMOOTH",
"362 0 OFFCURVE",
"380 18 OFFCURVE",
"380 63 CURVE SMOOTH",
"380 1124 LINE SMOOTH",
"380 1169 OFFCURVE",
"362 1187 OFFCURVE",
"317 1187 CURVE SMOOTH"
);
}
);
width = 1228;
}
);
unicode = 0132;
},
{
glyphname = J;
lastChange = "2014-01-30 20:27:57 +0000";
layers = (
{
layerId = UUID0;
name = Regular;
paths = (
{
closed = 1;
nodes = (
"804 1187 LINE",
"804 363 LINE SMOOTH",
"804 210 OFFCURVE",
"734 126 OFFCURVE",
"582 126 CURVE SMOOTH",
"478 126 OFFCURVE",
"377 160 OFFCURVE",
"294 222 CURVE SMOOTH",
"268 242 OFFCURVE",
"234 246 OFFCURVE",
"202 197 CURVE SMOOTH",
"173 151 OFFCURVE",
"179 118 OFFCURVE",
"214 92 CURVE SMOOTH",
"315 17 OFFCURVE",
"449 -22 OFFCURVE",
"581 -22 CURVE SMOOTH",
"817 -22 OFFCURVE",
"954 104 OFFCURVE",
"954 333 CURVE SMOOTH",
"954 1119 LINE SMOOTH",
"954 1169 OFFCURVE",
"933 1187 OFFCURVE",
"891 1187 CURVE SMOOTH"
);
},
{
closed = 1;
nodes = (
"443 1187 LINE SMOOTH",
"398 1187 OFFCURVE",
"380 1167 OFFCURVE",
"380 1115 CURVE SMOOTH",
"380 1063 OFFCURVE",
"398 1043 OFFCURVE",
"443 1043 CURVE SMOOTH",
"861 1043 LINE",
"861 1187 LINE"
);
}
);
width = 1228;
},
{
layerId = "222D0B97-E2BD-4249-A584-FAB7D66A0D71";
name = Bold;
paths = (
{
closed = 1;
nodes = (
"729 1187 LINE",
"729 383 LINE SMOOTH",
"729 266 OFFCURVE",
"674 215 OFFCURVE",
"573 215 CURVE SMOOTH",
"485 215 OFFCURVE",
"383 245 OFFCURVE",
"288 295 CURVE SMOOTH",
"250 315 OFFCURVE",
"210 305 OFFCURVE",
"174 227 CURVE SMOOTH",
"138 149 OFFCURVE",
"149 108 OFFCURVE",
"190 83 CURVE SMOOTH",
"300 17 OFFCURVE",
"441 -22 OFFCURVE",
"572 -22 CURVE SMOOTH",
"839 -22 OFFCURVE",
"979 105 OFFCURVE",
"979 363 CURVE SMOOTH",
"979 1124 LINE SMOOTH",
"979 1169 OFFCURVE",
"961 1187 OFFCURVE",
"916 1187 CURVE SMOOTH"
);
},
{
closed = 1;
nodes = (
"413 1187 LINE SMOOTH",
"368 1187 OFFCURVE",
"350 1164 OFFCURVE",
"350 1069 CURVE SMOOTH",
"350 974 OFFCURVE",
"368 952 OFFCURVE",
"413 952 CURVE SMOOTH",
"855 952 LINE",
"855 1187 LINE"
);
}
);
width = 1228;
}
);
unicode = 004A;
},
{
glyphname = K;
lastChange = "2014-01-30 15:08:52 +0000";
layers = (
{
layerId = UUID0;
name = Regular;
paths = (
{
closed = 1;
nodes = (
"240 451 LINE",
"355 355 LINE",
"1053 1094 LINE SMOOTH",
"1085 1127 OFFCURVE",
"1083 1156 OFFCURVE",
"1036 1187 CURVE SMOOTH",
"996 1213 OFFCURVE",
"959 1216 OFFCURVE",
"936 1191 CURVE SMOOTH"
);
},
{
closed = 1;
nodes = (
"289 1197 LINE",
"233 1197 OFFCURVE",
"215 1178 OFFCURVE",
"215 1132 CURVE SMOOTH",
"215 55 LINE SMOOTH",
"215 9 OFFCURVE",
"233 -10 OFFCURVE",
"289 -10 CURVE",
"291 -10 LINE",
"347 -10 OFFCURVE",
"365 9 OFFCURVE",
"365 55 CURVE SMOOTH",
"365 1132 LINE SMOOTH",
"365 1178 OFFCURVE",
"347 1197 OFFCURVE",
"291 1197 CURVE"
);
},
{
closed = 1;
nodes = (
"487 618 LINE",
"953 6 LINE SMOOTH",
"978 -27 OFFCURVE",
"1008 -25 OFFCURVE",
"1052 0 CURVE SMOOTH",
"1101 28 OFFCURVE",
"1106 55 OFFCURVE",
"1078 92 CURVE SMOOTH",
"618 695 LINE"
);
}
);
width = 1228;
},
{
layerId = "222D0B97-E2BD-4249-A584-FAB7D66A0D71";
name = Bold;
paths = (
{
closed = 1;
nodes = (
"253 515 LINE",
"396 323 LINE",
"1083 1041 LINE SMOOTH",
"1117 1077 OFFCURVE",
"1115 1117 OFFCURVE",
"1036 1166 CURVE SMOOTH",
"956 1216 OFFCURVE",
"919 1222 OFFCURVE",
"886 1186 CURVE SMOOTH"
);
},
{
closed = 1;
nodes = (
"248 1187 LINE SMOOTH",
"203 1187 OFFCURVE",
"185 1169 OFFCURVE",
"185 1124 CURVE SMOOTH",
"185 63 LINE SMOOTH",
"185 18 OFFCURVE",
"203 0 OFFCURVE",
"248 0 CURVE",
"372 0 LINE SMOOTH",
"417 0 OFFCURVE",
"435 18 OFFCURVE",
"435 63 CURVE SMOOTH",
"435 1124 LINE SMOOTH",
"435 1169 OFFCURVE",
"417 1187 OFFCURVE",
"372 1187 CURVE SMOOTH"
);
},
{
closed = 1;
nodes = (
"468 611 LINE",
"875 7 LINE SMOOTH",
"902 -33 OFFCURVE",
"939 -31 OFFCURVE",
"1027 10 CURVE SMOOTH",
"1114 50 OFFCURVE",
"1127 84 OFFCURVE",
"1100 124 CURVE SMOOTH",
"719 679 LINE"
);
}
);
width = 1228;
}
);
unicode = 004B;
},
{
glyphname = L;
lastChange = "2014-02-08 07:38:54 +0000";
layers = (
{
layerId = UUID0;
name = Regular;
paths = (
{
closed = 1;
nodes = (
"319 1197 LINE SMOOTH",
"263 1197 OFFCURVE",
"245 1178 OFFCURVE",
"245 1132 CURVE SMOOTH",
"245 68 LINE SMOOTH",
"245 18 OFFCURVE",
"262 0 OFFCURVE",
"308 0 CURVE SMOOTH",
"395 0 LINE",
"395 1132 LINE SMOOTH",
"395 1178 OFFCURVE",
"377 1197 OFFCURVE",
"321 1197 CURVE SMOOTH"
);
},
{
closed = 1;
nodes = (
"349 144 LINE",
"349 0 LINE",
"977 0 LINE SMOOTH",
"1022 0 OFFCURVE",
"1040 20 OFFCURVE",
"1040 72 CURVE SMOOTH",
"1040 124 OFFCURVE",
"1022 144 OFFCURVE",
"977 144 CURVE SMOOTH"
);
}
);
width = 1228;
},
{
layerId = "222D0B97-E2BD-4249-A584-FAB7D66A0D71";
name = Bold;
paths = (
{
closed = 1;
nodes = (
"272 1187 LINE SMOOTH",
"227 1187 OFFCURVE",
"209 1169 OFFCURVE",
"209 1124 CURVE SMOOTH",
"209 63 LINE SMOOTH",
"209 18 OFFCURVE",
"227 0 OFFCURVE",
"272 0 CURVE SMOOTH",
"459 0 LINE",
"459 1124 LINE SMOOTH",
"459 1169 OFFCURVE",
"441 1187 OFFCURVE",
"396 1187 CURVE SMOOTH"
);
},
{
closed = 1;
nodes = (
"353 235 LINE",
"353 0 LINE",
"1005 0 LINE SMOOTH",
"1050 0 OFFCURVE",
"1068 22 OFFCURVE",
"1068 117 CURVE SMOOTH",
"1068 212 OFFCURVE",
"1050 235 OFFCURVE",
"1005 235 CURVE SMOOTH"
);
}
);
width = 1228;
}
);
unicode = 004C;
},
{
color = 6;
glyphname = Lslash;
lastChange = "2014-11-22 20:43:19 +0000";
layers = (
{
background = {
paths = (
{
closed = 1;
nodes = (
"977 0 LINE SMOOTH",
"1022 0 OFFCURVE",
"1040 20 OFFCURVE",
"1040 72 CURVE SMOOTH",
"1040 124 OFFCURVE",
"1022 144 OFFCURVE",
"977 144 CURVE SMOOTH",
"455 144 LINE",
"455 1132 LINE SMOOTH",
"455 1178 OFFCURVE",
"436 1197 OFFCURVE",
"380 1197 CURVE SMOOTH",
"324 1197 OFFCURVE",
"305 1178 OFFCURVE",
"305 1132 CURVE SMOOTH",
"305 68 LINE SMOOTH",
"305 18 OFFCURVE",
"323 0 OFFCURVE",
"368 0 CURVE SMOOTH"
);
}
);
};
layerId = UUID0;
name = Regular;
paths = (
{
closed = 1;
nodes = (
"92 468 LINE SMOOTH",
"55 443 OFFCURVE",
"50 418 OFFCURVE",
"78 377 CURVE SMOOTH",
"106 335 OFFCURVE",
"132 331 OFFCURVE",
"169 356 CURVE SMOOTH",
"738 743 LINE SMOOTH",
"775 768 OFFCURVE",
"780 793 OFFCURVE",
"752 834 CURVE SMOOTH",
"724 876 OFFCURVE",
"698 880 OFFCURVE",
"661 855 CURVE SMOOTH"
);
},
{
closed = 1;
nodes = (
"379 1197 LINE SMOOTH",
"323 1197 OFFCURVE",
"305 1178 OFFCURVE",
"305 1132 CURVE SMOOTH",
"305 68 LINE SMOOTH",
"305 18 OFFCURVE",
"322 0 OFFCURVE",
"368 0 CURVE SMOOTH",
"455 0 LINE",
"455 1132 LINE SMOOTH",
"455 1178 OFFCURVE",
"437 1197 OFFCURVE",
"381 1197 CURVE SMOOTH"
);
},
{
closed = 1;
nodes = (
"409 144 LINE",
"409 0 LINE",
"977 0 LINE SMOOTH",
"1022 0 OFFCURVE",
"1040 20 OFFCURVE",
"1040 72 CURVE SMOOTH",
"1040 124 OFFCURVE",
"1022 144 OFFCURVE",
"977 144 CURVE SMOOTH"
);
}
);
width = 1228;
},
{
background = {
paths = (
{
closed = 1;
nodes = (
"519 150 LINE",
"519 1124 LINE SMOOTH",
"519 1169 OFFCURVE",
"501 1187 OFFCURVE",
"456 1187 CURVE SMOOTH",
"332 1187 LINE SMOOTH",
"287 1187 OFFCURVE",
"269 1169 OFFCURVE",
"269 1124 CURVE SMOOTH",
"269 150 LINE"
);
},
{
closed = 1;
nodes = (
"363 235 LINE",
"363 0 LINE",
"1005 0 LINE SMOOTH",
"1050 0 OFFCURVE",
"1068 23 OFFCURVE",
"1068 118 CURVE SMOOTH",
"1068 213 OFFCURVE",
"1050 235 OFFCURVE",
"1005 235 CURVE SMOOTH"
);
},
{
closed = 1;
nodes = (
"269 337 LINE",
"269 63 LINE SMOOTH",
"269 18 OFFCURVE",
"287 0 OFFCURVE",
"332 0 CURVE SMOOTH",
"456 0 LINE",
"519 63 LINE",
"519 337 LINE"
);
},
{
closed = 1;
nodes = (
"35 487 LINE SMOOTH",
"-4 464 OFFCURVE",
"-10 439 OFFCURVE",
"33 366 CURVE SMOOTH",
"77 293 OFFCURVE",
"101 288 OFFCURVE",
"139 311 CURVE SMOOTH",
"269 388 LINE",
"269 63 LINE SMOOTH",
"269 18 OFFCURVE",
"287 0 OFFCURVE",
"332 0 CURVE SMOOTH",
"1005 0 LINE SMOOTH",
"1050 0 OFFCURVE",
"1068 23 OFFCURVE",
"1068 118 CURVE SMOOTH",
"1068 213 OFFCURVE",
"1050 235 OFFCURVE",
"1005 235 CURVE SMOOTH",
"519 235 LINE",
"519 536 LINE",
"795 700 LINE SMOOTH",
"833 723 OFFCURVE",
"840 747 OFFCURVE",
"797 820 CURVE SMOOTH",
"753 893 OFFCURVE",
"729 899 OFFCURVE",
"690 876 CURVE SMOOTH",
"519 774 LINE",
"519 1124 LINE SMOOTH",
"519 1169 OFFCURVE",
"501 1187 OFFCURVE",
"456 1187 CURVE SMOOTH",
"332 1187 LINE SMOOTH",
"287 1187 OFFCURVE",
"269 1169 OFFCURVE",
"269 1124 CURVE SMOOTH",
"269 626 LINE"
);
}
);
};
layerId = "222D0B97-E2BD-4249-A584-FAB7D66A0D71";
name = Bold;
paths = (
{
closed = 1;
nodes = (
"55 487 LINE SMOOTH",
"16 464 OFFCURVE",
"10 439 OFFCURVE",
"53 366 CURVE SMOOTH",
"97 293 OFFCURVE",
"121 288 OFFCURVE",
"159 311 CURVE SMOOTH",
"815 700 LINE SMOOTH",
"853 723 OFFCURVE",
"860 747 OFFCURVE",
"817 820 CURVE SMOOTH",
"773 893 OFFCURVE",
"749 899 OFFCURVE",
"710 876 CURVE SMOOTH"
);
},
{
closed = 1;
nodes = (
"332 1187 LINE SMOOTH",
"287 1187 OFFCURVE",
"269 1169 OFFCURVE",
"269 1124 CURVE SMOOTH",
"269 63 LINE SMOOTH",
"269 18 OFFCURVE",
"287 0 OFFCURVE",
"332 0 CURVE SMOOTH",
"519 0 LINE",
"519 1124 LINE SMOOTH",
"519 1169 OFFCURVE",
"501 1187 OFFCURVE",
"456 1187 CURVE SMOOTH"
);
},
{
closed = 1;
nodes = (
"413 235 LINE",
"413 0 LINE",
"1005 0 LINE SMOOTH",
"1050 0 OFFCURVE",
"1068 22 OFFCURVE",
"1068 117 CURVE SMOOTH",
"1068 212 OFFCURVE",
"1050 235 OFFCURVE",
"1005 235 CURVE SMOOTH"
);
}
);
width = 1228;
}
);
unicode = 0141;
},
{
glyphname = M;
lastChange = "2014-05-17 03:35:29 +0000";
layers = (
{
layerId = UUID0;
name = Regular;
paths = (
{
closed = 1;
nodes = (
"976 1197 LINE SMOOTH",
"929 1197 OFFCURVE",
"900 1177 OFFCURVE",
"879 1132 CURVE SMOOTH",
"614 562 LINE",
"349 1132 LINE SMOOTH",
"328 1177 OFFCURVE",
"300 1197 OFFCURVE",
"253 1197 CURVE SMOOTH",
"251 1197 LINE SMOOTH",
"204 1197 OFFCURVE",
"176 1182 OFFCURVE",
"175 1132 CURVE SMOOTH",
"145 55 LINE SMOOTH",
"144 9 OFFCURVE",
"162 -10 OFFCURVE",
"218 -10 CURVE SMOOTH",
"220 -10 LINE SMOOTH",
"276 -10 OFFCURVE",
"293 9 OFFCURVE",
"294 55 CURVE SMOOTH",
"315 868 LINE",
"522 422 LINE SMOOTH",
"544 375 OFFCURVE",
"569 358 OFFCURVE",
"614 358 CURVE SMOOTH",
"659 358 OFFCURVE",
"684 375 OFFCURVE",
"706 422 CURVE SMOOTH",
"913 868 LINE",
"934 55 LINE SMOOTH",
"935 9 OFFCURVE",
"952 -10 OFFCURVE",
"1008 -10 CURVE SMOOTH",
"1010 -10 LINE SMOOTH",
"1066 -10 OFFCURVE",
"1084 9 OFFCURVE",
"1083 55 CURVE SMOOTH",
"1053 1132 LINE SMOOTH",
"1052 1182 OFFCURVE",
"1025 1197 OFFCURVE",
"978 1197 CURVE SMOOTH"
);
}
);
width = 1228;
},
{
layerId = "222D0B97-E2BD-4249-A584-FAB7D66A0D71";
name = Bold;
paths = (
{
closed = 1;
nodes = (
"910 1187 LINE SMOOTH",
"883 1187 OFFCURVE",
"867 1179 OFFCURVE",
"856 1156 CURVE SMOOTH",
"614 665 LINE",
"371 1156 LINE SMOOTH",
"360 1179 OFFCURVE",
"344 1187 OFFCURVE",
"317 1187 CURVE SMOOTH",
"203 1187 LINE SMOOTH",
"158 1187 OFFCURVE",
"141 1169 OFFCURVE",
"140 1124 CURVE SMOOTH",
"120 63 LINE SMOOTH",
"119 18 OFFCURVE",
"138 0 OFFCURVE",
"183 0 CURVE SMOOTH",
"290 0 LINE SMOOTH",
"335 0 OFFCURVE",
"353 18 OFFCURVE",
"353 63 CURVE SMOOTH",
"359 684 LINE",
"512 375 LINE SMOOTH",
"534 331 OFFCURVE",
"558 315 OFFCURVE",
"615 315 CURVE SMOOTH",
"672 315 OFFCURVE",
"695 332 OFFCURVE",
"716 375 CURVE SMOOTH",
"868 687 LINE",
"875 63 LINE SMOOTH",
"875 18 OFFCURVE",
"893 0 OFFCURVE",
"938 0 CURVE SMOOTH",
"1045 0 LINE SMOOTH",
"1090 0 OFFCURVE",
"1109 18 OFFCURVE",
"1108 63 CURVE SMOOTH",
"1088 1124 LINE SMOOTH",
"1087 1169 OFFCURVE",
"1070 1187 OFFCURVE",
"1025 1187 CURVE SMOOTH"
);
}
);
width = 1228;
}
);
unicode = 004D;
},
{
glyphname = N;
lastChange = "2014-11-23 03:05:18 +0000";
layers = (
{
background = {
paths = (
{
closed = 1;
nodes = (
"325 913 LINE",
"894 33 LINE SMOOTH",
"916 -1 OFFCURVE",
"940 -22 OFFCURVE",
"978 -22 CURVE SMOOTH",
"1030 -22 OFFCURVE",
"1053 2 OFFCURVE",
"1053 37 CURVE SMOOTH",
"1053 1132 LINE SMOOTH",
"1053 1178 OFFCURVE",
"1034 1197 OFFCURVE",
"978 1197 CURVE SMOOTH",
"922 1197 OFFCURVE",
"903 1178 OFFCURVE",
"903 1132 CURVE SMOOTH",
"903 297 LINE",
"339 1169 LINE SMOOTH",
"327 1187 OFFCURVE",
"306 1197 OFFCURVE",
"277 1197 CURVE SMOOTH",
"250 1197 LINE SMOOTH",
"194 1197 OFFCURVE",
"175 1178 OFFCURVE",
"175 1132 CURVE SMOOTH",
"175 55 LINE SMOOTH",
"175 9 OFFCURVE",
"194 -10 OFFCURVE",
"250 -10 CURVE SMOOTH",
"306 -10 OFFCURVE",
"325 9 OFFCURVE",
"325 55 CURVE SMOOTH"
);
}
);
};
layerId = UUID0;
name = Regular;
paths = (
{
closed = 1;
nodes = (
"979 1197 LINE SMOOTH",
"925 1197 OFFCURVE",
"907 1178 OFFCURVE",
"907 1132 CURVE SMOOTH",
"907 287 LINE",
"903 287 LINE",
"339 1169 LINE SMOOTH",
"327 1187 OFFCURVE",
"306 1197 OFFCURVE",
"277 1197 CURVE SMOOTH",
"250 1197 LINE SMOOTH",
"194 1197 OFFCURVE",
"175 1178 OFFCURVE",
"175 1132 CURVE SMOOTH",
"175 55 LINE SMOOTH",
"175 9 OFFCURVE",
"193 -10 OFFCURVE",
"247 -10 CURVE SMOOTH",
"249 -10 LINE SMOOTH",
"303 -10 OFFCURVE",
"321 9 OFFCURVE",
"321 55 CURVE SMOOTH",
"321 921 LINE",
"325 921 LINE",
"894 33 LINE SMOOTH",
"916 -1 OFFCURVE",
"940 -22 OFFCURVE",
"978 -22 CURVE SMOOTH",
"1030 -22 OFFCURVE",
"1053 2 OFFCURVE",
"1053 37 CURVE SMOOTH",
"1053 1132 LINE SMOOTH",
"1053 1178 OFFCURVE",
"1035 1197 OFFCURVE",
"981 1197 CURVE SMOOTH"
);
}
);
width = 1228;
},
{
layerId = "222D0B97-E2BD-4249-A584-FAB7D66A0D71";
name = Bold;
paths = (
{
closed = 1;
nodes = (
"915 1187 LINE SMOOTH",
"870 1187 OFFCURVE",
"852 1169 OFFCURVE",
"852 1124 CURVE SMOOTH",
"852 496 LINE",
"848 496.166 LINE",
"391 1163 LINE SMOOTH",
"379 1181 OFFCURVE",
"361 1187 OFFCURVE",
"337 1187 CURVE SMOOTH",
"203 1187 LINE SMOOTH",
"158 1187 OFFCURVE",
"140 1169 OFFCURVE",
"140 1124 CURVE SMOOTH",
"140 63 LINE SMOOTH",
"140 18 OFFCURVE",
"158 0 OFFCURVE",
"203 0 CURVE SMOOTH",
"313 0 LINE SMOOTH",
"358 0 OFFCURVE",
"376 18 OFFCURVE",
"376 63 CURVE SMOOTH",
"376 747 LINE",
"380 747.019 LINE",
"869 33 LINE SMOOTH",
"893 -2 OFFCURVE",
"915 -22 OFFCURVE",
"978 -22 CURVE SMOOTH",
"1062 -22 OFFCURVE",
"1088 2 OFFCURVE",
"1088 44 CURVE SMOOTH",
"1088 1124 LINE SMOOTH",
"1088 1169 OFFCURVE",
"1070 1187 OFFCURVE",
"1025 1187 CURVE SMOOTH"
);
}
);
width = 1228;
}
);
unicode = 004E;
},
{
color = 3;
glyphname = Eng;
lastChange = "2014-11-23 03:08:22 +0000";
layers = (
{
background = {
components = (
{
name = N;
transform = "{1, 0, 0, 1, 0, 0}";
}
);
paths = (
{
closed = 1;
nodes = (
"903 198 LINE",
"903 -107 LINE SMOOTH",
"903 -220 OFFCURVE",
"863 -264 OFFCURVE",
"781 -264 CURVE SMOOTH",
"721 -264 OFFCURVE",
"657 -246 OFFCURVE",
"604 -224 CURVE SMOOTH",
"575 -212 OFFCURVE",
"544 -212 OFFCURVE",
"521 -265 CURVE SMOOTH",
"499 -315 OFFCURVE",
"511 -343 OFFCURVE",
"549 -360 CURVE SMOOTH",
"617 -390 OFFCURVE",
"700 -410 OFFCURVE",
"780 -410 CURVE SMOOTH",
"956 -410 OFFCURVE",
"1053 -314 OFFCURVE",
"1053 -135 CURVE SMOOTH",
"1053 198 LINE"
);
}
);
};
layerId = UUID0;
name = Regular;
paths = (
{
closed = 1;
nodes = (
"979 1197 LINE SMOOTH",
"925 1197 OFFCURVE",
"907 1178 OFFCURVE",
"907 1132 CURVE SMOOTH",
"907 287 LINE",
"903 287 LINE",
"339 1169 LINE SMOOTH",
"327 1187 OFFCURVE",
"306 1197 OFFCURVE",
"277 1197 CURVE SMOOTH",
"250 1197 LINE SMOOTH",
"194 1197 OFFCURVE",
"175 1178 OFFCURVE",
"175 1132 CURVE SMOOTH",
"175 55 LINE SMOOTH",
"175 9 OFFCURVE",
"193 -10 OFFCURVE",
"247 -10 CURVE SMOOTH",
"249 -10 LINE SMOOTH",
"303 -10 OFFCURVE",
"321 9 OFFCURVE",
"321 55 CURVE SMOOTH",
"321 921 LINE",
"325 921 LINE",
"903 19 LINE",
"903 -107 LINE SMOOTH",
"903 -220 OFFCURVE",
"863 -264 OFFCURVE",
"781 -264 CURVE SMOOTH",
"721 -264 OFFCURVE",
"657 -246 OFFCURVE",
"604 -224 CURVE SMOOTH",
"575 -212 OFFCURVE",
"544 -212 OFFCURVE",
"521 -265 CURVE SMOOTH",
"499 -315 OFFCURVE",
"511 -343 OFFCURVE",
"549 -360 CURVE SMOOTH",
"617 -390 OFFCURVE",
"700 -410 OFFCURVE",
"780 -410 CURVE SMOOTH",
"956 -410 OFFCURVE",
"1053 -314 OFFCURVE",
"1053 -135 CURVE SMOOTH",
"1053 1132 LINE SMOOTH",
"1053 1178 OFFCURVE",
"1035 1197 OFFCURVE",
"981 1197 CURVE SMOOTH"
);
}
);
width = 1228;
},
{
background = {
components = (
{
name = N;
transform = "{1, 0, 0, 1, 0, 0}";
}
);
paths = (
{
closed = 1;
nodes = (
"838 336 LINE",
"838 -39 LINE SMOOTH",
"838 -135 OFFCURVE",
"800 -173 OFFCURVE",
"719 -173 CURVE SMOOTH",
"682 -173 OFFCURVE",
"626 -162 OFFCURVE",
"578 -147 CURVE SMOOTH",
"537 -134 OFFCURVE",
"505 -153 OFFCURVE",
"484 -235 CURVE SMOOTH",
"463 -319 OFFCURVE",
"473 -353 OFFCURVE",
"517 -370 CURVE SMOOTH",
"585 -396 OFFCURVE",
"661 -410 OFFCURVE",
"726 -410 CURVE SMOOTH",
"965 -410 OFFCURVE",
"1088 -292 OFFCURVE",
"1088 -55 CURVE SMOOTH",
"1088 336 LINE"
);
}
);
};
layerId = "222D0B97-E2BD-4249-A584-FAB7D66A0D71";
name = Bold;
paths = (
{
closed = 1;
nodes = (
"915 1187 LINE SMOOTH",
"870 1187 OFFCURVE",
"852 1169 OFFCURVE",
"852 1124 CURVE SMOOTH",
"852 496 LINE",
"848 496 LINE",
"391 1163 LINE SMOOTH",
"379 1181 OFFCURVE",
"361 1187 OFFCURVE",
"337 1187 CURVE SMOOTH",
"203 1187 LINE SMOOTH",
"158 1187 OFFCURVE",
"140 1169 OFFCURVE",
"140 1124 CURVE SMOOTH",
"140 63 LINE SMOOTH",
"140 18 OFFCURVE",
"158 0 OFFCURVE",
"203 0 CURVE SMOOTH",
"313 0 LINE SMOOTH",
"358 0 OFFCURVE",
"376 18 OFFCURVE",
"376 63 CURVE SMOOTH",
"376 747 LINE",
"380 747 LINE",
"838 78 LINE",
"838 -39 LINE SMOOTH",
"838 -135 OFFCURVE",
"800 -173 OFFCURVE",
"719 -173 CURVE SMOOTH",
"682 -173 OFFCURVE",
"626 -162 OFFCURVE",
"578 -147 CURVE SMOOTH",
"537 -134 OFFCURVE",
"505 -153 OFFCURVE",
"484 -235 CURVE SMOOTH",
"463 -319 OFFCURVE",
"473 -353 OFFCURVE",
"517 -370 CURVE SMOOTH",
"585 -396 OFFCURVE",
"661 -410 OFFCURVE",
"726 -410 CURVE SMOOTH",
"965 -410 OFFCURVE",
"1088 -292 OFFCURVE",
"1088 -55 CURVE SMOOTH",
"1088 1124 LINE SMOOTH",
"1088 1169 OFFCURVE",
"1070 1187 OFFCURVE",
"1025 1187 CURVE SMOOTH"
);
}
);
width = 1228;
}
);
unicode = 014A;
},
{
glyphname = O;
lastChange = "2014-02-03 05:43:48 +0000";
layers = (
{
layerId = UUID0;
name = Regular;
paths = (
{
closed = 1;
nodes = (
"299 1209 OFFCURVE",
"90 963 OFFCURVE",
"90 593 CURVE SMOOTH",
"90 223 OFFCURVE",
"299 -22 OFFCURVE",
"614 -22 CURVE SMOOTH",
"929 -22 OFFCURVE",
"1138 223 OFFCURVE",
"1138 593 CURVE SMOOTH",
"1138 963 OFFCURVE",
"929 1209 OFFCURVE",
"614 1209 CURVE SMOOTH"
);
},
{
closed = 1;
nodes = (
"838 1061 OFFCURVE",
"984 883 OFFCURVE",
"984 593 CURVE SMOOTH",
"984 303 OFFCURVE",
"838 126 OFFCURVE",
"614 126 CURVE SMOOTH",
"390 126 OFFCURVE",
"244 303 OFFCURVE",
"244 593 CURVE SMOOTH",
"244 883 OFFCURVE",
"390 1061 OFFCURVE",
"614 1061 CURVE SMOOTH"
);
}
);
width = 1228;
},
{
layerId = "222D0B97-E2BD-4249-A584-FAB7D66A0D71";
name = Bold;
paths = (
{
closed = 1;
nodes = (
"284 1209 OFFCURVE",
"66 974 OFFCURVE",
"66 594 CURVE SMOOTH",
"66 214 OFFCURVE",
"284 -22 OFFCURVE",
"614 -22 CURVE SMOOTH",
"944 -22 OFFCURVE",
"1162 214 OFFCURVE",
"1162 594 CURVE SMOOTH",
"1162 974 OFFCURVE",
"944 1209 OFFCURVE",
"614 1209 CURVE SMOOTH"
);
},
{
closed = 1;
nodes = (
"801 972 OFFCURVE",
"900 837 OFFCURVE",
"900 594 CURVE SMOOTH",
"900 351 OFFCURVE",
"801 215 OFFCURVE",
"614 215 CURVE SMOOTH",
"427 215 OFFCURVE",
"328 351 OFFCURVE",
"328 594 CURVE SMOOTH",
"328 837 OFFCURVE",
"427 972 OFFCURVE",
"614 972 CURVE SMOOTH"
);
}
);
width = 1228;
}
);
unicode = 004F;
},
{
color = 6;
glyphname = Oslash;
lastChange = "2014-11-25 21:11:19 +0000";
layers = (
{
background = {
paths = (
{
closed = 1;
nodes = (
"177 90 LINE SMOOTH",
"151 52 OFFCURVE",
"157 25 OFFCURVE",
"198 -3 CURVE SMOOTH",
"238 -31 OFFCURVE",
"266 -28 OFFCURVE",
"292 10 CURVE SMOOTH",
"1051 1099 LINE SMOOTH",
"1077 1136 OFFCURVE",
"1071 1164 OFFCURVE",
"1031 1192 CURVE SMOOTH",
"991 1220 OFFCURVE",
"962 1217 OFFCURVE",
"936 1179 CURVE SMOOTH"
);
}
);
};
components = (
{
name = O;
transform = "{1, 0, 0, 1, 0, 0}";
}
);
layerId = UUID0;
name = Regular;
paths = (
{
closed = 1;
nodes = (
"1031 1280 OFFCURVE",
"1002 1277 OFFCURVE",
"976 1239 CURVE SMOOTH",
"137 30 LINE SMOOTH",
"111 -8 OFFCURVE",
"117 -35 OFFCURVE",
"158 -63 CURVE SMOOTH",
"198 -91 OFFCURVE",
"226 -88 OFFCURVE",
"252 -50 CURVE SMOOTH",
"1091 1159 LINE SMOOTH",
"1116 1196 OFFCURVE",
"1111 1224 OFFCURVE",
"1071 1252 CURVE SMOOTH"
);
}
);
width = 1228;
},
{
background = {
paths = (
{
closed = 1;
nodes = (
"165 114 LINE SMOOTH",
"139 77 OFFCURVE",
"144 52 OFFCURVE",
"206 9 CURVE SMOOTH",
"267 -34 OFFCURVE",
"292 -30 OFFCURVE",
"318 7 CURVE SMOOTH",
"1063 1073 LINE SMOOTH",
"1089 1110 OFFCURVE",
"1084 1135 OFFCURVE",
"1023 1178 CURVE SMOOTH",
"961 1221 OFFCURVE",
"937 1217 OFFCURVE",
"911 1180 CURVE SMOOTH"
);
}
);
};
components = (
{
name = O;
transform = "{1, 0, 0, 1, 0, 0}";
}
);
layerId = "222D0B97-E2BD-4249-A584-FAB7D66A0D71";
name = Bold;
paths = (
{
closed = 1;
nodes = (
"1011 1291 OFFCURVE",
"987 1287 OFFCURVE",
"961 1250 CURVE SMOOTH",
"115 44 LINE SMOOTH",
"89 7 OFFCURVE",
"94 -18 OFFCURVE",
"156 -61 CURVE SMOOTH",
"217 -104 OFFCURVE",
"242 -100 OFFCURVE",
"268 -63 CURVE SMOOTH",
"1113 1143 LINE SMOOTH",
"1139 1180 OFFCURVE",
"1134 1205 OFFCURVE",
"1073 1248 CURVE SMOOTH"
);
}
);
width = 1228;
}
);
unicode = 00D8;
},
{
glyphname = OE;
lastChange = "2014-02-03 05:28:26 +0000";
layers = (
{
layerId = UUID0;
name = Regular;
paths = (
{
closed = 1;
nodes = (
"291 1195 OFFCURVE",
"84 970 OFFCURVE",
"84 593 CURVE SMOOTH",
"84 216 OFFCURVE",
"291 -8 OFFCURVE",
"611 0 CURVE",
"602 136 LINE",
"384 136 OFFCURVE",
"238 295 OFFCURVE",
"238 593 CURVE SMOOTH",
"238 891 OFFCURVE",
"384 1051 OFFCURVE",
"602 1050 CURVE",
"611 1187 LINE"
);
},
{
closed = 1;
nodes = (
"680 144 LINE",
"680 0 LINE",
"1078 0 LINE SMOOTH",
"1123 0 OFFCURVE",
"1141 20 OFFCURVE",
"1141 72 CURVE SMOOTH",
"1141 124 OFFCURVE",
"1123 144 OFFCURVE",
"1078 144 CURVE SMOOTH"
);
},
{
closed = 1;
nodes = (
"611 1187 LINE",
"586 1158 LINE",
"586 24 LINE",
"611 0 LINE",
"736 0 LINE",
"736 1187 LINE"
);
},
{
closed = 1;
nodes = (
"680 684 LINE",
"680 540 LINE",
"983 540 LINE SMOOTH",
"1028 540 OFFCURVE",
"1046 560 OFFCURVE",
"1046 612 CURVE SMOOTH",
"1046 664 OFFCURVE",
"1028 684 OFFCURVE",
"983 684 CURVE SMOOTH"
);
},
{
closed = 1;
nodes = (
"680 1187 LINE",
"680 1043 LINE",
"1058 1043 LINE SMOOTH",
"1103 1043 OFFCURVE",
"1121 1063 OFFCURVE",
"1121 1115 CURVE SMOOTH",
"1121 1167 OFFCURVE",
"1103 1187 OFFCURVE",
"1058 1187 CURVE SMOOTH"
);
}
);
width = 1228;
},
{
layerId = "222D0B97-E2BD-4249-A584-FAB7D66A0D71";
name = Bold;
paths = (
{
closed = 1;
nodes = (
"280 1187 OFFCURVE",
"53 974 OFFCURVE",
"53 594 CURVE SMOOTH",
"53 214 OFFCURVE",
"280 0 OFFCURVE",
"604 0 CURVE",
"590 235 LINE",
"437 235 OFFCURVE",
"313 350 OFFCURVE",
"313 594 CURVE SMOOTH",
"313 838 OFFCURVE",
"437 952 OFFCURVE",
"590 952 CURVE",
"604 1187 LINE"
);
},
{
closed = 1;
nodes = (
"739 235 LINE",
"739 0 LINE",
"1117 0 LINE SMOOTH",
"1162 0 OFFCURVE",
"1180 22 OFFCURVE",
"1180 117 CURVE SMOOTH",
"1180 212 OFFCURVE",
"1162 235 OFFCURVE",
"1117 235 CURVE SMOOTH"
);
},
{
closed = 1;
nodes = (
"604 1187 LINE",
"550 1138 LINE",
"550 50 LINE",
"604 0 LINE",
"800 0 LINE",
"800 1187 LINE"
);
},
{
closed = 1;
nodes = (
"739 729 LINE",
"739 494 LINE",
"1034 494 LINE SMOOTH",
"1079 494 OFFCURVE",
"1097 516 OFFCURVE",
"1097 611 CURVE SMOOTH",
"1097 706 OFFCURVE",
"1079 729 OFFCURVE",
"1034 729 CURVE SMOOTH"
);
},
{
closed = 1;
nodes = (
"739 1187 LINE",
"739 952 LINE",
"1097 952 LINE SMOOTH",
"1142 952 OFFCURVE",
"1160 974 OFFCURVE",
"1160 1069 CURVE SMOOTH",
"1160 1164 OFFCURVE",
"1142 1187 OFFCURVE",
"1097 1187 CURVE SMOOTH"
);
}
);
width = 1228;
}
);
unicode = 0152;
},
{
glyphname = P;
lastChange = "2014-01-31 04:10:42 +0000";
layers = (
{
layerId = UUID0;
name = Regular;
paths = (
{
closed = 1;
nodes = (
"338 1187 LINE",
"338 1043 LINE",
"619 1043 LINE SMOOTH",
"816 1043 OFFCURVE",
"918 949 OFFCURVE",
"918 788 CURVE SMOOTH",
"918 629 OFFCURVE",
"816 537 OFFCURVE",
"619 537 CURVE SMOOTH",
"338 537 LINE",
"338 393 LINE",
"640 393 LINE SMOOTH",
"920 393 OFFCURVE",
"1072 553 OFFCURVE",
"1072 788 CURVE SMOOTH",
"1072 1024 OFFCURVE",
"920 1187 OFFCURVE",
"640 1187 CURVE SMOOTH"
);
},
{
closed = 1;
nodes = (
"298 1187 LINE SMOOTH",
"253 1187 OFFCURVE",
"235 1169 OFFCURVE",
"235 1119 CURVE SMOOTH",
"235 55 LINE SMOOTH",
"235 9 OFFCURVE",
"253 -10 OFFCURVE",
"309 -10 CURVE SMOOTH",
"311 -10 LINE SMOOTH",
"367 -10 OFFCURVE",
"385 9 OFFCURVE",
"385 55 CURVE",
"385 1187 LINE"
);
}
);
width = 1228;
},
{
layerId = "222D0B97-E2BD-4249-A584-FAB7D66A0D71";
name = Bold;
paths = (
{
closed = 1;
nodes = (
"362 1187 LINE",
"362 952 LINE",
"609 952 LINE SMOOTH",
"766 952 OFFCURVE",
"849 894 OFFCURVE",
"849 765 CURVE SMOOTH",
"849 636 OFFCURVE",
"766 577 OFFCURVE",
"609 577 CURVE SMOOTH",
"362 577 LINE",
"362 342 LINE",
"640 342 LINE SMOOTH",
"950 342 OFFCURVE",
"1107 508 OFFCURVE",
"1107 765 CURVE SMOOTH",
"1107 1022 OFFCURVE",
"950 1187 OFFCURVE",
"640 1187 CURVE SMOOTH"
);
},
{
closed = 1;
nodes = (
"263 1187 LINE SMOOTH",
"218 1187 OFFCURVE",
"200 1169 OFFCURVE",
"200 1124 CURVE SMOOTH",
"200 63 LINE SMOOTH",
"200 18 OFFCURVE",
"218 0 OFFCURVE",
"263 0 CURVE SMOOTH",
"387 0 LINE",
"432 0 OFFCURVE",
"450 18 OFFCURVE",
"450 63 CURVE SMOOTH",
"450 1187 LINE"
);
}
);
width = 1228;
}
);
unicode = 0050;
},
{
glyphname = Thorn;
lastChange = "2014-02-03 05:24:35 +0000";
layers = (
{
layerId = UUID0;
name = Regular;
paths = (
{
closed = 1;
nodes = (
"329 946 LINE",
"329 802 LINE",
"659 802 LINE SMOOTH",
"826 802 OFFCURVE",
"904 719 OFFCURVE",
"904 598 CURVE SMOOTH",
"904 469 OFFCURVE",
"816 398 OFFCURVE",
"659 398 CURVE SMOOTH",
"329 398 LINE",
"329 254 LINE",
"680 254 LINE SMOOTH",
"930 254 OFFCURVE",
"1062 403 OFFCURVE",
"1062 598 CURVE SMOOTH",
"1062 794 OFFCURVE",
"930 946 OFFCURVE",
"680 946 CURVE SMOOTH"
);
},
{
closed = 1;
nodes = (
"309 1197 LINE",
"253 1197 OFFCURVE",
"235 1178 OFFCURVE",
"235 1132 CURVE SMOOTH",
"235 55 LINE SMOOTH",
"235 9 OFFCURVE",
"253 -10 OFFCURVE",
"309 -10 CURVE",
"311 -10 LINE",
"367 -10 OFFCURVE",
"385 9 OFFCURVE",
"385 55 CURVE SMOOTH",
"385 1132 LINE SMOOTH",
"385 1178 OFFCURVE",
"367 1197 OFFCURVE",
"311 1197 CURVE"
);
}
);
width = 1228;
},
{
layerId = "222D0B97-E2BD-4249-A584-FAB7D66A0D71";
name = Bold;
paths = (
{
closed = 1;
nodes = (
"362 977 LINE",
"362 742 LINE",
"609 742 LINE SMOOTH",
"756 742 OFFCURVE",
"829 694 OFFCURVE",
"829 595 CURVE SMOOTH",
"829 496 OFFCURVE",
"756 447 OFFCURVE",
"609 447 CURVE SMOOTH",
"362 447 LINE",
"362 212 LINE",
"640 212 LINE SMOOTH",
"940 212 OFFCURVE",
"1087 358 OFFCURVE",
"1087 595 CURVE SMOOTH",
"1087 832 OFFCURVE",
"940 977 OFFCURVE",
"640 977 CURVE SMOOTH"
);
},
{
closed = 1;
nodes = (
"273 1187 LINE SMOOTH",
"228 1187 OFFCURVE",
"210 1169 OFFCURVE",
"210 1124 CURVE SMOOTH",
"210 63 LINE SMOOTH",
"210 18 OFFCURVE",
"228 0 OFFCURVE",
"273 0 CURVE SMOOTH",
"397 0 LINE SMOOTH",
"442 0 OFFCURVE",
"460 18 OFFCURVE",
"460 63 CURVE SMOOTH",
"460 1124 LINE SMOOTH",
"460 1169 OFFCURVE",
"442 1187 OFFCURVE",
"397 1187 CURVE SMOOTH"
);
}
);
width = 1228;
}
);
unicode = 00DE;
},
{
color = 6;
glyphname = Q;
lastChange = "2014-11-22 23:21:01 +0000";
layers = (
{
components = (
{
name = O;
transform = "{1, 0, 0, 1, 0, 0}";
}
);
layerId = UUID0;
name = Regular;
paths = (
{
closed = 1;
nodes = (
"578 365 OFFCURVE",
"572 339 OFFCURVE",
"597 300 CURVE SMOOTH",
"728 95 LINE",
"754 54 LINE",
"876 -135 LINE SMOOTH",
"901 -173 OFFCURVE",
"927 -179 OFFCURVE",
"974 -149 CURVE SMOOTH",
"1022 -119 OFFCURVE",
"1027 -92 OFFCURVE",
"1002 -54 CURVE SMOOTH",
"723 381 LINE SMOOTH",
"698 420 OFFCURVE",
"672 426 OFFCURVE",
"625 396 CURVE SMOOTH"
);
}
);
width = 1228;
},
{
components = (
{
name = O;
transform = "{1, 0, 0, 1, 0, 0}";
}
);
layerId = "222D0B97-E2BD-4249-A584-FAB7D66A0D71";
name = Bold;
paths = (
{
closed = 1;
nodes = (
"526 411 OFFCURVE",
"518 383 OFFCURVE",
"544 346 CURVE SMOOTH",
"672 163 LINE",
"714 67 LINE",
"860 -143 LINE SMOOTH",
"886 -179 OFFCURVE",
"918 -179 OFFCURVE",
"996 -124 CURVE SMOOTH",
"1074 -70 OFFCURVE",
"1087 -39 OFFCURVE",
"1061 -2 CURVE SMOOTH",
"729 475 LINE SMOOTH",
"703 512 OFFCURVE",
"674 514 OFFCURVE",
"600 462 CURVE SMOOTH"
);
}
);
width = 1228;
}
);
unicode = 0051;
},
{
glyphname = R;
lastChange = "2015-01-02 01:54:23 +0000";
layers = (
{
layerId = UUID0;
name = Regular;
paths = (
{
closed = 1;
nodes = (
"337 1187 LINE",
"337 1043 LINE",
"599 1043 LINE SMOOTH",
"786 1043 OFFCURVE",
"878 969 OFFCURVE",
"878 828 CURVE SMOOTH",
"878 689 OFFCURVE",
"786 617 OFFCURVE",
"599 617 CURVE SMOOTH",
"337 617 LINE",
"337 473 LINE",
"620 473 LINE SMOOTH",
"890 473 OFFCURVE",
"1032 613 OFFCURVE",
"1032 828 CURVE SMOOTH",
"1032 1044 OFFCURVE",
"890 1187 OFFCURVE",
"620 1187 CURVE SMOOTH"
);
},
{
closed = 1;
nodes = (
"298 1187 LINE SMOOTH",
"253 1187 OFFCURVE",
"235 1169 OFFCURVE",
"235 1119 CURVE SMOOTH",
"235 55 LINE SMOOTH",
"235 9 OFFCURVE",
"253 -10 OFFCURVE",
"309 -10 CURVE SMOOTH",
"311 -10 LINE SMOOTH",
"367 -10 OFFCURVE",
"385 9 OFFCURVE",
"385 55 CURVE SMOOTH",
"385 1187 LINE"
);
},
{
closed = 1;
nodes = (
"566 536 LINE",
"905 13 LINE SMOOTH",
"926 -20 OFFCURVE",
"953 -22 OFFCURVE",
"1002 0 CURVE SMOOTH",
"1053 23 OFFCURVE",
"1060 49 OFFCURVE",
"1035 88 CURVE SMOOTH",
"724 562 LINE"
);
}
);
width = 1228;
},
{
layerId = "222D0B97-E2BD-4249-A584-FAB7D66A0D71";
name = Bold;
paths = (
{
closed = 1;
nodes = (
"352 1187 LINE",
"352 952 LINE",
"619 952 LINE SMOOTH",
"756 952 OFFCURVE",
"819 903 OFFCURVE",
"819 794 CURVE SMOOTH",
"819 685 OFFCURVE",
"756 636 OFFCURVE",
"619 636 CURVE SMOOTH",
"352 636 LINE",
"352 401 LINE",
"640 401 LINE SMOOTH",
"920 401 OFFCURVE",
"1077 547 OFFCURVE",
"1077 794 CURVE SMOOTH",
"1077 1041 OFFCURVE",
"920 1187 OFFCURVE",
"640 1187 CURVE SMOOTH"
);
},
{
closed = 1;
nodes = (
"253 1187 LINE SMOOTH",
"209 1187 OFFCURVE",
"190 1169 OFFCURVE",
"190 1124 CURVE SMOOTH",
"190 63 LINE SMOOTH",
"190 18 OFFCURVE",
"208 0 OFFCURVE",
"253 0 CURVE SMOOTH",
"377 0 LINE SMOOTH",
"422 0 OFFCURVE",
"440 18 OFFCURVE",
"440 63 CURVE SMOOTH",
"440 1187 LINE"
);
},
{
closed = 1;
nodes = (
"544 499 LINE",
"836 18 LINE SMOOTH",
"861 -23 OFFCURVE",
"899 -22 OFFCURVE",
"988 14 CURVE SMOOTH",
"1077 51 OFFCURVE",
"1087 87 OFFCURVE",
"1062 128 CURVE SMOOTH",
"793 559 LINE"
);
}
);
width = 1228;
}
);
unicode = 0052;
},
{
glyphname = S;
lastChange = "2014-01-31 03:51:46 +0000";
layers = (
{
layerId = UUID0;
name = Regular;
paths = (
{
closed = 1;
nodes = (
"338 1209 OFFCURVE",
"172 1080 OFFCURVE",
"172 863 CURVE SMOOTH",
"172 724 OFFCURVE",
"241 651 OFFCURVE",
"336 608 CURVE SMOOTH",
"473 546 OFFCURVE",
"664 544 OFFCURVE",
"787 492 CURVE SMOOTH",
"859 461 OFFCURVE",
"908 414 OFFCURVE",
"908 327 CURVE SMOOTH",
"908 209 OFFCURVE",
"817 126 OFFCURVE",
"622 126 CURVE SMOOTH",
"491 126 OFFCURVE",
"365 171 OFFCURVE",
"270 232 CURVE SMOOTH",
"242 250 OFFCURVE",
"208 251 OFFCURVE",
"181 199 CURVE SMOOTH",
"156 151 OFFCURVE",
"164 117 OFFCURVE",
"201 94 CURVE SMOOTH",
"319 21 OFFCURVE",
"469 -22 OFFCURVE",
"622 -22 CURVE SMOOTH",
"916 -22 OFFCURVE",
"1062 121 OFFCURVE",
"1062 327 CURVE SMOOTH",
"1062 503 OFFCURVE",
"973 587 OFFCURVE",
"856 634 CURVE SMOOTH",
"705 695 OFFCURVE",
"509 694 OFFCURVE",
"403 748 CURVE SMOOTH",
"355 772 OFFCURVE",
"326 807 OFFCURVE",
"326 863 CURVE SMOOTH",
"326 985 OFFCURVE",
"418 1061 OFFCURVE",
"578 1061 CURVE SMOOTH",
"709 1061 OFFCURVE",
"826 1027 OFFCURVE",
"923 969 CURVE SMOOTH",
"952 952 OFFCURVE",
"987 952 OFFCURVE",
"1011 1004 CURVE SMOOTH",
"1034 1054 OFFCURVE",
"1026 1087 OFFCURVE",
"988 1109 CURVE SMOOTH",
"867 1178 OFFCURVE",
"731 1209 OFFCURVE",
"578 1209 CURVE SMOOTH"
);
}
);
width = 1228;
},
{
layerId = "222D0B97-E2BD-4249-A584-FAB7D66A0D71";
name = Bold;
paths = (
{
closed = 1;
nodes = (
"322 1209 OFFCURVE",
"149 1063 OFFCURVE",
"149 828 CURVE SMOOTH",
"149 677 OFFCURVE",
"215 598 OFFCURVE",
"307 553 CURVE SMOOTH",
"444 486 OFFCURVE",
"636 495 OFFCURVE",
"743 451 CURVE SMOOTH",
"792 431 OFFCURVE",
"822 401 OFFCURVE",
"822 347 CURVE SMOOTH",
"822 264 OFFCURVE",
"750 215 OFFCURVE",
"611 215 CURVE SMOOTH",
"502 215 OFFCURVE",
"369 238 OFFCURVE",
"270 285 CURVE SMOOTH",
"230 304 OFFCURVE",
"189 288 OFFCURVE",
"162 208 CURVE SMOOTH",
"135 127 OFFCURVE",
"151 86 OFFCURVE",
"194 65 CURVE SMOOTH",
"309 9 OFFCURVE",
"480 -22 OFFCURVE",
"621 -22 CURVE SMOOTH",
"920 -22 OFFCURVE",
"1087 126 OFFCURVE",
"1087 362 CURVE SMOOTH",
"1087 525 OFFCURVE",
"1020 613 OFFCURVE",
"929 663 CURVE SMOOTH",
"787 740 OFFCURVE",
"586 726 OFFCURVE",
"481 763 CURVE SMOOTH",
"438 778 OFFCURVE",
"412 802 OFFCURVE",
"412 843 CURVE SMOOTH",
"412 922 OFFCURVE",
"476 972 OFFCURVE",
"594 972 CURVE SMOOTH",
"703 972 OFFCURVE",
"832 948 OFFCURVE",
"935 910 CURVE SMOOTH",
"976 895 OFFCURVE",
"1015 913 OFFCURVE",
"1037 995 CURVE SMOOTH",
"1059 1078 OFFCURVE",
"1039 1117 OFFCURVE",
"994 1135 CURVE SMOOTH",
"875 1182 OFFCURVE",
"735 1209 OFFCURVE",
"594 1209 CURVE SMOOTH"
);
}
);
width = 1228;
}
);
unicode = 0053;
},
{
glyphname = T;
lastChange = "2014-02-03 05:19:10 +0000";
layers = (
{
layerId = UUID0;
name = Regular;
paths = (
{
closed = 1;
nodes = (
"539 1121 LINE",
"539 55 LINE SMOOTH",
"539 9 OFFCURVE",
"557 -10 OFFCURVE",
"613 -10 CURVE SMOOTH",
"615 -10 LINE SMOOTH",
"671 -10 OFFCURVE",
"689 9 OFFCURVE",
"689 55 CURVE SMOOTH",
"689 1121 LINE"
);
},
{
closed = 1;
nodes = (
"185 1187 LINE SMOOTH",
"140 1187 OFFCURVE",
"122 1167 OFFCURVE",
"122 1115 CURVE SMOOTH",
"122 1063 OFFCURVE",
"140 1043 OFFCURVE",
"185 1043 CURVE SMOOTH",
"1043 1043 LINE",
"1088 1043 OFFCURVE",
"1106 1063 OFFCURVE",
"1106 1115 CURVE SMOOTH",
"1106 1167 OFFCURVE",
"1088 1187 OFFCURVE",
"1043 1187 CURVE SMOOTH"
);
}
);
width = 1228;
},
{
layerId = "222D0B97-E2BD-4249-A584-FAB7D66A0D71";
name = Bold;
paths = (
{
closed = 1;
nodes = (
"489 1067 LINE",
"489 63 LINE SMOOTH",
"489 18 OFFCURVE",
"507 0 OFFCURVE",
"552 0 CURVE SMOOTH",
"676 0 LINE SMOOTH",
"721 0 OFFCURVE",
"739 18 OFFCURVE",
"739 63 CURVE SMOOTH",
"739 1067 LINE"
);
},
{
closed = 1;
nodes = (
"163 1187 LINE SMOOTH",
"118 1187 OFFCURVE",
"100 1164 OFFCURVE",
"100 1069 CURVE SMOOTH",
"100 974 OFFCURVE",
"118 952 OFFCURVE",
"163 952 CURVE SMOOTH",
"1065 952 LINE",
"1110 952 OFFCURVE",
"1128 974 OFFCURVE",
"1128 1069 CURVE SMOOTH",
"1128 1164 OFFCURVE",
"1110 1187 OFFCURVE",
"1065 1187 CURVE SMOOTH"
);
}
);
width = 1228;
}
);
unicode = 0054;
},
{
color = 6;
glyphname = Tbar;
lastChange = "2014-11-22 20:43:46 +0000";
layers = (
{
components = (
{
name = T;
transform = "{1, 0, 0, 1, 0, 0}";
}
);
layerId = UUID0;
name = Regular;
paths = (
{
closed = 1;
nodes = (
"333 590 LINE SMOOTH",
"288 590 OFFCURVE",
"270 570 OFFCURVE",
"270 518 CURVE SMOOTH",
"270 466 OFFCURVE",
"288 446 OFFCURVE",
"333 446 CURVE SMOOTH",
"895 446 LINE SMOOTH",
"940 446 OFFCURVE",
"958 466 OFFCURVE",
"958 518 CURVE SMOOTH",
"958 570 OFFCURVE",
"940 590 OFFCURVE",
"895 590 CURVE SMOOTH"
);
}
);
width = 1228;
},
{
components = (
{
name = T;
transform = "{1, 0, 0, 1, 0, 0}";
}
);
layerId = "222D0B97-E2BD-4249-A584-FAB7D66A0D71";
name = Bold;
paths = (
{
closed = 1;
nodes = (
"283 575 LINE SMOOTH",
"238 575 OFFCURVE",
"220 557 OFFCURVE",
"220 462 CURVE SMOOTH",
"220 367 OFFCURVE",
"238 350 OFFCURVE",
"283 350 CURVE SMOOTH",
"945 350 LINE SMOOTH",
"990 350 OFFCURVE",
"1008 367 OFFCURVE",
"1008 462 CURVE SMOOTH",
"1008 557 OFFCURVE",
"990 575 OFFCURVE",
"945 575 CURVE SMOOTH"
);
}
);
width = 1228;
}
);
unicode = 0166;
},
{
glyphname = U;
lastChange = "2014-01-31 04:01:22 +0000";
layers = (
{
layerId = UUID0;
name = Regular;
paths = (
{
closed = 1;
nodes = (
"977 1197 LINE SMOOTH",
"921 1197 OFFCURVE",
"903 1178 OFFCURVE",
"903 1132 CURVE SMOOTH",
"903 433 LINE SMOOTH",
"903 225 OFFCURVE",
"796 126 OFFCURVE",
"614 126 CURVE SMOOTH",
"432 126 OFFCURVE",
"325 225 OFFCURVE",
"325 433 CURVE SMOOTH",
"325 1132 LINE SMOOTH",
"325 1178 OFFCURVE",
"307 1197 OFFCURVE",
"251 1197 CURVE SMOOTH",
"249 1197 LINE SMOOTH",
"193 1197 OFFCURVE",
"175 1178 OFFCURVE",
"175 1132 CURVE SMOOTH",
"175 413 LINE SMOOTH",
"175 128 OFFCURVE",
"354 -22 OFFCURVE",
"614 -22 CURVE SMOOTH",
"874 -22 OFFCURVE",
"1053 128 OFFCURVE",
"1053 413 CURVE SMOOTH",
"1053 1132 LINE SMOOTH",
"1053 1178 OFFCURVE",
"1035 1197 OFFCURVE",
"979 1197 CURVE SMOOTH"
);
}
);
width = 1228;
},
{
layerId = "222D0B97-E2BD-4249-A584-FAB7D66A0D71";
name = Bold;
paths = (
{
closed = 1;
nodes = (
"901 1187 LINE SMOOTH",
"856 1187 OFFCURVE",
"838 1169 OFFCURVE",
"838 1124 CURVE SMOOTH",
"838 453 LINE SMOOTH",
"838 288 OFFCURVE",
"743 215 OFFCURVE",
"614 215 CURVE SMOOTH",
"485 215 OFFCURVE",
"390 288 OFFCURVE",
"390 453 CURVE SMOOTH",
"390 1124 LINE SMOOTH",
"390 1169 OFFCURVE",
"372 1187 OFFCURVE",
"327 1187 CURVE SMOOTH",
"203 1187 LINE SMOOTH",
"158 1187 OFFCURVE",
"140 1169 OFFCURVE",
"140 1124 CURVE SMOOTH",
"140 433 LINE SMOOTH",
"140 143 OFFCURVE",
"324 -22 OFFCURVE",
"614 -22 CURVE SMOOTH",
"904 -22 OFFCURVE",
"1088 143 OFFCURVE",
"1088 433 CURVE SMOOTH",
"1088 1124 LINE SMOOTH",
"1088 1169 OFFCURVE",
"1070 1187 OFFCURVE",
"1025 1187 CURVE SMOOTH"
);
}
);
width = 1228;
}
);
unicode = 0055;
},
{
color = 3;
glyphname = Uogonek;
lastChange = "2014-11-22 20:43:49 +0000";
layers = (
{
components = (
{
name = U;
transform = "{1, 0, 0, 1, 0, 0}";
},
{
name = ogonek;
transform = "{1, 0, 0, 1, 80, 0}";
}
);
layerId = UUID0;
name = Regular;
width = 1228;
},
{
background = {
paths = (
{
closed = 1;
nodes = (
"1088 1124 LINE SMOOTH",
"1088 1169 OFFCURVE",
"1070 1187 OFFCURVE",
"1025 1187 CURVE SMOOTH",
"901 1187 LINE SMOOTH",
"856 1187 OFFCURVE",
"838 1169 OFFCURVE",
"838 1124 CURVE SMOOTH",
"838 453 LINE SMOOTH",
"838 288 OFFCURVE",
"743 215 OFFCURVE",
"614 215 CURVE SMOOTH",
"485 215 OFFCURVE",
"390 288 OFFCURVE",
"390 453 CURVE SMOOTH",
"390 1124 LINE SMOOTH",
"390 1169 OFFCURVE",
"372 1187 OFFCURVE",
"327 1187 CURVE SMOOTH",
"203 1187 LINE SMOOTH",
"158 1187 OFFCURVE",
"140 1169 OFFCURVE",
"140 1124 CURVE SMOOTH",
"140 433 LINE SMOOTH",
"140 156 OFFCURVE",
"307 -6 OFFCURVE",
"574 -21 CURVE",
"484 -88 OFFCURVE",
"419 -165 OFFCURVE",
"419 -269 CURVE SMOOTH",
"419 -402 OFFCURVE",
"509 -472 OFFCURVE",
"665 -472 CURVE SMOOTH",
"738 -472 OFFCURVE",
"814 -459 OFFCURVE",
"881 -438 CURVE SMOOTH",
"909 -429 OFFCURVE",
"922 -399 OFFCURVE",
"918 -353 CURVE SMOOTH",
"914 -307 OFFCURVE",
"896 -281 OFFCURVE",
"870 -285 CURVE SMOOTH",
"827 -292 OFFCURVE",
"789 -298 OFFCURVE",
"750 -298 CURVE SMOOTH",
"693 -298 OFFCURVE",
"662 -278 OFFCURVE",
"662 -231 CURVE SMOOTH",
"662 -157 OFFCURVE",
"735 -69 OFFCURVE",
"850 24 CURVE",
"1000 92 OFFCURVE",
"1088 232 OFFCURVE",
"1088 433 CURVE SMOOTH"
);
}
);
};
components = (
{
name = U;
transform = "{1, 0, 0, 1, 0, 0}";
},
{
name = ogonek;
transform = "{1, 0, 0, 1, 70, 0}";
}
);
layerId = "222D0B97-E2BD-4249-A584-FAB7D66A0D71";
name = Bold;
width = 1228;
}
);
unicode = 0172;
},
{
glyphname = V;
lastChange = "2014-02-03 05:30:52 +0000";
layers = (
{
layerId = UUID0;
name = Regular;
paths = (
{
closed = 1;
nodes = (
"1014 1207 OFFCURVE",
"989 1195 OFFCURVE",
"973 1151 CURVE SMOOTH",
"612 182 LINE",
"251 1151 LINE SMOOTH",
"235 1195 OFFCURVE",
"210 1207 OFFCURVE",
"157 1189 CURVE SMOOTH",
"103 1171 OFFCURVE",
"89 1147 OFFCURVE",
"106 1103 CURVE SMOOTH",
"505 43 LINE SMOOTH",
"523 -4 OFFCURVE",
"555 -22 OFFCURVE",
"612 -22 CURVE SMOOTH",
"669 -22 OFFCURVE",
"701 -4 OFFCURVE",
"719 43 CURVE SMOOTH",
"1118 1103 LINE SMOOTH",
"1135 1147 OFFCURVE",
"1121 1171 OFFCURVE",
"1067 1189 CURVE SMOOTH"
);
}
);
width = 1228;
},
{
layerId = "222D0B97-E2BD-4249-A584-FAB7D66A0D71";
name = Bold;
paths = (
{
closed = 1;
nodes = (
"958 1211 OFFCURVE",
"917 1204 OFFCURVE",
"900 1160 CURVE SMOOTH",
"612 394 LINE",
"334 1160 LINE SMOOTH",
"318 1204 OFFCURVE",
"275 1211 OFFCURVE",
"182 1189 CURVE SMOOTH",
"88 1167 OFFCURVE",
"66 1135 OFFCURVE",
"83 1090 CURVE SMOOTH",
"477 43 LINE SMOOTH",
"494 -3 OFFCURVE",
"525 -22 OFFCURVE",
"608 -22 CURVE SMOOTH",
"691 -22 OFFCURVE",
"723 -4 OFFCURVE",
"741 43 CURVE SMOOTH",
"1148 1090 LINE SMOOTH",
"1166 1135 OFFCURVE",
"1145 1167 OFFCURVE",
"1051 1189 CURVE SMOOTH"
);
}
);
width = 1228;
}
);
unicode = 0056;
},
{
glyphname = W;
lastChange = "2014-01-31 04:00:46 +0000";
layers = (
{
layerId = UUID0;
name = Regular;
paths = (
{
closed = 1;
nodes = (
"1029 1202 OFFCURVE",
"1009 1186 OFFCURVE",
"1003 1139 CURVE SMOOTH",
"891 258 LINE",
"684 845 LINE SMOOTH",
"675 871 OFFCURVE",
"654 885 OFFCURVE",
"610 885 CURVE SMOOTH",
"566 885 OFFCURVE",
"545 871 OFFCURVE",
"536 845 CURVE SMOOTH",
"329 258 LINE",
"217 1139 LINE SMOOTH",
"211 1186 OFFCURVE",
"191 1202 OFFCURVE",
"135 1196 CURVE SMOOTH",
"79 1189 OFFCURVE",
"61 1169 OFFCURVE",
"68 1122 CURVE SMOOTH",
"217 43 LINE SMOOTH",
"224 -6 OFFCURVE",
"252 -22 OFFCURVE",
"303 -22 CURVE SMOOTH",
"354 -22 OFFCURVE",
"387 -2 OFFCURVE",
"403 43 CURVE SMOOTH",
"610 629 LINE",
"817 43 LINE SMOOTH",
"833 -2 OFFCURVE",
"866 -22 OFFCURVE",
"917 -22 CURVE SMOOTH",
"968 -22 OFFCURVE",
"996 -6 OFFCURVE",
"1003 43 CURVE SMOOTH",
"1152 1122 LINE SMOOTH",
"1159 1169 OFFCURVE",
"1141 1189 OFFCURVE",
"1085 1196 CURVE SMOOTH"
);
}
);
width = 1228;
},
{
layerId = "222D0B97-E2BD-4249-A584-FAB7D66A0D71";
name = Bold;
paths = (
{
closed = 1;
nodes = (
"970 1197 OFFCURVE",
"936 1181 OFFCURVE",
"932 1138 CURVE SMOOTH",
"864 466 LINE",
"713 831 LINE SMOOTH",
"702 856 OFFCURVE",
"685 875 OFFCURVE",
"616 875 CURVE SMOOTH",
"547 875 OFFCURVE",
"530 856 OFFCURVE",
"519 831 CURVE SMOOTH",
"368 466 LINE",
"301 1138 LINE SMOOTH",
"297 1181 OFFCURVE",
"257 1197 OFFCURVE",
"167 1197 CURVE SMOOTH",
"78 1197 OFFCURVE",
"50 1173 OFFCURVE",
"55 1129 CURVE SMOOTH",
"172 55 LINE SMOOTH",
"177 6 OFFCURVE",
"200 -10 OFFCURVE",
"295 -10 CURVE SMOOTH",
"390 -10 OFFCURVE",
"418 11 OFFCURVE",
"436 55 CURVE SMOOTH",
"612 477 LINE",
"788 55 LINE SMOOTH",
"806 11 OFFCURVE",
"834 -10 OFFCURVE",
"929 -10 CURVE SMOOTH",
"1024 -10 OFFCURVE",
"1047 6 OFFCURVE",
"1052 55 CURVE SMOOTH",
"1169 1129 LINE SMOOTH",
"1174 1173 OFFCURVE",
"1149 1197 OFFCURVE",
"1060 1197 CURVE SMOOTH"
);
}
);
width = 1228;
}
);
unicode = 0057;
},
{
glyphname = X;
lastChange = "2014-02-03 05:45:35 +0000";
layers = (
{
layerId = UUID0;
name = Regular;
paths = (
{
closed = 1;
nodes = (
"972 1210 OFFCURVE",
"943 1211 OFFCURVE",
"916 1172 CURVE SMOOTH",
"576 657 LINE",
"539 623 LINE",
"164 89 LINE SMOOTH",
"137 49 OFFCURVE",
"148 21 OFFCURVE",
"194 0 CURVE SMOOTH",
"245 -23 OFFCURVE",
"274 -25 OFFCURVE",
"301 15 CURVE SMOOTH",
"638 516 LINE",
"677 552 LINE",
"1053 1098 LINE SMOOTH",
"1081 1138 OFFCURVE",
"1069 1166 OFFCURVE",
"1023 1187 CURVE SMOOTH"
);
},
{
closed = 1;
nodes = (
"171 1166 OFFCURVE",
"159 1138 OFFCURVE",
"187 1098 CURVE SMOOTH",
"552 567 LINE",
"584 537 LINE",
"939 15 LINE SMOOTH",
"965 -25 OFFCURVE",
"995 -23 OFFCURVE",
"1046 0 CURVE SMOOTH",
"1092 21 OFFCURVE",
"1104 50 OFFCURVE",
"1076 89 CURVE SMOOTH",
"696 628 LINE",
"667 655 LINE",
"324 1172 LINE SMOOTH",
"297 1211 OFFCURVE",
"268 1210 OFFCURVE",
"217 1187 CURVE SMOOTH"
);
}
);
width = 1228;
},
{
layerId = "222D0B97-E2BD-4249-A584-FAB7D66A0D71";
name = Bold;
paths = (
{
closed = 1;
nodes = (
"930 1209 OFFCURVE",
"890 1209 OFFCURVE",
"864 1169 CURVE SMOOTH",
"568.954 720.967 LINE",
"546 751 LINE",
"124 128 LINE SMOOTH",
"97 88 OFFCURVE",
"111 51 OFFCURVE",
"200 14 CURVE SMOOTH",
"289 -22 OFFCURVE",
"329 -22 OFFCURVE",
"355 18 CURVE SMOOTH",
"646.717 460.978 LINE",
"669 441 LINE",
"1091 1059 LINE SMOOTH",
"1118 1099 OFFCURVE",
"1108 1136 OFFCURVE",
"1019 1173 CURVE SMOOTH"
);
},
{
closed = 1;
nodes = (
"122 1136 OFFCURVE",
"110 1099 OFFCURVE",
"137 1059 CURVE SMOOTH",
"559 436 LINE",
"570.297 466.054 LINE",
"869 18 LINE SMOOTH",
"896 -22 OFFCURVE",
"937 -22 OFFCURVE",
"1026 14 CURVE SMOOTH",
"1115 51 OFFCURVE",
"1131 88 OFFCURVE",
"1104 128 CURVE SMOOTH",
"677 758 LINE",
"662.894 721.197 LINE",
"368 1169 LINE SMOOTH",
"342 1209 OFFCURVE",
"300 1209 OFFCURVE",
"211 1173 CURVE SMOOTH"
);
}
);
width = 1228;
}
);
unicode = 0058;
},
{
glyphname = Y;
lastChange = "2014-11-16 00:07:56 +0000";
layers = (
{
layerId = UUID0;
name = Regular;
paths = (
{
closed = 1;
nodes = (
"539 552 LINE",
"539 55 LINE SMOOTH",
"539 9 OFFCURVE",
"557 -10 OFFCURVE",
"613 -10 CURVE SMOOTH",
"615 -10 LINE SMOOTH",
"671 -10 OFFCURVE",
"689 9 OFFCURVE",
"689 55 CURVE SMOOTH",
"689 552 LINE"
);
},
{
closed = 1;
nodes = (
"1005 1210 OFFCURVE",
"977 1205 OFFCURVE",
"955 1172 CURVE SMOOTH",
"563 567 LINE",
"671 460 LINE",
"1088 1096 LINE SMOOTH",
"1114 1136 OFFCURVE",
"1107 1163 OFFCURVE",
"1055 1187 CURVE SMOOTH"
);
},
{
closed = 1;
nodes = (
"121 1163 OFFCURVE",
"114 1136 OFFCURVE",
"140 1096 CURVE SMOOTH",
"548 473 LINE",
"670 560 LINE",
"273 1172 LINE SMOOTH",
"252 1205 OFFCURVE",
"223 1210 OFFCURVE",
"173 1187 CURVE SMOOTH"
);
}
);
width = 1228;
},
{
layerId = "222D0B97-E2BD-4249-A584-FAB7D66A0D71";
name = Bold;
paths = (
{
closed = 1;
nodes = (
"489 564 LINE",
"489 63 LINE SMOOTH",
"489 18 OFFCURVE",
"507 0 OFFCURVE",
"552 0 CURVE SMOOTH",
"676 0 LINE SMOOTH",
"721 0 OFFCURVE",
"739 18 OFFCURVE",
"739 63 CURVE SMOOTH",
"739 564 LINE"
);
},
{
closed = 1;
nodes = (
"957 1209 OFFCURVE",
"921 1210 OFFCURVE",
"896 1169 CURVE SMOOTH",
"555 607 LINE",
"701 391 LINE",
"1118 1059 LINE SMOOTH",
"1143 1100 OFFCURVE",
"1135 1136 OFFCURVE",
"1046 1173 CURVE SMOOTH"
);
},
{
closed = 1;
nodes = (
"95 1136 OFFCURVE",
"85 1100 OFFCURVE",
"110 1059 CURVE SMOOTH",
"527 391 LINE",
"679 604 LINE",
"336 1169 LINE SMOOTH",
"311 1210 OFFCURVE",
"273 1209 OFFCURVE",
"184 1173 CURVE SMOOTH"
);
}
);
width = 1228;
}
);
unicode = 0059;
},
{
glyphname = Z;
lastChange = "2014-01-31 04:02:39 +0000";
layers = (
{
layerId = UUID0;
name = Regular;
paths = (
{
closed = 1;
nodes = (
"827 1187 LINE",
"827 1051 LINE",
"181 111 LINE SMOOTH",
"173 99 OFFCURVE",
"167 86 OFFCURVE",
"167 68 CURVE SMOOTH",
"167 18 OFFCURVE",
"185 0 OFFCURVE",
"230 0 CURVE SMOOTH",
"383 0 LINE",
"382 136 LINE",
"1031 1080 LINE SMOOTH",
"1038 1090 OFFCURVE",
"1041 1103 OFFCURVE",
"1041 1119 CURVE SMOOTH",
"1041 1169 OFFCURVE",
"1023 1187 OFFCURVE",
"978 1187 CURVE SMOOTH"
);
},
{
closed = 1;
nodes = (
"310 144 LINE",
"310 0 LINE",
"996 0 LINE SMOOTH",
"1041 0 OFFCURVE",
"1059 20 OFFCURVE",
"1059 72 CURVE SMOOTH",
"1059 124 OFFCURVE",
"1041 144 OFFCURVE",
"996 144 CURVE SMOOTH"
);
},
{
closed = 1;
nodes = (
"256 1187 LINE SMOOTH",
"211 1187 OFFCURVE",
"193 1167 OFFCURVE",
"193 1115 CURVE SMOOTH",
"193 1063 OFFCURVE",
"211 1043 OFFCURVE",
"256 1043 CURVE SMOOTH",
"891 1043 LINE",
"891 1187 LINE"
);
}
);
width = 1228;
},
{
layerId = "222D0B97-E2BD-4249-A584-FAB7D66A0D71";
name = Bold;
paths = (
{
closed = 1;
nodes = (
"722 1187 LINE",
"722 972 LINE",
"158 195 LINE SMOOTH",
"144 176 OFFCURVE",
"138 147 OFFCURVE",
"138 102 CURVE SMOOTH",
"138 17 OFFCURVE",
"156 0 OFFCURVE",
"201 0 CURVE SMOOTH",
"484 0 LINE",
"483 215 LINE",
"1047 992 LINE SMOOTH",
"1062 1012 OFFCURVE",
"1070 1041 OFFCURVE",
"1070 1084 CURVE SMOOTH",
"1070 1169 OFFCURVE",
"1052 1187 OFFCURVE",
"1007 1187 CURVE SMOOTH"
);
},
{
closed = 1;
nodes = (
"363 235 LINE",
"363 0 LINE",
"1027 0 LINE SMOOTH",
"1072 0 OFFCURVE",
"1090 22 OFFCURVE",
"1090 117 CURVE SMOOTH",
"1090 212 OFFCURVE",
"1072 235 OFFCURVE",
"1027 235 CURVE SMOOTH"
);
},
{
closed = 1;
nodes = (
"221 1187 LINE SMOOTH",
"176 1187 OFFCURVE",
"158 1164 OFFCURVE",
"158 1069 CURVE SMOOTH",
"158 974 OFFCURVE",
"176 952 OFFCURVE",
"221 952 CURVE SMOOTH",
"845 952 LINE",
"845 1187 LINE"
);
}
);
width = 1228;
}
);
unicode = 005A;
},
{
glyphname = a;
lastChange = "2015-01-15 21:20:01 +0000";
layers = (
{
background = {
paths = (
{
closed = 1;
nodes = (
"523 946 OFFCURVE",
"373 912 OFFCURVE",
"268 834 CURVE SMOOTH",
"237 811 OFFCURVE",
"229 778 OFFCURVE",
"258 737 CURVE SMOOTH",
"287 696 OFFCURVE",
"320 691 OFFCURVE",
"351 713 CURVE",
"434 772 OFFCURVE",
"551 801 OFFCURVE",
"658 801 CURVE SMOOTH",
"807 801 OFFCURVE",
"864 741 OFFCURVE",
"864 613 CURVE",
"864 268 LINE",
"874 139 LINE",
"874 55 LINE SMOOTH",
"874 9 OFFCURVE",
"890 -10 OFFCURVE",
"943 -10 CURVE SMOOTH",
"945 -10 LINE SMOOTH",
"998 -10 OFFCURVE",
"1014 9 OFFCURVE",
"1014 55 CURVE",
"1014 613 LINE SMOOTH",
"1014 832 OFFCURVE",
"895 946 OFFCURVE",
"658 946 CURVE SMOOTH"
);
},
{
closed = 1;
nodes = (
"341 579 OFFCURVE",
"159 494 OFFCURVE",
"159 270 CURVE SMOOTH",
"159 84 OFFCURVE",
"299 -22 OFFCURVE",
"499 -22 CURVE SMOOTH",
"649 -22 OFFCURVE",
"780 38 OFFCURVE",
"886 134 CURVE",
"875 296 LINE",
"775 188 OFFCURVE",
"653 119 OFFCURVE",
"505 119 CURVE SMOOTH",
"384 119 OFFCURVE",
"313 176 OFFCURVE",
"313 273 CURVE SMOOTH",
"313 394 OFFCURVE",
"417 438 OFFCURVE",
"561 438 CURVE SMOOTH",
"669 438 OFFCURVE",
"783 421 OFFCURVE",
"878 388 CURVE",
"879 523 LINE",
"781 559 OFFCURVE",
"674 579 OFFCURVE",
"560 579 CURVE SMOOTH"
);
}
);
};
layerId = UUID0;
name = Regular;
paths = (
{
closed = 1;
nodes = (
"509 946 OFFCURVE",
"376 914 OFFCURVE",
"264 855 CURVE SMOOTH",
"230 837 OFFCURVE",
"216 807 OFFCURVE",
"238 761 CURVE SMOOTH",
"260 715 OFFCURVE",
"287 703 OFFCURVE",
"324 722 CURVE SMOOTH",
"420 771 OFFCURVE",
"533 801 OFFCURVE",
"634 801 CURVE SMOOTH",
"797 801 OFFCURVE",
"864 741 OFFCURVE",
"864 613 CURVE SMOOTH",
"864 268 LINE",
"874 139 LINE",
"874 55 LINE SMOOTH",
"874 9 OFFCURVE",
"890 -10 OFFCURVE",
"943 -10 CURVE SMOOTH",
"945 -10 LINE SMOOTH",
"998 -10 OFFCURVE",
"1014 9 OFFCURVE",
"1014 55 CURVE",
"1014 613 LINE SMOOTH",
"1014 832 OFFCURVE",
"889 946 OFFCURVE",
"638 946 CURVE SMOOTH"
);
},
{
closed = 1;
nodes = (
"341 579 OFFCURVE",
"159 494 OFFCURVE",
"159 270 CURVE SMOOTH",
"159 84 OFFCURVE",
"299 -22 OFFCURVE",
"499 -22 CURVE SMOOTH",
"649 -22 OFFCURVE",
"780 38 OFFCURVE",
"886 134 CURVE",
"875 296 LINE",
"775 188 OFFCURVE",
"653 119 OFFCURVE",
"505 119 CURVE SMOOTH",
"384 119 OFFCURVE",
"313 176 OFFCURVE",
"313 273 CURVE SMOOTH",
"313 394 OFFCURVE",
"417 438 OFFCURVE",
"561 438 CURVE SMOOTH",
"669 438 OFFCURVE",
"783 421 OFFCURVE",
"878 388 CURVE",
"879 523 LINE",
"781 559 OFFCURVE",
"674 579 OFFCURVE",
"560 579 CURVE SMOOTH"
);
}
);
width = 1228;
},
{
layerId = "222D0B97-E2BD-4249-A584-FAB7D66A0D71";
name = Bold;
paths = (
{
closed = 1;
nodes = (
"518 946 OFFCURVE",
"375 927 OFFCURVE",
"250 882 CURVE SMOOTH",
"203 865 OFFCURVE",
"190 822 OFFCURVE",
"219 742 CURVE SMOOTH",
"248 662 OFFCURVE",
"286 652 OFFCURVE",
"328 666 CURVE SMOOTH",
"419 697 OFFCURVE",
"522 719 OFFCURVE",
"603 719 CURVE SMOOTH",
"749 719 OFFCURVE",
"793 674 OFFCURVE",
"793 588 CURVE SMOOTH",
"793 276 LINE",
"823 112 LINE",
"823 63 LINE SMOOTH",
"823 18 OFFCURVE",
"841 0 OFFCURVE",
"886 0 CURVE SMOOTH",
"980 0 LINE SMOOTH",
"1025 0 OFFCURVE",
"1043 18 OFFCURVE",
"1043 63 CURVE SMOOTH",
"1043 579 LINE SMOOTH",
"1043 804 OFFCURVE",
"932 946 OFFCURVE",
"627 946 CURVE SMOOTH"
);
},
{
closed = 1;
nodes = (
"277 589 OFFCURVE",
"140 482 OFFCURVE",
"140 295 CURVE SMOOTH",
"140 100 OFFCURVE",
"272 -22 OFFCURVE",
"498 -22 CURVE SMOOTH",
"625 -22 OFFCURVE",
"744 27 OFFCURVE",
"846 106 CURVE",
"805 302 LINE",
"728 236 OFFCURVE",
"630 189 OFFCURVE",
"530 189 CURVE SMOOTH",
"441 189 OFFCURVE",
"392 222 OFFCURVE",
"392 285 CURVE SMOOTH",
"392 348 OFFCURVE",
"441 383 OFFCURVE",
"535 383 CURVE SMOOTH",
"621 383 OFFCURVE",
"710 374 OFFCURVE",
"810 352 CURVE",
"810 556 LINE",
"704 578 OFFCURVE",
"604 589 OFFCURVE",
"510 589 CURVE SMOOTH"
);
}
);
width = 1228;
}
);
unicode = 0061;
},
{
color = 3;
glyphname = aogonek;
lastChange = "2015-02-04 14:15:36 +0000";
layers = (
{
background = {
components = (
{
name = a;
transform = "{1, 0, 0, 1, 0, 0}";
},
{
name = ogonek;
transform = "{1, 0, 0, 1, 260, 0}";
}
);
};
layerId = UUID0;
name = Regular;
paths = (
{
closed = 1;
nodes = (
"509 946 OFFCURVE",
"376 914 OFFCURVE",
"264 855 CURVE SMOOTH",
"230 837 OFFCURVE",
"216 807 OFFCURVE",
"238 761 CURVE SMOOTH",
"260 715 OFFCURVE",
"287 703 OFFCURVE",
"324 722 CURVE SMOOTH",
"420 771 OFFCURVE",
"533 801 OFFCURVE",
"634 801 CURVE SMOOTH",
"797 801 OFFCURVE",
"864 741 OFFCURVE",
"864 613 CURVE SMOOTH",
"864 528.359 LINE",
"770.114 560.979 OFFCURVE",
"668.211 579 OFFCURVE",
"560 579 CURVE SMOOTH",
"341 579 OFFCURVE",
"159 494 OFFCURVE",
"159 270 CURVE SMOOTH",
"159 84 OFFCURVE",
"299 -22 OFFCURVE",
"499 -22 CURVE SMOOTH",
"643.389 -22 OFFCURVE",
"770.173 33.5957 OFFCURVE",
"874 123.38 CURVE",
"874 39.0257 LINE",
"752.748 -57.8915 OFFCURVE",
"671 -163.607 OFFCURVE",
"671 -281 CURVE SMOOTH",
"671 -397 OFFCURVE",
"747 -472 OFFCURVE",
"871 -472 CURVE SMOOTH",
"933 -472 OFFCURVE",
"989 -462 OFFCURVE",
"1035 -446 CURVE SMOOTH",
"1064 -436 OFFCURVE",
"1074 -414 OFFCURVE",
"1067 -368 CURVE SMOOTH",
"1060 -324 OFFCURVE",
"1043 -309 OFFCURVE",
"1017 -316 CURVE SMOOTH",
"981 -326 OFFCURVE",
"943 -333 OFFCURVE",
"904 -333 CURVE SMOOTH",
"858 -333 OFFCURVE",
"827 -307 OFFCURVE",
"827 -260 CURVE SMOOTH",
"827 -188 OFFCURVE",
"874 -109 OFFCURVE",
"997 3 CURVE SMOOTH",
"1009 14 OFFCURVE",
"1014 30.3085 OFFCURVE",
"1014 55 CURVE SMOOTH",
"1014 613 LINE SMOOTH",
"1014 832 OFFCURVE",
"889 946 OFFCURVE",
"638 946 CURVE SMOOTH"
);
},
{
closed = 1;
nodes = (
"663.745 438 OFFCURVE",
"771.92 422.614 OFFCURVE",
"864 392.703 CURVE",
"864 284.371 LINE",
"766.09 183.072 OFFCURVE",
"647.617 119 OFFCURVE",
"505 119 CURVE SMOOTH",
"384 119 OFFCURVE",
"313 176 OFFCURVE",
"313 273 CURVE SMOOTH",
"313 394 OFFCURVE",
"417 438 OFFCURVE",
"561 438 CURVE SMOOTH"
);
}
);
width = 1228;
},
{
background = {
components = (
{
name = a;
transform = "{1, 0, 0, 1, 0, 0}";
},
{
name = ogonek;
transform = "{1, 0, 0, 1, 262, 0}";
}
);
};
layerId = "222D0B97-E2BD-4249-A584-FAB7D66A0D71";
name = Bold;
paths = (
{
closed = 1;
nodes = (
"518 946 OFFCURVE",
"375 927 OFFCURVE",
"250 882 CURVE SMOOTH",
"203 865 OFFCURVE",
"190 822 OFFCURVE",
"219 742 CURVE SMOOTH",
"248 662 OFFCURVE",
"286 652 OFFCURVE",
"328 666 CURVE SMOOTH",
"419 697 OFFCURVE",
"522 719 OFFCURVE",
"603 719 CURVE SMOOTH",
"749 719 OFFCURVE",
"793 674 OFFCURVE",
"793 588 CURVE SMOOTH",
"793 559.444 LINE",
"693.293 579.148 OFFCURVE",
"598.96 589 OFFCURVE",
"510 589 CURVE SMOOTH",
"277 589 OFFCURVE",
"140 482 OFFCURVE",
"140 295 CURVE SMOOTH",
"140 100 OFFCURVE",
"272 -21.9999 OFFCURVE",
"498 -21.9999 CURVE SMOOTH",
"615.569 -21.9999 OFFCURVE",
"726.283 19.9932 OFFCURVE",
"823 88.9054 CURVE",
"823 17.2685 LINE",
"704.019 -59.0117 OFFCURVE",
"611 -144.855 OFFCURVE",
"611 -269 CURVE SMOOTH",
"611 -402 OFFCURVE",
"701 -472 OFFCURVE",
"857 -472 CURVE SMOOTH",
"930 -472 OFFCURVE",
"1007 -460 OFFCURVE",
"1073 -438 CURVE SMOOTH",
"1103 -428 OFFCURVE",
"1116 -402 OFFCURVE",
"1112 -343 CURVE SMOOTH",
"1108 -280 OFFCURVE",
"1089 -260 OFFCURVE",
"1062 -265 CURVE SMOOTH",
"1022 -272 OFFCURVE",
"981 -278 OFFCURVE",
"942 -278 CURVE SMOOTH",
"885 -278 OFFCURVE",
"854 -256 OFFCURVE",
"854 -211 CURVE SMOOTH",
"854 -151 OFFCURVE",
"909 -78 OFFCURVE",
"1025 11 CURVE SMOOTH",
"1038 21 OFFCURVE",
"1043 37.6672 OFFCURVE",
"1043 63 CURVE SMOOTH",
"1043 579 LINE SMOOTH",
"1043 804 OFFCURVE",
"932 946 OFFCURVE",
"627 946 CURVE SMOOTH"
);
},
{
closed = 1;
nodes = (
"616.096 383 OFFCURVE",
"699.86 374.997 OFFCURVE",
"793 355.637 CURVE",
"793 292.007 LINE",
"717.951 231.307 OFFCURVE",
"624.876 189 OFFCURVE",
"530 189 CURVE SMOOTH",
"441 189 OFFCURVE",
"392 222 OFFCURVE",
"392 285 CURVE SMOOTH",
"392 348 OFFCURVE",
"441 383 OFFCURVE",
"535 383 CURVE SMOOTH"
);
}
);
width = 1228;
}
);
unicode = 0105;
},
{
glyphname = ae;
lastChange = "2014-02-04 01:05:59 +0000";
layers = (
{
layerId = UUID0;
name = Regular;
paths = (
{
closed = 1;
nodes = (
"759 946 OFFCURVE",
"682 907 OFFCURVE",
"629 830 CURVE",
"586 903 OFFCURVE",
"515 946 OFFCURVE",
"408 946 CURVE SMOOTH",
"314 946 OFFCURVE",
"224 913 OFFCURVE",
"139 840 CURVE SMOOTH",
"109 814 OFFCURVE",
"108 775 OFFCURVE",
"137 742 CURVE SMOOTH",
"166 710 OFFCURVE",
"202 710 OFFCURVE",
"231 732 CURVE SMOOTH",
"292 779 OFFCURVE",
"347 801 OFFCURVE",
"408 801 CURVE SMOOTH",
"514 801 OFFCURVE",
"539 726 OFFCURVE",
"539 602 CURVE SMOOTH",
"539 580 LINE",
"261 580 OFFCURVE",
"75 468 OFFCURVE",
"75 240 CURVE SMOOTH",
"75 79 OFFCURVE",
"178 -22 OFFCURVE",
"335 -22 CURVE SMOOTH",
"443 -22 OFFCURVE",
"545 33 OFFCURVE",
"609 122 CURVE",
"664 24 OFFCURVE",
"748 -22 OFFCURVE",
"853 -22 CURVE SMOOTH",
"948 -22 OFFCURVE",
"1038 14 OFFCURVE",
"1112 84 CURVE SMOOTH",
"1144 114 OFFCURVE",
"1149 149 OFFCURVE",
"1118 187 CURVE SMOOTH",
"1087 225 OFFCURVE",
"1048 226 OFFCURVE",
"1023 201 CURVE SMOOTH",
"967 147 OFFCURVE",
"917 123 OFFCURVE",
"853 123 CURVE SMOOTH",
"764 123 OFFCURVE",
"693 199 OFFCURVE",
"689 440 CURVE",
"1088 440 LINE SMOOTH",
"1133 440 OFFCURVE",
"1152 457 OFFCURVE",
"1151 502 CURVE SMOOTH",
"1144 769 OFFCURVE",
"1065 946 OFFCURVE",
"853 946 CURVE SMOOTH"
);
},
{
closed = 1;
nodes = (
"539 340 LINE SMOOTH",
"539 211 OFFCURVE",
"452 119 OFFCURVE",
"339 119 CURVE SMOOTH",
"272 119 OFFCURVE",
"228 163 OFFCURVE",
"228 240 CURVE SMOOTH",
"228 371 OFFCURVE",
"322 440 OFFCURVE",
"539 440 CURVE"
);
},
{
closed = 1;
nodes = (
"946 801 OFFCURVE",
"985 717 OFFCURVE",
"994 580 CURVE",
"694 580 LINE",
"710 739 OFFCURVE",
"763 801 OFFCURVE",
"855 801 CURVE SMOOTH"
);
}
);
width = 1228;
},
{
layerId = "222D0B97-E2BD-4249-A584-FAB7D66A0D71";
name = Bold;
paths = (
{
closed = 1;
nodes = (
"761 946 OFFCURVE",
"687 912 OFFCURVE",
"634 852 CURVE",
"583 911 OFFCURVE",
"506 946 OFFCURVE",
"393 946 CURVE SMOOTH",
"288 946 OFFCURVE",
"183 919 OFFCURVE",
"96 868 CURVE SMOOTH",
"53 843 OFFCURVE",
"50 799 OFFCURVE",
"78 738 CURVE SMOOTH",
"111 666 OFFCURVE",
"148 646 OFFCURVE",
"189 667 CURVE SMOOTH",
"246 696 OFFCURVE",
"303 719 OFFCURVE",
"365 719 CURVE SMOOTH",
"463 719 OFFCURVE",
"509 672 OFFCURVE",
"509 588 CURVE SMOOTH",
"509 582 LINE",
"198 603 OFFCURVE",
"32 497 OFFCURVE",
"32 275 CURVE SMOOTH",
"32 89 OFFCURVE",
"154 -22 OFFCURVE",
"335 -22 CURVE SMOOTH",
"448 -22 OFFCURVE",
"539 18 OFFCURVE",
"603 102 CURVE",
"655 24 OFFCURVE",
"733 -22 OFFCURVE",
"843 -22 CURVE SMOOTH",
"950 -22 OFFCURVE",
"1055 10 OFFCURVE",
"1145 49 CURVE SMOOTH",
"1193 70 OFFCURVE",
"1201 108 OFFCURVE",
"1176 179 CURVE SMOOTH",
"1155 241 OFFCURVE",
"1127 277 OFFCURVE",
"1076 255 CURVE SMOOTH",
"994 220 OFFCURVE",
"933 205 OFFCURVE",
"858 205 CURVE SMOOTH",
"782 205 OFFCURVE",
"738 262 OFFCURVE",
"724 370 CURVE",
"1130 370 LINE SMOOTH",
"1175 370 OFFCURVE",
"1193 387 OFFCURVE",
"1193 432 CURVE SMOOTH",
"1193 729 OFFCURVE",
"1129 946 OFFCURVE",
"858 946 CURVE SMOOTH"
);
},
{
closed = 1;
nodes = (
"509 358 LINE SMOOTH",
"509 261 OFFCURVE",
"453 189 OFFCURVE",
"358 189 CURVE SMOOTH",
"292 189 OFFCURVE",
"260 226 OFFCURVE",
"260 285 CURVE SMOOTH",
"260 369 OFFCURVE",
"321 405 OFFCURVE",
"509 390 CURVE"
);
},
{
closed = 1;
nodes = (
"926 719 OFFCURVE",
"962 661 OFFCURVE",
"968 565 CURVE",
"724 565 LINE",
"738 669 OFFCURVE",
"777 719 OFFCURVE",
"858 719 CURVE SMOOTH"
);
}
);
width = 1228;
}
);
unicode = 00E6;
},
{
glyphname = b;
lastChange = "2015-01-07 12:23:28 +0000";
layers = (
{
layerId = UUID0;
name = Regular;
paths = (
{
closed = 1;
nodes = (
"266 1322 LINE SMOOTH",
"210 1322 OFFCURVE",
"192 1303 OFFCURVE",
"192 1257 CURVE SMOOTH",
"192 55 LINE SMOOTH",
"192 9 OFFCURVE",
"208 -10 OFFCURVE",
"261 -10 CURVE SMOOTH",
"263 -10 LINE SMOOTH",
"316 -10 OFFCURVE",
"332 9 OFFCURVE",
"332 55 CURVE SMOOTH",
"332 148 LINE",
"414 41 OFFCURVE",
"526 -22 OFFCURVE",
"659 -22 CURVE SMOOTH",
"906 -22 OFFCURVE",
"1089 160 OFFCURVE",
"1089 462 CURVE SMOOTH",
"1089 764 OFFCURVE",
"906 946 OFFCURVE",
"659 946 CURVE SMOOTH",
"526 946 OFFCURVE",
"422 883 OFFCURVE",
"342 781 CURVE",
"342 1257 LINE SMOOTH",
"342 1303 OFFCURVE",
"324 1322 OFFCURVE",
"268 1322 CURVE SMOOTH"
);
},
{
closed = 1;
nodes = (
"830 798 OFFCURVE",
"935 658 OFFCURVE",
"935 462 CURVE SMOOTH",
"935 266 OFFCURVE",
"830 126 OFFCURVE",
"649 126 CURVE SMOOTH",
"472 126 OFFCURVE",
"342 250 OFFCURVE",
"342 462 CURVE SMOOTH",
"342 674 OFFCURVE",
"472 798 OFFCURVE",
"649 798 CURVE SMOOTH"
);
}
);
width = 1228;
},
{
layerId = "222D0B97-E2BD-4249-A584-FAB7D66A0D71";
name = Bold;
paths = (
{
closed = 1;
nodes = (
"230 1312 LINE SMOOTH",
"185 1312 OFFCURVE",
"167 1294 OFFCURVE",
"167 1249 CURVE SMOOTH",
"167 63 LINE SMOOTH",
"167 18 OFFCURVE",
"185 0 OFFCURVE",
"230 0 CURVE SMOOTH",
"324 0 LINE SMOOTH",
"369 0 OFFCURVE",
"387 18 OFFCURVE",
"387 63 CURVE SMOOTH",
"387 137 LINE",
"453 38 OFFCURVE",
"556 -22 OFFCURVE",
"680 -22 CURVE SMOOTH",
"949 -22 OFFCURVE",
"1105 192 OFFCURVE",
"1105 462 CURVE SMOOTH",
"1105 732 OFFCURVE",
"949 946 OFFCURVE",
"680 946 CURVE SMOOTH",
"574 946 OFFCURVE",
"484 902 OFFCURVE",
"417 828 CURVE",
"417 1249 LINE",
"417 1294 OFFCURVE",
"399 1312 OFFCURVE",
"354 1312 CURVE SMOOTH"
);
},
{
closed = 1;
nodes = (
"765 714 OFFCURVE",
"843 616 OFFCURVE",
"843 462 CURVE SMOOTH",
"843 308 OFFCURVE",
"765 210 OFFCURVE",
"640 210 CURVE SMOOTH",
"515 210 OFFCURVE",
"410 298 OFFCURVE",
"410 462 CURVE SMOOTH",
"410 626 OFFCURVE",
"515 714 OFFCURVE",
"640 714 CURVE SMOOTH"
);
}
);
width = 1228;
}
);
unicode = 0062;
},
{
glyphname = c;
lastChange = "2014-01-30 20:50:25 +0000";
layers = (
{
layerId = UUID0;
name = Regular;
paths = (
{
closed = 1;
nodes = (
"337 946 OFFCURVE",
"147 739 OFFCURVE",
"147 462 CURVE SMOOTH",
"147 185 OFFCURVE",
"337 -22 OFFCURVE",
"629 -22 CURVE SMOOTH",
"781 -22 OFFCURVE",
"933 27 OFFCURVE",
"1041 106 CURVE SMOOTH",
"1076 131 OFFCURVE",
"1084 167 OFFCURVE",
"1056 214 CURVE SMOOTH",
"1027 263 OFFCURVE",
"992 258 OFFCURVE",
"965 237 CURVE SMOOTH",
"870 164 OFFCURVE",
"751 126 OFFCURVE",
"629 126 CURVE SMOOTH",
"434 126 OFFCURVE",
"305 267 OFFCURVE",
"305 462 CURVE SMOOTH",
"305 657 OFFCURVE",
"434 798 OFFCURVE",
"629 798 CURVE SMOOTH",
"741 798 OFFCURVE",
"849 769 OFFCURVE",
"948 701 CURVE SMOOTH",
"976 681 OFFCURVE",
"1011 678 OFFCURVE",
"1037 729 CURVE SMOOTH",
"1063 777 OFFCURVE",
"1053 813 OFFCURVE",
"1017 836 CURVE SMOOTH",
"905 909 OFFCURVE",
"771 946 OFFCURVE",
"629 946 CURVE SMOOTH"
);
}
);
width = 1228;
},
{
layerId = "222D0B97-E2BD-4249-A584-FAB7D66A0D71";
name = Bold;
paths = (
{
closed = 1;
nodes = (
"345 946 OFFCURVE",
"137 742 OFFCURVE",
"137 462 CURVE SMOOTH",
"137 182 OFFCURVE",
"345 -22 OFFCURVE",
"654 -22 CURVE SMOOTH",
"793 -22 OFFCURVE",
"926 24 OFFCURVE",
"1045 88 CURVE SMOOTH",
"1087 111 OFFCURVE",
"1103 151 OFFCURVE",
"1070 230 CURVE SMOOTH",
"1037 308 OFFCURVE",
"997 321 OFFCURVE",
"958 299 CURVE SMOOTH",
"860 244 OFFCURVE",
"756 210 OFFCURVE",
"654 210 CURVE SMOOTH",
"506 210 OFFCURVE",
"401 306 OFFCURVE",
"401 462 CURVE SMOOTH",
"401 618 OFFCURVE",
"506 714 OFFCURVE",
"654 714 CURVE SMOOTH",
"750 714 OFFCURVE",
"846 685 OFFCURVE",
"941 636 CURVE SMOOTH",
"981 615 OFFCURVE",
"1021 629 OFFCURVE",
"1051 708 CURVE SMOOTH",
"1082 788 OFFCURVE",
"1064 828 OFFCURVE",
"1022 849 CURVE SMOOTH",
"906 908 OFFCURVE",
"773 946 OFFCURVE",
"654 946 CURVE SMOOTH"
);
}
);
width = 1228;
}
);
unicode = 0063;
},
{
glyphname = d;
lastChange = "2015-01-07 12:23:40 +0000";
layers = (
{
layerId = UUID0;
name = Regular;
paths = (
{
closed = 1;
nodes = (
"960 1322 LINE SMOOTH",
"904 1322 OFFCURVE",
"886 1303 OFFCURVE",
"886 1257 CURVE SMOOTH",
"886 781 LINE",
"806 883 OFFCURVE",
"702 946 OFFCURVE",
"569 946 CURVE SMOOTH",
"322 946 OFFCURVE",
"139 764 OFFCURVE",
"139 462 CURVE SMOOTH",
"139 160 OFFCURVE",
"322 -22 OFFCURVE",
"569 -22 CURVE SMOOTH",
"702 -22 OFFCURVE",
"814 41 OFFCURVE",
"896 148 CURVE",
"896 55 LINE SMOOTH",
"896 9 OFFCURVE",
"912 -10 OFFCURVE",
"965 -10 CURVE SMOOTH",
"967 -10 LINE SMOOTH",
"1020 -10 OFFCURVE",
"1036 9 OFFCURVE",
"1036 55 CURVE SMOOTH",
"1036 1257 LINE SMOOTH",
"1036 1303 OFFCURVE",
"1018 1322 OFFCURVE",
"962 1322 CURVE SMOOTH"
);
},
{
closed = 1;
nodes = (
"756 798 OFFCURVE",
"886 674 OFFCURVE",
"886 462 CURVE SMOOTH",
"886 250 OFFCURVE",
"756 126 OFFCURVE",
"579 126 CURVE SMOOTH",
"398 126 OFFCURVE",
"293 266 OFFCURVE",
"293 462 CURVE SMOOTH",
"293 658 OFFCURVE",
"398 798 OFFCURVE",
"579 798 CURVE SMOOTH"
);
}
);
width = 1228;
},
{
layerId = "222D0B97-E2BD-4249-A584-FAB7D66A0D71";
name = Bold;
paths = (
{
closed = 1;
nodes = (
"874 1312 LINE SMOOTH",
"829 1312 OFFCURVE",
"811 1294 OFFCURVE",
"811 1249 CURVE",
"811 828 LINE",
"744 902 OFFCURVE",
"654 946 OFFCURVE",
"548 946 CURVE SMOOTH",
"279 946 OFFCURVE",
"123 732 OFFCURVE",
"123 462 CURVE SMOOTH",
"123 192 OFFCURVE",
"279 -22 OFFCURVE",
"548 -22 CURVE SMOOTH",
"672 -22 OFFCURVE",
"775 38 OFFCURVE",
"841 137 CURVE",
"841 63 LINE SMOOTH",
"841 18 OFFCURVE",
"859 0 OFFCURVE",
"904 0 CURVE SMOOTH",
"998 0 LINE SMOOTH",
"1043 0 OFFCURVE",
"1061 18 OFFCURVE",
"1061 63 CURVE SMOOTH",
"1061 1249 LINE SMOOTH",
"1061 1294 OFFCURVE",
"1043 1312 OFFCURVE",
"998 1312 CURVE SMOOTH"
);
},
{
closed = 1;
nodes = (
"713 714 OFFCURVE",
"818 626 OFFCURVE",
"818 462 CURVE SMOOTH",
"818 298 OFFCURVE",
"713 210 OFFCURVE",
"588 210 CURVE SMOOTH",
"463 210 OFFCURVE",
"385 308 OFFCURVE",
"385 462 CURVE SMOOTH",
"385 616 OFFCURVE",
"463 714 OFFCURVE",
"588 714 CURVE SMOOTH"
);
}
);
width = 1228;
}
);
unicode = 0064;
},
{
glyphname = eth;
lastChange = "2014-02-08 07:35:29 +0000";
layers = (
{
layerId = UUID0;
name = Regular;
paths = (
{
closed = 1;
nodes = (
"342 886 OFFCURVE",
"140 704 OFFCURVE",
"140 432 CURVE SMOOTH",
"140 160 OFFCURVE",
"342 -22 OFFCURVE",
"614 -22 CURVE SMOOTH",
"886 -22 OFFCURVE",
"1088 160 OFFCURVE",
"1088 432 CURVE",
"902 774 LINE",
"822 836 OFFCURVE",
"726 886 OFFCURVE",
"614 886 CURVE SMOOTH"
);
},
{
closed = 1;
nodes = (
"804 738 OFFCURVE",
"930 617 OFFCURVE",
"930 432 CURVE SMOOTH",
"930 247 OFFCURVE",
"804 126 OFFCURVE",
"614 126 CURVE SMOOTH",
"424 126 OFFCURVE",
"298 247 OFFCURVE",
"298 432 CURVE SMOOTH",
"298 617 OFFCURVE",
"424 738 OFFCURVE",
"614 738 CURVE SMOOTH"
);
},
{
closed = 1;
nodes = (
"413 1343 OFFCURVE",
"383 1331 OFFCURVE",
"360 1287 CURVE SMOOTH",
"337 1243 OFFCURVE",
"342 1215 OFFCURVE",
"383 1195 CURVE SMOOTH",
"703 1038 OFFCURVE",
"953 813 OFFCURVE",
"953 443 CURVE",
"1088 432 LINE",
"1088 884 OFFCURVE",
"806 1149 OFFCURVE",
"453 1323 CURVE SMOOTH"
);
},
{
closed = 1;
nodes = (
"356 1074 LINE SMOOTH",
"314 1058 OFFCURVE",
"303 1034 OFFCURVE",
"321 988 CURVE SMOOTH",
"339 941 OFFCURVE",
"362 930 OFFCURVE",
"404 946 CURVE SMOOTH",
"959 1154 LINE SMOOTH",
"1001 1170 OFFCURVE",
"1012 1194 OFFCURVE",
"994 1240 CURVE SMOOTH",
"976 1287 OFFCURVE",
"953 1298 OFFCURVE",
"911 1282 CURVE SMOOTH"
);
}
);
width = 1228;
},
{
layerId = "222D0B97-E2BD-4249-A584-FAB7D66A0D71";
name = Bold;
paths = (
{
closed = 1;
nodes = (
"305 866 OFFCURVE",
"122 682 OFFCURVE",
"122 422 CURVE SMOOTH",
"122 162 OFFCURVE",
"315 -22 OFFCURVE",
"614 -22 CURVE SMOOTH",
"913 -22 OFFCURVE",
"1106 162 OFFCURVE",
"1106 462 CURVE",
"839 767 LINE",
"768 832 OFFCURVE",
"686 866 OFFCURVE",
"584 866 CURVE SMOOTH"
);
},
{
closed = 1;
nodes = (
"749 639 OFFCURVE",
"838 558 OFFCURVE",
"838 422 CURVE SMOOTH",
"838 286 OFFCURVE",
"749 205 OFFCURVE",
"614 205 CURVE SMOOTH",
"479 205 OFFCURVE",
"390 286 OFFCURVE",
"390 422 CURVE SMOOTH",
"390 558 OFFCURVE",
"479 639 OFFCURVE",
"614 639 CURVE SMOOTH"
);
},
{
closed = 1;
nodes = (
"468 1361 OFFCURVE",
"434 1352 OFFCURVE",
"385 1277 CURVE SMOOTH",
"334 1198 OFFCURVE",
"336 1158 OFFCURVE",
"378 1137 CURVE SMOOTH",
"609 1023 OFFCURVE",
"862 834 OFFCURVE",
"886 480 CURVE",
"1106 462 LINE",
"1106 834 OFFCURVE",
"904 1142 OFFCURVE",
"510 1340 CURVE SMOOTH"
);
},
{
closed = 1;
nodes = (
"380 1067 LINE SMOOTH",
"340 1046 OFFCURVE",
"333 1021 OFFCURVE",
"368 955 CURVE SMOOTH",
"403 889 OFFCURVE",
"427 882 OFFCURVE",
"467 903 CURVE SMOOTH",
"928 1148 LINE SMOOTH",
"967 1169 OFFCURVE",
"975 1193 OFFCURVE",
"940 1259 CURVE SMOOTH",
"905 1325 OFFCURVE",
"881 1333 OFFCURVE",
"841 1312 CURVE SMOOTH"
);
}
);
width = 1228;
}
);
unicode = 00F0;
},
{
glyphname = dcaron;
lastChange = "2015-01-07 12:29:47 +0000";
layers = (
{
background = {
paths = (
{
closed = 1;
nodes = (
"960 1322 LINE SMOOTH",
"904 1322 OFFCURVE",
"886 1303 OFFCURVE",
"886 1257 CURVE SMOOTH",
"886 781 LINE",
"806 883 OFFCURVE",
"702 946 OFFCURVE",
"569 946 CURVE SMOOTH",
"322 946 OFFCURVE",
"139 764 OFFCURVE",
"139 462 CURVE SMOOTH",
"139 160 OFFCURVE",
"322 -22 OFFCURVE",
"569 -22 CURVE SMOOTH",
"702 -22 OFFCURVE",
"814 41 OFFCURVE",
"896 148 CURVE",
"896 55 LINE SMOOTH",
"896 9 OFFCURVE",
"912 -10 OFFCURVE",
"965 -10 CURVE SMOOTH",
"967 -10 LINE SMOOTH",
"1020 -10 OFFCURVE",
"1036 9 OFFCURVE",
"1036 55 CURVE SMOOTH",
"1036 1257 LINE SMOOTH",
"1036 1303 OFFCURVE",
"1018 1322 OFFCURVE",
"962 1322 CURVE SMOOTH"
);
},
{
closed = 1;
nodes = (
"756 798 OFFCURVE",
"886 674 OFFCURVE",
"886 462 CURVE SMOOTH",
"886 250 OFFCURVE",
"756 126 OFFCURVE",
"579 126 CURVE SMOOTH",
"398 126 OFFCURVE",
"293 266 OFFCURVE",
"293 462 CURVE SMOOTH",
"293 658 OFFCURVE",
"398 798 OFFCURVE",
"579 798 CURVE SMOOTH"
);
}
);
};
components = (
{
name = caron.alt;
transform = "{1, 0, 0, 1, 800, 0}";
}
);
layerId = UUID0;
name = Regular;
paths = (
{
closed = 1;
nodes = (
"858 1322 LINE SMOOTH",
"802 1322 OFFCURVE",
"784 1303 OFFCURVE",
"784 1257 CURVE SMOOTH",
"784 791 LINE",
"716 888 OFFCURVE",
"640 946 OFFCURVE",
"517 946 CURVE SMOOTH",
"290 946 OFFCURVE",
"137 764 OFFCURVE",
"137 462 CURVE SMOOTH",
"137 160 OFFCURVE",
"290 -22 OFFCURVE",
"517 -22 CURVE SMOOTH",
"640 -22 OFFCURVE",
"723 35 OFFCURVE",
"794 138 CURVE",
"794 55 LINE SMOOTH",
"794 9 OFFCURVE",
"810 -10 OFFCURVE",
"863 -10 CURVE SMOOTH",
"865 -10 LINE SMOOTH",
"918 -10 OFFCURVE",
"934 9 OFFCURVE",
"934 55 CURVE SMOOTH",
"934 1257 LINE SMOOTH",
"934 1303 OFFCURVE",
"916 1322 OFFCURVE",
"860 1322 CURVE SMOOTH"
);
},
{
closed = 1;
nodes = (
"684 798 OFFCURVE",
"784 674 OFFCURVE",
"784 462 CURVE SMOOTH",
"784 250 OFFCURVE",
"684 126 OFFCURVE",
"527 126 CURVE SMOOTH",
"366 126 OFFCURVE",
"291 266 OFFCURVE",
"291 462 CURVE SMOOTH",
"291 658 OFFCURVE",
"366 798 OFFCURVE",
"527 798 CURVE SMOOTH"
);
}
);
width = 1228;
},
{
background = {
paths = (
{
closed = 1;
nodes = (
"874 1312 LINE SMOOTH",
"829 1312 OFFCURVE",
"811 1294 OFFCURVE",
"811 1249 CURVE",
"811 828 LINE",
"744 902 OFFCURVE",
"654 946 OFFCURVE",
"548 946 CURVE SMOOTH",
"279 946 OFFCURVE",
"123 732 OFFCURVE",
"123 462 CURVE SMOOTH",
"123 192 OFFCURVE",
"279 -22 OFFCURVE",
"548 -22 CURVE SMOOTH",
"676 -22 OFFCURVE",
"783 42 OFFCURVE",
"851 147 CURVE",
"851 63 LINE SMOOTH",
"851 18 OFFCURVE",
"869 0 OFFCURVE",
"914 0 CURVE SMOOTH",
"998 0 LINE SMOOTH",
"1043 0 OFFCURVE",
"1061 18 OFFCURVE",
"1061 63 CURVE SMOOTH",
"1061 1249 LINE SMOOTH",
"1061 1294 OFFCURVE",
"1043 1312 OFFCURVE",
"998 1312 CURVE SMOOTH"
);
},
{
closed = 1;
nodes = (
"713 714 OFFCURVE",
"818 626 OFFCURVE",
"818 462 CURVE SMOOTH",
"818 298 OFFCURVE",
"713 210 OFFCURVE",
"588 210 CURVE SMOOTH",
"463 210 OFFCURVE",
"385 308 OFFCURVE",
"385 462 CURVE SMOOTH",
"385 616 OFFCURVE",
"463 714 OFFCURVE",
"588 714 CURVE SMOOTH"
);
},
{
closed = 1;
nodes = (
"734 1312 LINE SMOOTH",
"689 1312 OFFCURVE",
"671 1294 OFFCURVE",
"671 1249 CURVE SMOOTH",
"671 838 LINE",
"617 906 OFFCURVE",
"541 946 OFFCURVE",
"453 946 CURVE SMOOTH",
"211 946 OFFCURVE",
"73 732 OFFCURVE",
"73 462 CURVE SMOOTH",
"73 192 OFFCURVE",
"211 -22 OFFCURVE",
"453 -22 CURVE SMOOTH",
"563 -22 OFFCURVE",
"652 34 OFFCURVE",
"711 127 CURVE",
"711 63 LINE SMOOTH",
"711 18 OFFCURVE",
"729 0 OFFCURVE",
"774 0 CURVE SMOOTH",
"858 0 LINE SMOOTH",
"903 0 OFFCURVE",
"921 18 OFFCURVE",
"921 63 CURVE SMOOTH",
"921 1249 LINE SMOOTH",
"921 1294 OFFCURVE",
"903 1312 OFFCURVE",
"858 1312 CURVE SMOOTH"
);
}
);
};
components = (
{
name = caron.alt;
transform = "{1, 0, 0, 1, 813, 0}";
}
);
layerId = "222D0B97-E2BD-4249-A584-FAB7D66A0D71";
name = Bold;
paths = (
{
closed = 1;
nodes = (
"734 1312 LINE SMOOTH",
"689 1312 OFFCURVE",
"671 1294 OFFCURVE",
"671 1249 CURVE SMOOTH",
"671 838 LINE",
"617 906 OFFCURVE",
"541 946 OFFCURVE",
"453 946 CURVE SMOOTH",
"211 946 OFFCURVE",
"73 732 OFFCURVE",
"73 462 CURVE SMOOTH",
"73 192 OFFCURVE",
"211 -22 OFFCURVE",
"453 -22 CURVE SMOOTH",
"559 -22 OFFCURVE",
"644 30 OFFCURVE",
"701 117 CURVE",
"701 63 LINE SMOOTH",
"701 18 OFFCURVE",
"719 0 OFFCURVE",
"764 0 CURVE SMOOTH",
"858 0 LINE SMOOTH",
"903 0 OFFCURVE",
"921 18 OFFCURVE",
"921 63 CURVE SMOOTH",
"921 1249 LINE SMOOTH",
"921 1294 OFFCURVE",
"903 1312 OFFCURVE",
"858 1312 CURVE SMOOTH"
);
},
{
closed = 1;
nodes = (
"594 714 OFFCURVE",
"678 626 OFFCURVE",
"678 462 CURVE SMOOTH",
"678 298 OFFCURVE",
"594 210 OFFCURVE",
"493 210 CURVE SMOOTH",
"395 210 OFFCURVE",
"335 308 OFFCURVE",
"335 462 CURVE SMOOTH",
"335 616 OFFCURVE",
"395 714 OFFCURVE",
"493 714 CURVE SMOOTH"
);
}
);
width = 1228;
}
);
unicode = 010F;
},
{
color = 6;
glyphname = dcroat;
lastChange = "2015-01-07 12:30:03 +0000";
layers = (
{
background = {
paths = (
{
closed = 1;
nodes = (
"960 1322 LINE SMOOTH",
"904 1322 OFFCURVE",
"886 1303 OFFCURVE",
"886 1257 CURVE SMOOTH",
"886 781 LINE",
"806 883 OFFCURVE",
"702 946 OFFCURVE",
"569 946 CURVE SMOOTH",
"322 946 OFFCURVE",
"139 764 OFFCURVE",
"139 462 CURVE SMOOTH",
"139 160 OFFCURVE",
"322 -22 OFFCURVE",
"569 -22 CURVE SMOOTH",
"702 -22 OFFCURVE",
"814 41 OFFCURVE",
"896 148 CURVE",
"896 55 LINE SMOOTH",
"896 9 OFFCURVE",
"912 -10 OFFCURVE",
"965 -10 CURVE SMOOTH",
"967 -10 LINE SMOOTH",
"1020 -10 OFFCURVE",
"1036 9 OFFCURVE",
"1036 55 CURVE SMOOTH",
"1036 1257 LINE SMOOTH",
"1036 1303 OFFCURVE",
"1018 1322 OFFCURVE",
"962 1322 CURVE SMOOTH"
);
},
{
closed = 1;
nodes = (
"756 798 OFFCURVE",
"886 674 OFFCURVE",
"886 462 CURVE SMOOTH",
"886 250 OFFCURVE",
"756 126 OFFCURVE",
"579 126 CURVE SMOOTH",
"398 126 OFFCURVE",
"293 266 OFFCURVE",
"293 462 CURVE SMOOTH",
"293 658 OFFCURVE",
"398 798 OFFCURVE",
"579 798 CURVE SMOOTH"
);
}
);
};
layerId = UUID0;
name = Regular;
paths = (
{
closed = 1;
nodes = (
"940 1322 LINE SMOOTH",
"884 1322 OFFCURVE",
"866 1303 OFFCURVE",
"866 1257 CURVE SMOOTH",
"866 674 LINE",
"894 702 LINE",
"815 815 OFFCURVE",
"710 886 OFFCURVE",
"569 886 CURVE SMOOTH",
"334 886 OFFCURVE",
"159 716 OFFCURVE",
"159 432 CURVE SMOOTH",
"159 148 OFFCURVE",
"334 -22 OFFCURVE",
"569 -22 CURVE SMOOTH",
"710 -22 OFFCURVE",
"824 53 OFFCURVE",
"904 178 CURVE",
"876 205 LINE",
"876 55 LINE SMOOTH",
"876 9 OFFCURVE",
"892 -10 OFFCURVE",
"945 -10 CURVE SMOOTH",
"947 -10 LINE SMOOTH",
"1000 -10 OFFCURVE",
"1016 9 OFFCURVE",
"1016 55 CURVE SMOOTH",
"1016 1257 LINE SMOOTH",
"1016 1303 OFFCURVE",
"998 1322 OFFCURVE",
"942 1322 CURVE SMOOTH"
);
},
{
closed = 1;
nodes = (
"744 738 OFFCURVE",
"866 626 OFFCURVE",
"866 432 CURVE SMOOTH",
"866 238 OFFCURVE",
"744 126 OFFCURVE",
"579 126 CURVE SMOOTH",
"410 126 OFFCURVE",
"313 254 OFFCURVE",
"313 432 CURVE SMOOTH",
"313 610 OFFCURVE",
"410 738 OFFCURVE",
"579 738 CURVE SMOOTH"
);
},
{
closed = 1;
nodes = (
"613 1150 LINE SMOOTH",
"568 1150 OFFCURVE",
"550 1130 OFFCURVE",
"550 1078 CURVE SMOOTH",
"550 1026 OFFCURVE",
"568 1006 OFFCURVE",
"613 1006 CURVE SMOOTH",
"1155 1006 LINE SMOOTH",
"1200 1006 OFFCURVE",
"1218 1026 OFFCURVE",
"1218 1078 CURVE SMOOTH",
"1218 1130 OFFCURVE",
"1200 1150 OFFCURVE",
"1155 1150 CURVE SMOOTH"
);
}
);
width = 1228;
},
{
background = {
paths = (
{
closed = 1;
nodes = (
"874 1312 LINE SMOOTH",
"829 1312 OFFCURVE",
"811 1294 OFFCURVE",
"811 1249 CURVE",
"811 828 LINE",
"744 902 OFFCURVE",
"654 946 OFFCURVE",
"548 946 CURVE SMOOTH",
"279 946 OFFCURVE",
"123 732 OFFCURVE",
"123 462 CURVE SMOOTH",
"123 192 OFFCURVE",
"279 -22 OFFCURVE",
"548 -22 CURVE SMOOTH",
"676 -22 OFFCURVE",
"783 42 OFFCURVE",
"851 147 CURVE",
"851 63 LINE SMOOTH",
"851 18 OFFCURVE",
"869 0 OFFCURVE",
"914 0 CURVE SMOOTH",
"998 0 LINE SMOOTH",
"1043 0 OFFCURVE",
"1061 18 OFFCURVE",
"1061 63 CURVE SMOOTH",
"1061 1249 LINE SMOOTH",
"1061 1294 OFFCURVE",
"1043 1312 OFFCURVE",
"998 1312 CURVE SMOOTH"
);
},
{
closed = 1;
nodes = (
"713 714 OFFCURVE",
"818 626 OFFCURVE",
"818 462 CURVE SMOOTH",
"818 298 OFFCURVE",
"713 210 OFFCURVE",
"588 210 CURVE SMOOTH",
"463 210 OFFCURVE",
"385 308 OFFCURVE",
"385 462 CURVE SMOOTH",
"385 616 OFFCURVE",
"463 714 OFFCURVE",
"588 714 CURVE SMOOTH"
);
},
{
closed = 1;
nodes = (
"563 1187 LINE",
"518 1187 OFFCURVE",
"500 1169 OFFCURVE",
"500 1084 CURVE SMOOTH",
"500 999 OFFCURVE",
"518 982 OFFCURVE",
"563 982 CURVE SMOOTH",
"1125 982 LINE SMOOTH",
"1170 982 OFFCURVE",
"1188 999 OFFCURVE",
"1188 1084 CURVE SMOOTH",
"1188 1169 OFFCURVE",
"1170 1187 OFFCURVE",
"1125 1187 CURVE SMOOTH"
);
}
);
};
layerId = "222D0B97-E2BD-4249-A584-FAB7D66A0D71";
name = Bold;
paths = (
{
closed = 1;
nodes = (
"854 1312 LINE SMOOTH",
"809 1312 OFFCURVE",
"791 1294 OFFCURVE",
"791 1249 CURVE SMOOTH",
"791 616 LINE",
"837 676 LINE",
"782 781 OFFCURVE",
"673 846 OFFCURVE",
"548 846 CURVE SMOOTH",
"291 846 OFFCURVE",
"143 649 OFFCURVE",
"143 412 CURVE SMOOTH",
"143 172 OFFCURVE",
"291 -22 OFFCURVE",
"548 -22 CURVE SMOOTH",
"693 -22 OFFCURVE",
"820 63 OFFCURVE",
"868 197 CURVE",
"821 259 LINE",
"821 63 LINE SMOOTH",
"821 18 OFFCURVE",
"839 0 OFFCURVE",
"884 0 CURVE SMOOTH",
"978 0 LINE SMOOTH",
"1023 0 OFFCURVE",
"1041 18 OFFCURVE",
"1041 63 CURVE SMOOTH",
"1041 1249 LINE SMOOTH",
"1041 1294 OFFCURVE",
"1023 1312 OFFCURVE",
"978 1312 CURVE SMOOTH"
);
},
{
closed = 1;
nodes = (
"703 614 OFFCURVE",
"798 545 OFFCURVE",
"798 412 CURVE SMOOTH",
"798 281 OFFCURVE",
"703 210 OFFCURVE",
"588 210 CURVE SMOOTH",
"475 210 OFFCURVE",
"405 288 OFFCURVE",
"405 412 CURVE SMOOTH",
"405 536 OFFCURVE",
"475 614 OFFCURVE",
"588 614 CURVE SMOOTH"
);
},
{
closed = 1;
nodes = (
"586 1155 LINE SMOOTH",
"541 1155 OFFCURVE",
"523 1137 OFFCURVE",
"523 1052 CURVE SMOOTH",
"523 967 OFFCURVE",
"541 950 OFFCURVE",
"586 950 CURVE SMOOTH",
"1148 950 LINE SMOOTH",
"1193 950 OFFCURVE",
"1211 967 OFFCURVE",
"1211 1052 CURVE SMOOTH",
"1211 1137 OFFCURVE",
"1193 1155 OFFCURVE",
"1148 1155 CURVE SMOOTH"
);
}
);
width = 1228;
}
);
unicode = 0111;
},
{
glyphname = e;
lastChange = "2015-01-08 14:34:22 +0000";
layers = (
{
layerId = UUID0;
name = Regular;
paths = (
{
closed = 1;
nodes = (
"344 946 OFFCURVE",
"148 753 OFFCURVE",
"148 462 CURVE SMOOTH",
"148 161 OFFCURVE",
"311 -22 OFFCURVE",
"603 -22 CURVE SMOOTH",
"758 -22 OFFCURVE",
"912 15 OFFCURVE",
"1016 65 CURVE SMOOTH",
"1057 85 OFFCURVE",
"1070 116 OFFCURVE",
"1053 162 CURVE SMOOTH",
"1036 209 OFFCURVE",
"1004 231 OFFCURVE",
"963 209 CURVE SMOOTH",
"872 156 OFFCURVE",
"737 123 OFFCURVE",
"603 123 CURVE SMOOTH",
"418 123 OFFCURVE",
"312 225 OFFCURVE",
"302 425 CURVE",
"1026 425 LINE SMOOTH",
"1071 425 OFFCURVE",
"1092 442 OFFCURVE",
"1089 487 CURVE SMOOTH",
"1074 753 OFFCURVE",
"920 946 OFFCURVE",
"623 946 CURVE SMOOTH"
);
},
{
closed = 1;
nodes = (
"799 801 OFFCURVE",
"899 715 OFFCURVE",
"927 565 CURVE",
"312 565 LINE",
"345 712 OFFCURVE",
"457 801 OFFCURVE",
"623 801 CURVE SMOOTH"
);
}
);
width = 1228;
},
{
layerId = "222D0B97-E2BD-4249-A584-FAB7D66A0D71";
name = Bold;
paths = (
{
closed = 1;
nodes = (
"319 946 OFFCURVE",
"134 742 OFFCURVE",
"134 462 CURVE SMOOTH",
"134 182 OFFCURVE",
"299 -22 OFFCURVE",
"598 -22 CURVE SMOOTH",
"741 -22 OFFCURVE",
"893 5 OFFCURVE",
"1026 49 CURVE SMOOTH",
"1074 65 OFFCURVE",
"1087 94 OFFCURVE",
"1065 176 CURVE SMOOTH",
"1043 258 OFFCURVE",
"1017 273 OFFCURVE",
"974 260 CURVE SMOOTH",
"842 220 OFFCURVE",
"726 205 OFFCURVE",
"618 205 CURVE SMOOTH",
"501 205 OFFCURVE",
"421 262 OFFCURVE",
"395 370 CURVE",
"1037 370 LINE SMOOTH",
"1082 370 OFFCURVE",
"1100 387 OFFCURVE",
"1100 432 CURVE SMOOTH",
"1100 729 OFFCURVE",
"940 946 OFFCURVE",
"628 946 CURVE SMOOTH"
);
},
{
closed = 1;
nodes = (
"743 719 OFFCURVE",
"823 661 OFFCURVE",
"845 565 CURVE",
"399 565 LINE",
"428 669 OFFCURVE",
"508 719 OFFCURVE",
"628 719 CURVE SMOOTH"
);
}
);
width = 1228;
}
);
unicode = 0065;
},
{
color = 3;
glyphname = eogonek;
lastChange = "2015-01-21 16:51:17 +0000";
layers = (
{
background = {
components = (
{
name = e;
transform = "{1, 0, 0, 1, 0, 0}";
},
{
name = ogonek;
transform = "{1, 0, 0, 1, 200, 0}";
}
);
};
layerId = UUID0;
name = Regular;
paths = (
{
closed = 1;
nodes = (
"344 946 OFFCURVE",
"148 753 OFFCURVE",
"148 462 CURVE SMOOTH",
"148 161 OFFCURVE",
"311 -22 OFFCURVE",
"603 -22 CURVE SMOOTH",
"654.733 -22 OFFCURVE",
"706.355 -17.878 OFFCURVE",
"756.044 -10.5269 CURVE",
"666.761 -95.3681 OFFCURVE",
"611 -182.909 OFFCURVE",
"611 -281 CURVE SMOOTH",
"611 -397 OFFCURVE",
"687 -472 OFFCURVE",
"811 -472 CURVE SMOOTH",
"873 -472 OFFCURVE",
"929 -462 OFFCURVE",
"975 -446 CURVE SMOOTH",
"1004 -436 OFFCURVE",
"1014 -414 OFFCURVE",
"1007 -368 CURVE SMOOTH",
"1000 -324 OFFCURVE",
"983 -309 OFFCURVE",
"957 -316 CURVE SMOOTH",
"921 -326 OFFCURVE",
"883 -333 OFFCURVE",
"844 -333 CURVE SMOOTH",
"798 -333 OFFCURVE",
"767 -307 OFFCURVE",
"767 -260 CURVE SMOOTH",
"767 -181 OFFCURVE",
"822 -98 OFFCURVE",
"964 27.9999 CURVE SMOOTH",
"985 47 OFFCURVE",
"1003 59 OFFCURVE",
"1016 64.9999 CURVE SMOOTH",
"1057 85 OFFCURVE",
"1070 116 OFFCURVE",
"1053 162 CURVE SMOOTH",
"1036 209 OFFCURVE",
"1004 231 OFFCURVE",
"963 209 CURVE SMOOTH",
"872 156 OFFCURVE",
"737 123 OFFCURVE",
"603 123 CURVE SMOOTH",
"418 123 OFFCURVE",
"312 225 OFFCURVE",
"302 425 CURVE",
"1026 425 LINE SMOOTH",
"1071 425 OFFCURVE",
"1092 442 OFFCURVE",
"1089 487 CURVE SMOOTH",
"1074 753 OFFCURVE",
"920 946 OFFCURVE",
"623 946 CURVE SMOOTH"
);
},
{
closed = 1;
nodes = (
"799 801 OFFCURVE",
"899 715 OFFCURVE",
"927 565 CURVE",
"312 565 LINE",
"345 712 OFFCURVE",
"457 801 OFFCURVE",
"623 801 CURVE SMOOTH"
);
}
);
width = 1228;
},
{
background = {
components = (
{
name = e;
transform = "{1, 0, 0, 1, 0, 0}";
},
{
name = ogonek;
transform = "{1, 0, 0, 1, 204, 0}";
}
);
};
layerId = "222D0B97-E2BD-4249-A584-FAB7D66A0D71";
name = Bold;
paths = (
{
closed = 1;
nodes = (
"319 946 OFFCURVE",
"134 742 OFFCURVE",
"134 462 CURVE SMOOTH",
"134 182 OFFCURVE",
"299 -22 OFFCURVE",
"598 -22 CURVE SMOOTH",
"636.712 -22 OFFCURVE",
"676.083 -20.0211 OFFCURVE",
"715.558 -16.2621 CURVE",
"621.228 -84.4498 OFFCURVE",
"553 -162.678 OFFCURVE",
"553 -269 CURVE SMOOTH",
"553 -402 OFFCURVE",
"643 -472 OFFCURVE",
"799 -472 CURVE SMOOTH",
"872 -472 OFFCURVE",
"949 -460 OFFCURVE",
"1015 -438 CURVE SMOOTH",
"1045 -428 OFFCURVE",
"1058 -402 OFFCURVE",
"1054 -343 CURVE SMOOTH",
"1050 -280 OFFCURVE",
"1031 -260 OFFCURVE",
"1004 -265 CURVE SMOOTH",
"964 -272 OFFCURVE",
"923 -278 OFFCURVE",
"884 -278 CURVE SMOOTH",
"827 -278 OFFCURVE",
"796 -256 OFFCURVE",
"796 -211 CURVE SMOOTH",
"796 -147 OFFCURVE",
"858 -69 OFFCURVE",
"989 28 CURVE SMOOTH",
"1004 39 OFFCURVE",
"1017 46 OFFCURVE",
"1026 49 CURVE SMOOTH",
"1074 65 OFFCURVE",
"1087 94 OFFCURVE",
"1065 176 CURVE SMOOTH",
"1043 258 OFFCURVE",
"1017 273 OFFCURVE",
"974 260 CURVE SMOOTH",
"842 220 OFFCURVE",
"726 205 OFFCURVE",
"618 205 CURVE SMOOTH",
"501 205 OFFCURVE",
"421 262 OFFCURVE",
"395 370 CURVE",
"1037 370 LINE SMOOTH",
"1082 370 OFFCURVE",
"1100 387 OFFCURVE",
"1100 432 CURVE SMOOTH",
"1100 729 OFFCURVE",
"940 946 OFFCURVE",
"628 946 CURVE SMOOTH"
);
},
{
closed = 1;
nodes = (
"743 719 OFFCURVE",
"823 661 OFFCURVE",
"845 565 CURVE",
"399 565 LINE",
"428 669 OFFCURVE",
"508 719 OFFCURVE",
"628 719 CURVE SMOOTH"
);
}
);
width = 1228;
}
);
unicode = 0119;
},
{
glyphname = f;
lastChange = "2014-01-31 04:17:03 +0000";
layers = (
{
layerId = UUID0;
name = Regular;
paths = (
{
closed = 1;
nodes = (
"576 1317 OFFCURVE",
"448 1186 OFFCURVE",
"448 967 CURVE SMOOTH",
"448 55 LINE SMOOTH",
"448 9 OFFCURVE",
"466 -10 OFFCURVE",
"522 -10 CURVE SMOOTH",
"524 -10 LINE SMOOTH",
"580 -10 OFFCURVE",
"598 9 OFFCURVE",
"598 55 CURVE SMOOTH",
"598 954 LINE SMOOTH",
"598 1091 OFFCURVE",
"659 1171 OFFCURVE",
"800 1171 CURVE SMOOTH",
"879 1171 OFFCURVE",
"959 1152 OFFCURVE",
"1037 1122 CURVE SMOOTH",
"1073 1108 OFFCURVE",
"1100 1126 OFFCURVE",
"1111 1173 CURVE SMOOTH",
"1122 1219 OFFCURVE",
"1108 1250 OFFCURVE",
"1066 1266 CURVE SMOOTH",
"986 1297 OFFCURVE",
"894 1317 OFFCURVE",
"800 1317 CURVE SMOOTH"
);
},
{
closed = 1;
nodes = (
"250 844 LINE SMOOTH",
"205 844 OFFCURVE",
"187 824 OFFCURVE",
"187 772 CURVE SMOOTH",
"187 720 OFFCURVE",
"205 700 OFFCURVE",
"250 700 CURVE SMOOTH",
"944 700 LINE SMOOTH",
"989 700 OFFCURVE",
"1007 720 OFFCURVE",
"1007 772 CURVE SMOOTH",
"1007 824 OFFCURVE",
"989 844 OFFCURVE",
"944 844 CURVE SMOOTH"
);
}
);
width = 1228;
},
{
layerId = "222D0B97-E2BD-4249-A584-FAB7D66A0D71";
name = Bold;
paths = (
{
closed = 1;
nodes = (
"538 1317 OFFCURVE",
"413 1186 OFFCURVE",
"413 937 CURVE SMOOTH",
"413 63 LINE SMOOTH",
"413 18 OFFCURVE",
"431 0 OFFCURVE",
"476 0 CURVE SMOOTH",
"600 0 LINE SMOOTH",
"645 0 OFFCURVE",
"663 18 OFFCURVE",
"663 63 CURVE SMOOTH",
"663 924 LINE SMOOTH",
"663 1035 OFFCURVE",
"710 1080 OFFCURVE",
"792 1080 CURVE SMOOTH",
"860 1080 OFFCURVE",
"929 1067 OFFCURVE",
"1014 1041 CURVE SMOOTH",
"1057 1028 OFFCURVE",
"1091 1043 OFFCURVE",
"1113 1124 CURVE SMOOTH",
"1135 1207 OFFCURVE",
"1120 1243 OFFCURVE",
"1074 1260 CURVE SMOOTH",
"967 1300 OFFCURVE",
"864 1317 OFFCURVE",
"770 1317 CURVE SMOOTH"
);
},
{
closed = 1;
nodes = (
"230 864 LINE SMOOTH",
"185 864 OFFCURVE",
"167 841 OFFCURVE",
"167 751 CURVE SMOOTH",
"167 661 OFFCURVE",
"185 639 OFFCURVE",
"230 639 CURVE SMOOTH",
"974 639 LINE SMOOTH",
"1019 639 OFFCURVE",
"1037 661 OFFCURVE",
"1037 751 CURVE SMOOTH",
"1037 841 OFFCURVE",
"1019 864 OFFCURVE",
"974 864 CURVE SMOOTH"
);
}
);
width = 1228;
}
);
unicode = 0066;
},
{
glyphname = g;
lastChange = "2015-01-15 21:20:01 +0000";
layers = (
{
background = {
paths = (
{
closed = 0;
nodes = (
"886 -22 LINE SMOOTH",
"886 -169 OFFCURVE",
"801 -267 OFFCURVE",
"623 -267 CURVE SMOOTH",
"526 -267 OFFCURVE",
"421 -249 OFFCURVE",
"329 -211 CURVE SMOOTH",
"292 -197 OFFCURVE",
"265 -214 OFFCURVE",
"248 -265 CURVE SMOOTH",
"233 -309 OFFCURVE",
"243 -340 OFFCURVE",
"281 -355 CURVE SMOOTH",
"386 -395 OFFCURVE",
"508 -415 OFFCURVE",
"623 -415 CURVE SMOOTH",
"885 -415 OFFCURVE",
"1036 -274 OFFCURVE",
"1036 -35 CURVE SMOOTH"
);
}
);
};
layerId = UUID0;
name = Regular;
paths = (
{
closed = 1;
nodes = (
"322 946 OFFCURVE",
"139 774 OFFCURVE",
"139 487 CURVE SMOOTH",
"139 200 OFFCURVE",
"322 28 OFFCURVE",
"569 28 CURVE SMOOTH",
"702 28 OFFCURVE",
"807 85 OFFCURVE",
"886 184 CURVE",
"886 -17 LINE SMOOTH",
"886 -164 OFFCURVE",
"797 -262 OFFCURVE",
"608 -262 CURVE SMOOTH",
"500 -262 OFFCURVE",
"380 -238 OFFCURVE",
"279 -202 CURVE SMOOTH",
"245 -190 OFFCURVE",
"217 -203 OFFCURVE",
"200 -253 CURVE SMOOTH",
"183 -304 OFFCURVE",
"195 -333 OFFCURVE",
"231 -346 CURVE SMOOTH",
"346 -388 OFFCURVE",
"482 -410 OFFCURVE",
"608 -410 CURVE SMOOTH",
"879 -410 OFFCURVE",
"1036 -269 OFFCURVE",
"1036 -30 CURVE SMOOTH",
"1036 869 LINE SMOOTH",
"1036 915 OFFCURVE",
"1020 934 OFFCURVE",
"967 934 CURVE SMOOTH",
"965 934 LINE SMOOTH",
"912 934 OFFCURVE",
"896 915 OFFCURVE",
"896 869 CURVE SMOOTH",
"896 776 LINE",
"814 883 OFFCURVE",
"702 946 OFFCURVE",
"569 946 CURVE SMOOTH"
);
},
{
closed = 1;
nodes = (
"756 798 OFFCURVE",
"886 684 OFFCURVE",
"886 487 CURVE SMOOTH",
"886 290 OFFCURVE",
"756 176 OFFCURVE",
"579 176 CURVE SMOOTH",
"398 176 OFFCURVE",
"293 306 OFFCURVE",
"293 487 CURVE SMOOTH",
"293 668 OFFCURVE",
"398 798 OFFCURVE",
"579 798 CURVE SMOOTH"
);
}
);
width = 1228;
},
{
layerId = "222D0B97-E2BD-4249-A584-FAB7D66A0D71";
name = Bold;
paths = (
{
closed = 1;
nodes = (
"286 946 OFFCURVE",
"123 747 OFFCURVE",
"123 477 CURVE SMOOTH",
"123 213 OFFCURVE",
"286 18 OFFCURVE",
"548 18 CURVE SMOOTH",
"653 18 OFFCURVE",
"744 56 OFFCURVE",
"811 123 CURVE",
"811 21 LINE SMOOTH",
"811 -113 OFFCURVE",
"747 -183 OFFCURVE",
"582 -183 CURVE SMOOTH",
"494 -183 OFFCURVE",
"382 -157 OFFCURVE",
"275 -124 CURVE SMOOTH",
"232 -111 OFFCURVE",
"199 -128 OFFCURVE",
"174 -209 CURVE SMOOTH",
"149 -291 OFFCURVE",
"161 -333 OFFCURVE",
"209 -348 CURVE SMOOTH",
"335 -388 OFFCURVE",
"480 -410 OFFCURVE",
"592 -410 CURVE SMOOTH",
"910 -410 OFFCURVE",
"1061 -255 OFFCURVE",
"1061 1 CURVE SMOOTH",
"1061 861 LINE SMOOTH",
"1061 906 OFFCURVE",
"1043 924 OFFCURVE",
"998 924 CURVE SMOOTH",
"904 924 LINE SMOOTH",
"859 924 OFFCURVE",
"841 906 OFFCURVE",
"841 861 CURVE SMOOTH",
"841 801 LINE",
"774 894 OFFCURVE",
"672 946 OFFCURVE",
"548 946 CURVE SMOOTH"
);
},
{
closed = 1;
nodes = (
"713 714 OFFCURVE",
"818 637 OFFCURVE",
"818 477 CURVE SMOOTH",
"818 317 OFFCURVE",
"713 240 OFFCURVE",
"588 240 CURVE SMOOTH",
"466 240 OFFCURVE",
"385 323 OFFCURVE",
"385 477 CURVE SMOOTH",
"385 631 OFFCURVE",
"466 714 OFFCURVE",
"588 714 CURVE SMOOTH"
);
}
);
width = 1228;
}
);
unicode = 0067;
},
{
glyphname = h;
lastChange = "2014-01-31 03:35:00 +0000";
layers = (
{
layerId = UUID0;
name = Regular;
paths = (
{
closed = 1;
nodes = (
"276 1322 LINE SMOOTH",
"220 1322 OFFCURVE",
"202 1303 OFFCURVE",
"202 1257 CURVE SMOOTH",
"202 55 LINE SMOOTH",
"202 9 OFFCURVE",
"220 -10 OFFCURVE",
"276 -10 CURVE SMOOTH",
"278 -10 LINE SMOOTH",
"334 -10 OFFCURVE",
"352 9 OFFCURVE",
"352 55 CURVE SMOOTH",
"352 392 LINE SMOOTH",
"352 620 OFFCURVE",
"541 798 OFFCURVE",
"712 798 CURVE SMOOTH",
"841 798 OFFCURVE",
"894 720 OFFCURVE",
"894 605 CURVE SMOOTH",
"894 55 LINE SMOOTH",
"894 9 OFFCURVE",
"912 -10 OFFCURVE",
"968 -10 CURVE SMOOTH",
"970 -10 LINE SMOOTH",
"1026 -10 OFFCURVE",
"1044 9 OFFCURVE",
"1044 55 CURVE SMOOTH",
"1044 620 LINE SMOOTH",
"1044 820 OFFCURVE",
"931 946 OFFCURVE",
"727 946 CURVE SMOOTH",
"592 946 OFFCURVE",
"444 855 OFFCURVE",
"352 720 CURVE",
"352 1257 LINE SMOOTH",
"352 1303 OFFCURVE",
"334 1322 OFFCURVE",
"278 1322 CURVE SMOOTH"
);
}
);
width = 1228;
},
{
layerId = "222D0B97-E2BD-4249-A584-FAB7D66A0D71";
name = Bold;
paths = (
{
closed = 1;
nodes = (
"233 1312 LINE SMOOTH",
"188 1312 OFFCURVE",
"170 1294 OFFCURVE",
"170 1249 CURVE SMOOTH",
"170 63 LINE SMOOTH",
"170 18 OFFCURVE",
"188 0 OFFCURVE",
"233 0 CURVE SMOOTH",
"357 0 LINE SMOOTH",
"402 0 OFFCURVE",
"420 18 OFFCURVE",
"420 63 CURVE SMOOTH",
"420 358 LINE SMOOTH",
"420 546 OFFCURVE",
"556 709 OFFCURVE",
"685 709 CURVE SMOOTH",
"783 709 OFFCURVE",
"822 649 OFFCURVE",
"822 551 CURVE SMOOTH",
"822 63 LINE SMOOTH",
"822 18 OFFCURVE",
"840 0 OFFCURVE",
"885 0 CURVE SMOOTH",
"1009 0 LINE SMOOTH",
"1054 0 OFFCURVE",
"1072 18 OFFCURVE",
"1072 63 CURVE SMOOTH",
"1072 610 LINE SMOOTH",
"1072 810 OFFCURVE",
"949 946 OFFCURVE",
"750 946 CURVE SMOOTH",
"621 946 OFFCURVE",
"508 881 OFFCURVE",
"420 778 CURVE",
"420 1249 LINE SMOOTH",
"420 1294 OFFCURVE",
"402 1312 OFFCURVE",
"357 1312 CURVE SMOOTH"
);
}
);
width = 1228;
}
);
unicode = 0068;
},
{
color = 6;
glyphname = hbar;
lastChange = "2014-11-22 20:44:04 +0000";
layers = (
{
background = {
paths = (
{
closed = 1;
nodes = (
"276 1322 LINE SMOOTH",
"220 1322 OFFCURVE",
"202 1303 OFFCURVE",
"202 1257 CURVE SMOOTH",
"202 55 LINE SMOOTH",
"202 9 OFFCURVE",
"220 -10 OFFCURVE",
"276 -10 CURVE SMOOTH",
"278 -10 LINE SMOOTH",
"334 -10 OFFCURVE",
"352 9 OFFCURVE",
"352 55 CURVE SMOOTH",
"352 392 LINE SMOOTH",
"352 620 OFFCURVE",
"541 798 OFFCURVE",
"712 798 CURVE SMOOTH",
"841 798 OFFCURVE",
"894 720 OFFCURVE",
"894 605 CURVE SMOOTH",
"894 55 LINE SMOOTH",
"894 9 OFFCURVE",
"912 -10 OFFCURVE",
"968 -10 CURVE SMOOTH",
"970 -10 LINE SMOOTH",
"1026 -10 OFFCURVE",
"1044 9 OFFCURVE",
"1044 55 CURVE SMOOTH",
"1044 620 LINE SMOOTH",
"1044 820 OFFCURVE",
"931 946 OFFCURVE",
"727 946 CURVE SMOOTH",
"592 946 OFFCURVE",
"444 855 OFFCURVE",
"352 720 CURVE",
"352 1257 LINE SMOOTH",
"352 1303 OFFCURVE",
"334 1322 OFFCURVE",
"278 1322 CURVE SMOOTH"
);
}
);
};
layerId = UUID0;
name = Regular;
paths = (
{
closed = 1;
nodes = (
"296 1322 LINE SMOOTH",
"240 1322 OFFCURVE",
"222 1303 OFFCURVE",
"222 1257 CURVE SMOOTH",
"222 55 LINE SMOOTH",
"222 9 OFFCURVE",
"240 -10 OFFCURVE",
"296 -10 CURVE SMOOTH",
"298 -10 LINE SMOOTH",
"354 -10 OFFCURVE",
"372 9 OFFCURVE",
"372 55 CURVE SMOOTH",
"372 352 LINE SMOOTH",
"372 568 OFFCURVE",
"546 738 OFFCURVE",
"702 738 CURVE SMOOTH",
"824 738 OFFCURVE",
"874 660 OFFCURVE",
"874 545 CURVE SMOOTH",
"874 55 LINE SMOOTH",
"874 9 OFFCURVE",
"892 -10 OFFCURVE",
"948 -10 CURVE SMOOTH",
"950 -10 LINE SMOOTH",
"1006 -10 OFFCURVE",
"1024 9 OFFCURVE",
"1024 55 CURVE SMOOTH",
"1024 560 LINE SMOOTH",
"1024 760 OFFCURVE",
"915 886 OFFCURVE",
"717 886 CURVE SMOOTH",
"578 886 OFFCURVE",
"431 787 OFFCURVE",
"346 639 CURVE",
"372 613 LINE",
"372 1257 LINE SMOOTH",
"372 1303 OFFCURVE",
"354 1322 OFFCURVE",
"298 1322 CURVE SMOOTH"
);
},
{
closed = 1;
nodes = (
"83 1150 LINE SMOOTH",
"38 1150 OFFCURVE",
"20 1130 OFFCURVE",
"20 1078 CURVE SMOOTH",
"20 1026 OFFCURVE",
"38 1006 OFFCURVE",
"83 1006 CURVE SMOOTH",
"625 1006 LINE SMOOTH",
"670 1006 OFFCURVE",
"688 1026 OFFCURVE",
"688 1078 CURVE SMOOTH",
"688 1130 OFFCURVE",
"670 1150 OFFCURVE",
"625 1150 CURVE SMOOTH"
);
}
);
width = 1228;
},
{
background = {
paths = (
{
closed = 1;
nodes = (
"233 1312 LINE SMOOTH",
"188 1312 OFFCURVE",
"170 1294 OFFCURVE",
"170 1249 CURVE SMOOTH",
"170 63 LINE SMOOTH",
"170 18 OFFCURVE",
"188 0 OFFCURVE",
"233 0 CURVE SMOOTH",
"357 0 LINE SMOOTH",
"402 0 OFFCURVE",
"420 18 OFFCURVE",
"420 63 CURVE SMOOTH",
"420 358 LINE SMOOTH",
"420 546 OFFCURVE",
"556 709 OFFCURVE",
"685 709 CURVE SMOOTH",
"783 709 OFFCURVE",
"822 649 OFFCURVE",
"822 551 CURVE SMOOTH",
"822 63 LINE SMOOTH",
"822 18 OFFCURVE",
"840 0 OFFCURVE",
"885 0 CURVE SMOOTH",
"1009 0 LINE SMOOTH",
"1054 0 OFFCURVE",
"1072 18 OFFCURVE",
"1072 63 CURVE SMOOTH",
"1072 610 LINE SMOOTH",
"1072 810 OFFCURVE",
"949 946 OFFCURVE",
"750 946 CURVE SMOOTH",
"621 946 OFFCURVE",
"508 881 OFFCURVE",
"420 778 CURVE",
"420 1249 LINE SMOOTH",
"420 1294 OFFCURVE",
"402 1312 OFFCURVE",
"357 1312 CURVE SMOOTH"
);
}
);
};
layerId = "222D0B97-E2BD-4249-A584-FAB7D66A0D71";
name = Bold;
paths = (
{
closed = 1;
nodes = (
"253 1312 LINE SMOOTH",
"208 1312 OFFCURVE",
"190 1294 OFFCURVE",
"190 1249 CURVE SMOOTH",
"190 63 LINE SMOOTH",
"190 18 OFFCURVE",
"208 0 OFFCURVE",
"253 0 CURVE SMOOTH",
"377 0 LINE SMOOTH",
"422 0 OFFCURVE",
"440 18 OFFCURVE",
"440 63 CURVE SMOOTH",
"440 308 LINE SMOOTH",
"440 471 OFFCURVE",
"566 609 OFFCURVE",
"685 609 CURVE SMOOTH",
"767 609 OFFCURVE",
"802 556 OFFCURVE",
"802 471 CURVE SMOOTH",
"802 63 LINE SMOOTH",
"802 18 OFFCURVE",
"820 0 OFFCURVE",
"865 0 CURVE SMOOTH",
"989 0 LINE SMOOTH",
"1034 0 OFFCURVE",
"1052 18 OFFCURVE",
"1052 63 CURVE SMOOTH",
"1052 520 LINE SMOOTH",
"1052 718 OFFCURVE",
"937 846 OFFCURVE",
"750 846 CURVE SMOOTH",
"604 846 OFFCURVE",
"480 757 OFFCURVE",
"391 623 CURVE",
"440 596 LINE",
"440 1249 LINE SMOOTH",
"440 1294 OFFCURVE",
"422 1312 OFFCURVE",
"377 1312 CURVE SMOOTH"
);
},
{
closed = 1;
nodes = (
"83 1155 LINE SMOOTH",
"38 1155 OFFCURVE",
"20 1137 OFFCURVE",
"20 1052 CURVE SMOOTH",
"20 967 OFFCURVE",
"38 950 OFFCURVE",
"83 950 CURVE SMOOTH",
"645 950 LINE SMOOTH",
"690 950 OFFCURVE",
"708 967 OFFCURVE",
"708 1052 CURVE SMOOTH",
"708 1137 OFFCURVE",
"690 1155 OFFCURVE",
"645 1155 CURVE SMOOTH"
);
}
);
width = 1228;
}
);
unicode = 0127;
},
{
glyphname = dotlessi;
lastChange = "2015-01-09 06:10:16 +0000";
layers = (
{
layerId = UUID0;
name = Regular;
paths = (
{
closed = 1;
nodes = (
"310 924 LINE SMOOTH",
"265 924 OFFCURVE",
"247 904 OFFCURVE",
"247 852 CURVE SMOOTH",
"247 800 OFFCURVE",
"265 780 OFFCURVE",
"310 780 CURVE SMOOTH",
"563 780 LINE",
"563 144 LINE",
"250 144 LINE SMOOTH",
"205 144 OFFCURVE",
"187 124 OFFCURVE",
"187 72 CURVE SMOOTH",
"187 20 OFFCURVE",
"205 0 OFFCURVE",
"250 0 CURVE SMOOTH",
"1034 0 LINE SMOOTH",
"1079 0 OFFCURVE",
"1097 20 OFFCURVE",
"1097 72 CURVE SMOOTH",
"1097 124 OFFCURVE",
"1079 144 OFFCURVE",
"1034 144 CURVE SMOOTH",
"713 144 LINE",
"713 856 LINE SMOOTH",
"713 906 OFFCURVE",
"695 924 OFFCURVE",
"650 924 CURVE SMOOTH"
);
}
);
width = 1228;
},
{
layerId = "222D0B97-E2BD-4249-A584-FAB7D66A0D71";
name = Bold;
paths = (
{
closed = 1;
nodes = (
"290 924 LINE SMOOTH",
"245 924 OFFCURVE",
"227 901 OFFCURVE",
"227 811 CURVE SMOOTH",
"227 721 OFFCURVE",
"245 699 OFFCURVE",
"290 699 CURVE SMOOTH",
"503 699 LINE",
"503 225 LINE",
"230 225 LINE SMOOTH",
"185 225 OFFCURVE",
"167 202 OFFCURVE",
"167 112 CURVE SMOOTH",
"167 22 OFFCURVE",
"185 0 OFFCURVE",
"230 0 CURVE SMOOTH",
"1034 0 LINE SMOOTH",
"1079 0 OFFCURVE",
"1097 22 OFFCURVE",
"1097 112 CURVE SMOOTH",
"1097 202 OFFCURVE",
"1079 225 OFFCURVE",
"1034 225 CURVE SMOOTH",
"753 225 LINE",
"753 861 LINE SMOOTH",
"753 906 OFFCURVE",
"735 924 OFFCURVE",
"690 924 CURVE SMOOTH"
);
}
);
width = 1228;
}
);
unicode = 0131;
},
{
glyphname = ij;
lastChange = "2015-01-09 06:14:15 +0000";
layers = (
{
background = {
paths = (
{
closed = 1;
nodes = (
"910 934 LINE SMOOTH",
"854 934 OFFCURVE",
"836 915 OFFCURVE",
"836 869 CURVE SMOOTH",
"836 -49 LINE SMOOTH",
"836 -196 OFFCURVE",
"793 -269 OFFCURVE",
"659 -269 CURVE SMOOTH",
"584 -269 OFFCURVE",
"505 -249 OFFCURVE",
"423 -204 CURVE SMOOTH",
"392 -187 OFFCURVE",
"358 -197 OFFCURVE",
"337 -247 CURVE SMOOTH",
"316 -297 OFFCURVE",
"330 -324 OFFCURVE",
"365 -342 CURVE SMOOTH",
"456 -389 OFFCURVE",
"561 -415 OFFCURVE",
"659 -415 CURVE SMOOTH",
"891 -415 OFFCURVE",
"986 -291 OFFCURVE",
"986 -62 CURVE SMOOTH",
"986 869 LINE SMOOTH",
"986 915 OFFCURVE",
"968 934 OFFCURVE",
"912 934 CURVE SMOOTH"
);
}
);
};
components = (
{
name = dotaccent;
transform = "{1, 0, 0, 1, -297, 0}";
},
{
name = dotaccent;
transform = "{1, 0, 0, 1, 297, 0}";
}
);
layerId = UUID0;
name = Regular;
paths = (
{
closed = 1;
nodes = (
"910 934 LINE SMOOTH",
"854 934 OFFCURVE",
"836 915 OFFCURVE",
"836 869 CURVE SMOOTH",
"836 -105 LINE SMOOTH",
"836 -218 OFFCURVE",
"796 -262 OFFCURVE",
"714 -262 CURVE SMOOTH",
"654 -262 OFFCURVE",
"590 -246 OFFCURVE",
"539 -221 CURVE SMOOTH",
"511 -207 OFFCURVE",
"477 -209 OFFCURVE",
"454 -263 CURVE SMOOTH",
"433 -313 OFFCURVE",
"444 -341 OFFCURVE",
"482 -360 CURVE SMOOTH",
"549 -393 OFFCURVE",
"644 -410 OFFCURVE",
"713 -410 CURVE SMOOTH",
"889 -410 OFFCURVE",
"986 -314 OFFCURVE",
"986 -135 CURVE SMOOTH",
"986 869 LINE SMOOTH",
"986 915 OFFCURVE",
"968 934 OFFCURVE",
"912 934 CURVE SMOOTH"
);
},
{
closed = 1;
nodes = (
"316 934 LINE SMOOTH",
"260 934 OFFCURVE",
"242 915 OFFCURVE",
"242 869 CURVE SMOOTH",
"242 55 LINE SMOOTH",
"242 9 OFFCURVE",
"260 -10 OFFCURVE",
"316 -10 CURVE SMOOTH",
"318 -10 LINE SMOOTH",
"374 -10 OFFCURVE",
"392 9 OFFCURVE",
"392 55 CURVE SMOOTH",
"392 869 LINE SMOOTH",
"392 915 OFFCURVE",
"374 934 OFFCURVE",
"318 934 CURVE SMOOTH"
);
}
);
width = 1228;
},
{
background = {
paths = (
{
closed = 1;
nodes = (
"847 924 LINE SMOOTH",
"802 924 OFFCURVE",
"784 906 OFFCURVE",
"784 861 CURVE SMOOTH",
"784 -22 LINE SMOOTH",
"784 -133 OFFCURVE",
"737 -178 OFFCURVE",
"655 -178 CURVE SMOOTH",
"606 -178 OFFCURVE",
"533 -160 OFFCURVE",
"470 -135 CURVE SMOOTH",
"428 -118 OFFCURVE",
"390 -133 OFFCURVE",
"364 -214 CURVE SMOOTH",
"338 -295 OFFCURVE",
"352 -332 OFFCURVE",
"396 -353 CURVE SMOOTH",
"490 -398 OFFCURVE",
"591 -415 OFFCURVE",
"677 -415 CURVE SMOOTH",
"909 -415 OFFCURVE",
"1034 -284 OFFCURVE",
"1034 -35 CURVE SMOOTH",
"1034 861 LINE SMOOTH",
"1034 906 OFFCURVE",
"1016 924 OFFCURVE",
"971 924 CURVE SMOOTH"
);
}
);
};
components = (
{
name = dotaccent;
transform = "{1, 0, 0, 1, -295, 0}";
},
{
name = dotaccent;
transform = "{1, 0, 0, 1, 295, 0}";
}
);
layerId = "222D0B97-E2BD-4249-A584-FAB7D66A0D71";
name = Bold;
paths = (
{
closed = 1;
nodes = (
"847 924 LINE SMOOTH",
"802 924 OFFCURVE",
"784 906 OFFCURVE",
"784 861 CURVE SMOOTH",
"784 -39 LINE SMOOTH",
"784 -135 OFFCURVE",
"746 -173 OFFCURVE",
"665 -173 CURVE SMOOTH",
"628 -173 OFFCURVE",
"572 -162 OFFCURVE",
"524 -147 CURVE SMOOTH",
"483 -134 OFFCURVE",
"451 -153 OFFCURVE",
"430 -235 CURVE SMOOTH",
"409 -319 OFFCURVE",
"419 -353 OFFCURVE",
"463 -370 CURVE SMOOTH",
"531 -396 OFFCURVE",
"607 -410 OFFCURVE",
"672 -410 CURVE SMOOTH",
"911 -410 OFFCURVE",
"1034 -292 OFFCURVE",
"1034 -55 CURVE SMOOTH",
"1034 861 LINE SMOOTH",
"1034 906 OFFCURVE",
"1016 924 OFFCURVE",
"971 924 CURVE SMOOTH"
);
},
{
closed = 1;
nodes = (
"257 924 LINE SMOOTH",
"212 924 OFFCURVE",
"194 906 OFFCURVE",
"194 861 CURVE SMOOTH",
"194 63 LINE SMOOTH",
"194 18 OFFCURVE",
"212 0 OFFCURVE",
"257 0 CURVE SMOOTH",
"381 0 LINE SMOOTH",
"426 0 OFFCURVE",
"444 18 OFFCURVE",
"444 63 CURVE SMOOTH",
"444 861 LINE SMOOTH",
"444 906 OFFCURVE",
"426 924 OFFCURVE",
"381 924 CURVE SMOOTH"
);
}
);
width = 1228;
}
);
unicode = 0133;
},
{
glyphname = j;
lastChange = "2015-01-09 06:12:54 +0000";
layers = (
{
background = {
paths = (
{
closed = 1;
nodes = (
"903 1298 LINE SMOOTH",
"903 1344 OFFCURVE",
"884 1363 OFFCURVE",
"808 1363 CURVE SMOOTH",
"732 1363 OFFCURVE",
"713 1344 OFFCURVE",
"713 1298 CURVE SMOOTH",
"713 1168 LINE SMOOTH",
"713 1122 OFFCURVE",
"732 1103 OFFCURVE",
"808 1103 CURVE SMOOTH",
"884 1103 OFFCURVE",
"903 1122 OFFCURVE",
"903 1168 CURVE SMOOTH"
);
},
{
closed = 1;
nodes = (
"784 780 LINE",
"784 924 LINE",
"330 924 LINE SMOOTH",
"285 924 OFFCURVE",
"267 904 OFFCURVE",
"267 852 CURVE SMOOTH",
"267 800 OFFCURVE",
"285 780 OFFCURVE",
"330 780 CURVE SMOOTH"
);
},
{
closed = 1;
nodes = (
"262 -150 OFFCURVE",
"228 -158 OFFCURVE",
"203 -206 CURVE SMOOTH",
"178 -254 OFFCURVE",
"190 -282 OFFCURVE",
"223 -303 CURVE",
"323 -366 OFFCURVE",
"461 -415 OFFCURVE",
"576 -415 CURVE SMOOTH",
"808 -415 OFFCURVE",
"903 -291 OFFCURVE",
"903 -62 CURVE SMOOTH",
"903 856 LINE SMOOTH",
"903 906 OFFCURVE",
"885 924 OFFCURVE",
"840 924 CURVE SMOOTH",
"730 924 LINE",
"730 788 LINE",
"753 788 LINE",
"753 -49 LINE SMOOTH",
"753 -196 OFFCURVE",
"710 -269 OFFCURVE",
"576 -269 CURVE SMOOTH",
"483 -269 OFFCURVE",
"379 -227 OFFCURVE",
"292 -170 CURVE SMOOTH"
);
}
);
};
components = (
{
name = dotlessj;
transform = "{1, 0, 0, 1, 0, 0}";
},
{
name = dotaccent;
transform = "{1, 0, 0, 1, 194, 0}";
}
);
layerId = UUID0;
name = Regular;
width = 1228;
},
{
components = (
{
name = dotlessj;
transform = "{1, 0, 0, 1, 0, 0}";
},
{
name = dotaccent;
transform = "{1, 0, 0, 1, 184, 0}";
}
);
layerId = "222D0B97-E2BD-4249-A584-FAB7D66A0D71";
name = Bold;
width = 1228;
}
);
unicode = 006A;
},
{
glyphname = dotlessj;
lastChange = "2014-11-16 17:39:02 +0000";
layers = (
{
layerId = UUID0;
name = Regular;
paths = (
{
closed = 1;
nodes = (
"753 924 LINE",
"753 -44 LINE SMOOTH",
"753 -191 OFFCURVE",
"710 -264 OFFCURVE",
"576 -264 CURVE SMOOTH",
"483 -264 OFFCURVE",
"379 -222 OFFCURVE",
"292 -165 CURVE SMOOTH",
"262 -145 OFFCURVE",
"228 -153 OFFCURVE",
"203 -201 CURVE SMOOTH",
"178 -249 OFFCURVE",
"190 -277 OFFCURVE",
"223 -298 CURVE SMOOTH",
"323 -361 OFFCURVE",
"461 -410 OFFCURVE",
"576 -410 CURVE SMOOTH",
"808 -410 OFFCURVE",
"903 -286 OFFCURVE",
"903 -57 CURVE SMOOTH",
"903 856 LINE SMOOTH",
"903 906 OFFCURVE",
"885 924 OFFCURVE",
"840 924 CURVE"
);
},
{
closed = 1;
nodes = (
"330 924 LINE SMOOTH",
"285 924 OFFCURVE",
"267 904 OFFCURVE",
"267 852 CURVE SMOOTH",
"267 800 OFFCURVE",
"285 780 OFFCURVE",
"330 780 CURVE SMOOTH",
"794 780 LINE",
"794 924 LINE"
);
}
);
width = 1228;
},
{
layerId = "222D0B97-E2BD-4249-A584-FAB7D66A0D71";
name = Bold;
paths = (
{
closed = 1;
nodes = (
"673 924 LINE",
"673 -17 LINE SMOOTH",
"673 -128 OFFCURVE",
"626 -173 OFFCURVE",
"544 -173 CURVE SMOOTH",
"474 -173 OFFCURVE",
"384 -143 OFFCURVE",
"293 -103 CURVE SMOOTH",
"252 -85 OFFCURVE",
"213 -99 OFFCURVE",
"183 -179 CURVE SMOOTH",
"153 -259 OFFCURVE",
"165 -296 OFFCURVE",
"209 -318 CURVE SMOOTH",
"326 -377 OFFCURVE",
"457 -410 OFFCURVE",
"566 -410 CURVE SMOOTH",
"798 -410 OFFCURVE",
"923 -279 OFFCURVE",
"923 -30 CURVE SMOOTH",
"923 861 LINE SMOOTH",
"923 906 OFFCURVE",
"905 924 OFFCURVE",
"860 924 CURVE SMOOTH"
);
},
{
closed = 1;
nodes = (
"290 924 LINE SMOOTH",
"245 924 OFFCURVE",
"227 901 OFFCURVE",
"227 811 CURVE SMOOTH",
"227 721 OFFCURVE",
"245 699 OFFCURVE",
"290 699 CURVE SMOOTH",
"774 699 LINE",
"774 924 LINE"
);
}
);
width = 1228;
}
);
unicode = 0237;
},
{
glyphname = k;
lastChange = "2014-01-31 04:18:53 +0000";
layers = (
{
layerId = UUID0;
name = Regular;
paths = (
{
closed = 1;
nodes = (
"972 949 OFFCURVE",
"936 946 OFFCURVE",
"911 924 CURVE SMOOTH",
"287 368 LINE",
"370 248 LINE",
"1035 833 LINE SMOOTH",
"1070 863 OFFCURVE",
"1061 896 OFFCURVE",
"1014 924 CURVE SMOOTH"
);
},
{
closed = 1;
nodes = (
"306 1322 LINE SMOOTH",
"250 1322 OFFCURVE",
"232 1303 OFFCURVE",
"232 1257 CURVE SMOOTH",
"232 55 LINE SMOOTH",
"232 9 OFFCURVE",
"250 -10 OFFCURVE",
"306 -10 CURVE SMOOTH",
"308 -10 LINE SMOOTH",
"364 -10 OFFCURVE",
"382 9 OFFCURVE",
"382 55 CURVE SMOOTH",
"382 1257 LINE SMOOTH",
"382 1303 OFFCURVE",
"364 1322 OFFCURVE",
"308 1322 CURVE SMOOTH"
);
},
{
closed = 1;
nodes = (
"491 496 LINE",
"938 3 LINE SMOOTH",
"962 -24 OFFCURVE",
"991 -22 OFFCURVE",
"1038 5 CURVE SMOOTH",
"1087 33 OFFCURVE",
"1091 61 OFFCURVE",
"1060 95 CURVE SMOOTH",
"613 584 LINE"
);
}
);
width = 1228;
},
{
layerId = "222D0B97-E2BD-4249-A584-FAB7D66A0D71";
name = Bold;
paths = (
{
closed = 1;
nodes = (
"938 941 OFFCURVE",
"891 949 OFFCURVE",
"852 916 CURVE SMOOTH",
"301 454 LINE",
"407 234 LINE",
"1049 751 LINE SMOOTH",
"1092 786 OFFCURVE",
"1077 826 OFFCURVE",
"1001 889 CURVE SMOOTH"
);
},
{
closed = 1;
nodes = (
"266 1312 LINE SMOOTH",
"221 1312 OFFCURVE",
"203 1294 OFFCURVE",
"203 1249 CURVE SMOOTH",
"203 63 LINE SMOOTH",
"203 18 OFFCURVE",
"221 0 OFFCURVE",
"266 0 CURVE SMOOTH",
"390 0 LINE SMOOTH",
"435 0 OFFCURVE",
"453 18 OFFCURVE",
"453 63 CURVE SMOOTH",
"453 1249 LINE SMOOTH",
"453 1294 OFFCURVE",
"435 1312 OFFCURVE",
"390 1312 CURVE SMOOTH"
);
},
{
closed = 1;
nodes = (
"512 446 LINE",
"861 14 LINE SMOOTH",
"891 -26 OFFCURVE",
"936 -25 OFFCURVE",
"1015 24 CURVE SMOOTH",
"1097 75 OFFCURVE",
"1107 113 OFFCURVE",
"1069 162 CURVE SMOOTH",
"703 610 LINE"
);
}
);
width = 1228;
}
);
unicode = 006B;
},
{
glyphname = l;
lastChange = "2014-02-04 00:31:59 +0000";
layers = (
{
layerId = UUID0;
name = Regular;
paths = (
{
closed = 1;
nodes = (
"553 1312 LINE",
"553 106 LINE",
"703 106 LINE",
"703 1244 LINE SMOOTH",
"703 1294 OFFCURVE",
"685 1312 OFFCURVE",
"640 1312 CURVE SMOOTH"
);
},
{
closed = 1;
nodes = (
"240 144 LINE SMOOTH",
"195 144 OFFCURVE",
"177 124 OFFCURVE",
"177 72 CURVE SMOOTH",
"177 20 OFFCURVE",
"195 0 OFFCURVE",
"240 0 CURVE SMOOTH",
"1024 0 LINE SMOOTH",
"1069 0 OFFCURVE",
"1087 20 OFFCURVE",
"1087 72 CURVE SMOOTH",
"1087 124 OFFCURVE",
"1069 144 OFFCURVE",
"1024 144 CURVE SMOOTH"
);
},
{
closed = 1;
nodes = (
"280 1312 LINE SMOOTH",
"235 1312 OFFCURVE",
"217 1292 OFFCURVE",
"217 1240 CURVE SMOOTH",
"217 1188 OFFCURVE",
"235 1168 OFFCURVE",
"280 1168 CURVE SMOOTH",
"614 1168 LINE",
"614 1312 LINE"
);
}
);
width = 1228;
},
{
layerId = "222D0B97-E2BD-4249-A584-FAB7D66A0D71";
name = Bold;
paths = (
{
closed = 1;
nodes = (
"493 1312 LINE",
"493 149 LINE",
"743 149 LINE",
"743 1249 LINE SMOOTH",
"743 1294 OFFCURVE",
"725 1312 OFFCURVE",
"680 1312 CURVE SMOOTH"
);
},
{
closed = 1;
nodes = (
"220 225 LINE",
"175 225 OFFCURVE",
"157 202 OFFCURVE",
"157 112 CURVE SMOOTH",
"157 22 OFFCURVE",
"175 0 OFFCURVE",
"220 0 CURVE SMOOTH",
"1024 0 LINE SMOOTH",
"1069 0 OFFCURVE",
"1087 22 OFFCURVE",
"1087 112 CURVE SMOOTH",
"1087 202 OFFCURVE",
"1069 225 OFFCURVE",
"1024 225 CURVE"
);
},
{
closed = 1;
nodes = (
"260 1312 LINE SMOOTH",
"215 1312 OFFCURVE",
"197 1289 OFFCURVE",
"197 1199 CURVE SMOOTH",
"197 1109 OFFCURVE",
"215 1087 OFFCURVE",
"260 1087 CURVE",
"584 1087 LINE",
"584 1312 LINE"
);
}
);
width = 1228;
}
);
unicode = 006C;
},
{
color = 6;
glyphname = lslash;
lastChange = "2014-11-22 20:44:30 +0000";
layers = (
{
components = (
{
name = l;
transform = "{1, 0, 0, 1, 0, 0}";
}
);
layerId = UUID0;
name = Regular;
paths = (
{
closed = 1;
nodes = (
"301 550 LINE SMOOTH",
"264 525 OFFCURVE",
"259 500 OFFCURVE",
"287 459 CURVE SMOOTH",
"315 417 OFFCURVE",
"341 413 OFFCURVE",
"378 438 CURVE SMOOTH",
"947 825 LINE SMOOTH",
"984 850 OFFCURVE",
"989 875 OFFCURVE",
"961 916 CURVE SMOOTH",
"933 958 OFFCURVE",
"907 962 OFFCURVE",
"870 937 CURVE SMOOTH"
);
}
);
width = 1228;
},
{
components = (
{
name = l;
transform = "{1, 0, 0, 1, 0, 0}";
}
);
layerId = "222D0B97-E2BD-4249-A584-FAB7D66A0D71";
name = Bold;
paths = (
{
closed = 1;
nodes = (
"235 578 LINE SMOOTH",
"196 555 OFFCURVE",
"190 530 OFFCURVE",
"233 457 CURVE SMOOTH",
"277 384 OFFCURVE",
"301 379 OFFCURVE",
"339 402 CURVE SMOOTH",
"995 791 LINE SMOOTH",
"1033 814 OFFCURVE",
"1040 838 OFFCURVE",
"997 911 CURVE SMOOTH",
"953 984 OFFCURVE",
"929 990 OFFCURVE",
"890 967 CURVE SMOOTH"
);
}
);
width = 1228;
}
);
unicode = 0142;
},
{
glyphname = m;
lastChange = "2015-01-07 12:53:39 +0000";
layers = (
{
layerId = UUID0;
name = Regular;
paths = (
{
closed = 1;
nodes = (
"810 946 OFFCURVE",
"732 887 OFFCURVE",
"672 765 CURVE",
"647 888 OFFCURVE",
"571 946 OFFCURVE",
"484 946 CURVE SMOOTH",
"393 946 OFFCURVE",
"309 885 OFFCURVE",
"251 757 CURVE",
"251 869 LINE SMOOTH",
"251 915 OFFCURVE",
"237 934 OFFCURVE",
"187 934 CURVE SMOOTH",
"185 934 LINE SMOOTH",
"135 934 OFFCURVE",
"121 915 OFFCURVE",
"121 869 CURVE SMOOTH",
"121 55 LINE SMOOTH",
"121 9 OFFCURVE",
"139 -10 OFFCURVE",
"195 -10 CURVE SMOOTH",
"197 -10 LINE SMOOTH",
"253 -10 OFFCURVE",
"271 9 OFFCURVE",
"271 55 CURVE SMOOTH",
"271 457 LINE SMOOTH",
"271 659 OFFCURVE",
"350 798 OFFCURVE",
"445 798 CURVE SMOOTH",
"513 798 OFFCURVE",
"540 749 OFFCURVE",
"540 660 CURVE SMOOTH",
"540 55 LINE SMOOTH",
"540 9 OFFCURVE",
"558 -10 OFFCURVE",
"614 -10 CURVE SMOOTH",
"616 -10 LINE SMOOTH",
"672 -10 OFFCURVE",
"690 9 OFFCURVE",
"690 55 CURVE SMOOTH",
"690 457 LINE SMOOTH",
"690 659 OFFCURVE",
"769 798 OFFCURVE",
"864 798 CURVE SMOOTH",
"932 798 OFFCURVE",
"959 749 OFFCURVE",
"959 660 CURVE SMOOTH",
"959 55 LINE SMOOTH",
"959 9 OFFCURVE",
"977 -10 OFFCURVE",
"1033 -10 CURVE SMOOTH",
"1035 -10 LINE SMOOTH",
"1091 -10 OFFCURVE",
"1109 9 OFFCURVE",
"1109 55 CURVE SMOOTH",
"1109 678 LINE SMOOTH",
"1109 861 OFFCURVE",
"1016 946 OFFCURVE",
"902 946 CURVE SMOOTH"
);
}
);
width = 1228;
},
{
background = {
paths = (
{
closed = 1;
nodes = (
"854 946 OFFCURVE",
"771 878 OFFCURVE",
"709 743 CURVE",
"682 871 OFFCURVE",
"622 946 OFFCURVE",
"518 946 CURVE SMOOTH",
"418 946 OFFCURVE",
"331 869 OFFCURVE",
"268 717 CURVE",
"268 861 LINE SMOOTH",
"268 906 OFFCURVE",
"250 924 OFFCURVE",
"205 924 CURVE SMOOTH",
"151 924 LINE SMOOTH",
"106 924 OFFCURVE",
"88 906 OFFCURVE",
"88 861 CURVE",
"88 63 LINE SMOOTH",
"88 18 OFFCURVE",
"106 0 OFFCURVE",
"151 0 CURVE SMOOTH",
"275 0 LINE SMOOTH",
"320 0 OFFCURVE",
"338 18 OFFCURVE",
"338 63 CURVE SMOOTH",
"338 403 LINE SMOOTH",
"338 595 OFFCURVE",
"379 689 OFFCURVE",
"440 689 CURVE SMOOTH",
"477 689 OFFCURVE",
"492 655 OFFCURVE",
"492 586 CURVE SMOOTH",
"492 63 LINE SMOOTH",
"492 18 OFFCURVE",
"510 0 OFFCURVE",
"555 0 CURVE SMOOTH",
"679 0 LINE SMOOTH",
"724 0 OFFCURVE",
"742 18 OFFCURVE",
"742 63 CURVE SMOOTH",
"742 403 LINE SMOOTH",
"742 595 OFFCURVE",
"783 689 OFFCURVE",
"844 689 CURVE SMOOTH",
"881 689 OFFCURVE",
"896 655 OFFCURVE",
"896 586 CURVE SMOOTH",
"896 63 LINE SMOOTH",
"896 18 OFFCURVE",
"914 0 OFFCURVE",
"959 0 CURVE SMOOTH",
"1083 0 LINE SMOOTH",
"1128 0 OFFCURVE",
"1146 18 OFFCURVE",
"1146 63 CURVE SMOOTH",
"1146 643 LINE SMOOTH",
"1146 855 OFFCURVE",
"1065 946 OFFCURVE",
"948 946 CURVE SMOOTH"
);
}
);
};
layerId = "222D0B97-E2BD-4249-A584-FAB7D66A0D71";
name = Bold;
paths = (
{
closed = 1;
nodes = (
"854 946 OFFCURVE",
"771 878 OFFCURVE",
"709 743 CURVE",
"682 871 OFFCURVE",
"622 946 OFFCURVE",
"518 946 CURVE SMOOTH",
"428 946 OFFCURVE",
"346 875 OFFCURVE",
"288 737 CURVE",
"288 861 LINE SMOOTH",
"288 906 OFFCURVE",
"270 924 OFFCURVE",
"225 924 CURVE SMOOTH",
"151 924 LINE SMOOTH",
"106 924 OFFCURVE",
"88 906 OFFCURVE",
"88 861 CURVE SMOOTH",
"88 63 LINE SMOOTH",
"88 18 OFFCURVE",
"106 0 OFFCURVE",
"151 0 CURVE SMOOTH",
"275 0 LINE SMOOTH",
"320 0 OFFCURVE",
"338 18 OFFCURVE",
"338 63 CURVE SMOOTH",
"338 403 LINE SMOOTH",
"338 595 OFFCURVE",
"379 689 OFFCURVE",
"440 689 CURVE SMOOTH",
"477 689 OFFCURVE",
"492 655 OFFCURVE",
"492 586 CURVE SMOOTH",
"492 63 LINE SMOOTH",
"492 18 OFFCURVE",
"510 0 OFFCURVE",
"555 0 CURVE SMOOTH",
"679 0 LINE SMOOTH",
"724 0 OFFCURVE",
"742 18 OFFCURVE",
"742 63 CURVE SMOOTH",
"742 403 LINE SMOOTH",
"742 595 OFFCURVE",
"783 689 OFFCURVE",
"844 689 CURVE SMOOTH",
"881 689 OFFCURVE",
"896 655 OFFCURVE",
"896 586 CURVE SMOOTH",
"896 63 LINE SMOOTH",
"896 18 OFFCURVE",
"914 0 OFFCURVE",
"959 0 CURVE SMOOTH",
"1083 0 LINE SMOOTH",
"1128 0 OFFCURVE",
"1146 18 OFFCURVE",
"1146 63 CURVE SMOOTH",
"1146 643 LINE SMOOTH",
"1146 855 OFFCURVE",
"1065 946 OFFCURVE",
"948 946 CURVE SMOOTH"
);
}
);
width = 1228;
}
);
unicode = 006D;
},
{
glyphname = n;
lastChange = "2015-01-07 12:25:23 +0000";
layers = (
{
layerId = UUID0;
name = Regular;
paths = (
{
closed = 1;
nodes = (
"581 946 OFFCURVE",
"430 842 OFFCURVE",
"342 706 CURVE",
"342 869 LINE SMOOTH",
"342 915 OFFCURVE",
"326 934 OFFCURVE",
"273 934 CURVE SMOOTH",
"271 934 LINE SMOOTH",
"218 934 OFFCURVE",
"202 915 OFFCURVE",
"202 869 CURVE SMOOTH",
"202 55 LINE SMOOTH",
"202 9 OFFCURVE",
"220 -10 OFFCURVE",
"276 -10 CURVE SMOOTH",
"278 -10 LINE SMOOTH",
"334 -10 OFFCURVE",
"352 9 OFFCURVE",
"352 55 CURVE SMOOTH",
"352 392 LINE SMOOTH",
"352 620 OFFCURVE",
"541 798 OFFCURVE",
"712 798 CURVE SMOOTH",
"841 798 OFFCURVE",
"894 720 OFFCURVE",
"894 605 CURVE SMOOTH",
"894 55 LINE SMOOTH",
"894 9 OFFCURVE",
"912 -10 OFFCURVE",
"968 -10 CURVE SMOOTH",
"970 -10 LINE SMOOTH",
"1026 -10 OFFCURVE",
"1044 9 OFFCURVE",
"1044 55 CURVE SMOOTH",
"1044 620 LINE SMOOTH",
"1044 820 OFFCURVE",
"931 946 OFFCURVE",
"727 946 CURVE SMOOTH"
);
}
);
width = 1228;
},
{
background = {
paths = (
{
closed = 1;
nodes = (
"601 946 OFFCURVE",
"472 859 OFFCURVE",
"380 726 CURVE",
"380 861 LINE SMOOTH",
"380 906 OFFCURVE",
"362 924 OFFCURVE",
"317 924 CURVE SMOOTH",
"233 924 LINE SMOOTH",
"188 924 OFFCURVE",
"170 906 OFFCURVE",
"170 861 CURVE SMOOTH",
"170 63 LINE SMOOTH",
"170 18 OFFCURVE",
"188 0 OFFCURVE",
"233 0 CURVE SMOOTH",
"357 0 LINE SMOOTH",
"402 0 OFFCURVE",
"420 18 OFFCURVE",
"420 63 CURVE SMOOTH",
"420 358 LINE SMOOTH",
"420 546 OFFCURVE",
"556 709 OFFCURVE",
"685 709 CURVE SMOOTH",
"783 709 OFFCURVE",
"822 649 OFFCURVE",
"822 551 CURVE SMOOTH",
"822 63 LINE SMOOTH",
"822 18 OFFCURVE",
"840 0 OFFCURVE",
"885 0 CURVE SMOOTH",
"1009 0 LINE SMOOTH",
"1054 0 OFFCURVE",
"1072 18 OFFCURVE",
"1072 63 CURVE SMOOTH",
"1072 610 LINE SMOOTH",
"1072 810 OFFCURVE",
"949 946 OFFCURVE",
"750 946 CURVE SMOOTH"
);
}
);
};
layerId = "222D0B97-E2BD-4249-A584-FAB7D66A0D71";
name = Bold;
paths = (
{
closed = 1;
nodes = (
"605 946 OFFCURVE",
"480 863 OFFCURVE",
"390 736 CURVE",
"390 861 LINE SMOOTH",
"390 906 OFFCURVE",
"372 924 OFFCURVE",
"327 924 CURVE SMOOTH",
"233 924 LINE SMOOTH",
"188 924 OFFCURVE",
"170 906 OFFCURVE",
"170 861 CURVE SMOOTH",
"170 63 LINE SMOOTH",
"170 18 OFFCURVE",
"188 0 OFFCURVE",
"233 0 CURVE SMOOTH",
"357 0 LINE SMOOTH",
"402 0 OFFCURVE",
"420 18 OFFCURVE",
"420 63 CURVE SMOOTH",
"420 358 LINE SMOOTH",
"420 546 OFFCURVE",
"556 709 OFFCURVE",
"685 709 CURVE SMOOTH",
"783 709 OFFCURVE",
"822 649 OFFCURVE",
"822 551 CURVE SMOOTH",
"822 63 LINE SMOOTH",
"822 18 OFFCURVE",
"840 0 OFFCURVE",
"885 0 CURVE SMOOTH",
"1009 0 LINE SMOOTH",
"1054 0 OFFCURVE",
"1072 18 OFFCURVE",
"1072 63 CURVE SMOOTH",
"1072 610 LINE SMOOTH",
"1072 810 OFFCURVE",
"949 946 OFFCURVE",
"750 946 CURVE SMOOTH"
);
}
);
width = 1228;
}
);
unicode = 006E;
},
{
color = 3;
glyphname = eng;
lastChange = "2015-01-07 12:32:55 +0000";
layers = (
{
background = {
components = (
{
name = n;
transform = "{1, 0, 0, 1, 0, 0}";
}
);
paths = (
{
closed = 1;
nodes = (
"894 198 LINE",
"894 -107 LINE SMOOTH",
"894 -220 OFFCURVE",
"854 -264 OFFCURVE",
"772 -264 CURVE SMOOTH",
"712 -264 OFFCURVE",
"648 -246 OFFCURVE",
"595 -224 CURVE SMOOTH",
"566 -212 OFFCURVE",
"535 -212 OFFCURVE",
"512 -265 CURVE SMOOTH",
"490 -315 OFFCURVE",
"502 -343 OFFCURVE",
"540 -360 CURVE SMOOTH",
"608 -390 OFFCURVE",
"691 -410 OFFCURVE",
"771 -410 CURVE SMOOTH",
"947 -410 OFFCURVE",
"1044 -314 OFFCURVE",
"1044 -135 CURVE SMOOTH",
"1044 198 LINE"
);
}
);
};
layerId = UUID0;
name = Regular;
paths = (
{
closed = 1;
nodes = (
"581 946 OFFCURVE",
"430 842 OFFCURVE",
"342 706 CURVE",
"342 869 LINE SMOOTH",
"342 915 OFFCURVE",
"326 934 OFFCURVE",
"273 934 CURVE SMOOTH",
"271 934 LINE SMOOTH",
"218 934 OFFCURVE",
"202 915 OFFCURVE",
"202 869 CURVE SMOOTH",
"202 55 LINE SMOOTH",
"202 9 OFFCURVE",
"220 -10 OFFCURVE",
"276 -10 CURVE SMOOTH",
"278 -10 LINE SMOOTH",
"334 -10 OFFCURVE",
"352 9 OFFCURVE",
"352 55 CURVE SMOOTH",
"352 392 LINE SMOOTH",
"352 620 OFFCURVE",
"541 798 OFFCURVE",
"712 798 CURVE SMOOTH",
"841 798 OFFCURVE",
"894 720 OFFCURVE",
"894 605 CURVE SMOOTH",
"894 -107 LINE SMOOTH",
"894 -220 OFFCURVE",
"854 -264 OFFCURVE",
"772 -264 CURVE SMOOTH",
"712 -264 OFFCURVE",
"648 -246 OFFCURVE",
"595 -224 CURVE SMOOTH",
"566 -212 OFFCURVE",
"535 -212 OFFCURVE",
"512 -265 CURVE SMOOTH",
"490 -315 OFFCURVE",
"502 -343 OFFCURVE",
"540 -360 CURVE SMOOTH",
"608 -390 OFFCURVE",
"691 -410 OFFCURVE",
"771 -410 CURVE SMOOTH",
"947 -410 OFFCURVE",
"1044 -314 OFFCURVE",
"1044 -135 CURVE SMOOTH",
"1044 620 LINE SMOOTH",
"1044 820 OFFCURVE",
"931 946 OFFCURVE",
"727 946 CURVE SMOOTH"
);
}
);
width = 1228;
},
{
background = {
components = (
{
name = n;
transform = "{1, 0, 0, 1, 0, 0}";
}
);
paths = (
{
closed = 1;
nodes = (
"822 336 LINE",
"822 -39 LINE SMOOTH",
"822 -135 OFFCURVE",
"784 -173 OFFCURVE",
"703 -173 CURVE SMOOTH",
"666 -173 OFFCURVE",
"610 -162 OFFCURVE",
"562 -147 CURVE SMOOTH",
"521 -134 OFFCURVE",
"489 -153 OFFCURVE",
"468 -235 CURVE SMOOTH",
"447 -319 OFFCURVE",
"457 -353 OFFCURVE",
"501 -370 CURVE SMOOTH",
"569 -396 OFFCURVE",
"645 -410 OFFCURVE",
"710 -410 CURVE SMOOTH",
"949 -410 OFFCURVE",
"1072 -292 OFFCURVE",
"1072 -55 CURVE SMOOTH",
"1072 336 LINE"
);
}
);
};
layerId = "222D0B97-E2BD-4249-A584-FAB7D66A0D71";
name = Bold;
paths = (
{
closed = 1;
nodes = (
"605 946 OFFCURVE",
"480 863 OFFCURVE",
"390 736 CURVE",
"390 861 LINE SMOOTH",
"390 906 OFFCURVE",
"372 924 OFFCURVE",
"327 924 CURVE SMOOTH",
"233 924 LINE SMOOTH",
"188 924 OFFCURVE",
"170 906 OFFCURVE",
"170 861 CURVE SMOOTH",
"170 63 LINE SMOOTH",
"170 18 OFFCURVE",
"188 0 OFFCURVE",
"233 0 CURVE SMOOTH",
"357 0 LINE SMOOTH",
"402 0 OFFCURVE",
"420 18 OFFCURVE",
"420 63 CURVE SMOOTH",
"420 358 LINE SMOOTH",
"420 546 OFFCURVE",
"556 709 OFFCURVE",
"685 709 CURVE SMOOTH",
"783 709 OFFCURVE",
"822 649 OFFCURVE",
"822 551 CURVE SMOOTH",
"822 -39 LINE SMOOTH",
"822 -135 OFFCURVE",
"784 -173 OFFCURVE",
"703 -173 CURVE SMOOTH",
"666 -173 OFFCURVE",
"610 -162 OFFCURVE",
"562 -147 CURVE SMOOTH",
"521 -134 OFFCURVE",
"489 -153 OFFCURVE",
"468 -235 CURVE SMOOTH",
"447 -319 OFFCURVE",
"457 -353 OFFCURVE",
"501 -370 CURVE SMOOTH",
"569 -396 OFFCURVE",
"645 -410 OFFCURVE",
"710 -410 CURVE SMOOTH",
"949 -410 OFFCURVE",
"1072 -292 OFFCURVE",
"1072 -55 CURVE SMOOTH",
"1072 610 LINE SMOOTH",
"1072 810 OFFCURVE",
"949 946 OFFCURVE",
"750 946 CURVE SMOOTH"
);
}
);
width = 1228;
}
);
unicode = 014B;
},
{
glyphname = o;
lastChange = "2015-01-14 04:38:04 +0000";
layers = (
{
background = {
paths = (
{
closed = 1;
nodes = (
"332 946 OFFCURVE",
"124 744 OFFCURVE",
"124 462 CURVE SMOOTH",
"124 180 OFFCURVE",
"332 -22 OFFCURVE",
"614 -22 CURVE SMOOTH",
"896 -22 OFFCURVE",
"1104 180 OFFCURVE",
"1104 462 CURVE SMOOTH",
"1104 744 OFFCURVE",
"896 946 OFFCURVE",
"614 946 CURVE SMOOTH"
);
},
{
closed = 1;
nodes = (
"816 798 OFFCURVE",
"950 659 OFFCURVE",
"950 462 CURVE SMOOTH",
"950 265 OFFCURVE",
"816 126 OFFCURVE",
"614 126 CURVE SMOOTH",
"412 126 OFFCURVE",
"278 265 OFFCURVE",
"278 462 CURVE SMOOTH",
"278 659 OFFCURVE",
"412 798 OFFCURVE",
"614 798 CURVE SMOOTH"
);
}
);
};
layerId = UUID0;
name = Regular;
paths = (
{
closed = 1;
nodes = (
"338 946 OFFCURVE",
"134 744 OFFCURVE",
"134 462 CURVE SMOOTH",
"134 180 OFFCURVE",
"338 -22 OFFCURVE",
"614 -22 CURVE SMOOTH",
"890 -22 OFFCURVE",
"1094 180 OFFCURVE",
"1094 462 CURVE SMOOTH",
"1094 744 OFFCURVE",
"890 946 OFFCURVE",
"614 946 CURVE SMOOTH"
);
},
{
closed = 1;
nodes = (
"810 798 OFFCURVE",
"940 659 OFFCURVE",
"940 462 CURVE SMOOTH",
"940 265 OFFCURVE",
"810 126 OFFCURVE",
"614 126 CURVE SMOOTH",
"418 126 OFFCURVE",
"288 265 OFFCURVE",
"288 462 CURVE SMOOTH",
"288 659 OFFCURVE",
"418 798 OFFCURVE",
"614 798 CURVE SMOOTH"
);
}
);
width = 1228;
},
{
layerId = "222D0B97-E2BD-4249-A584-FAB7D66A0D71";
name = Bold;
paths = (
{
closed = 1;
nodes = (
"307 946 OFFCURVE",
"113 742 OFFCURVE",
"113 462 CURVE SMOOTH",
"113 182 OFFCURVE",
"307 -22 OFFCURVE",
"614 -22 CURVE SMOOTH",
"921 -22 OFFCURVE",
"1115 182 OFFCURVE",
"1115 462 CURVE SMOOTH",
"1115 742 OFFCURVE",
"921 946 OFFCURVE",
"614 946 CURVE SMOOTH"
);
},
{
closed = 1;
nodes = (
"759 714 OFFCURVE",
"853 616 OFFCURVE",
"853 462 CURVE SMOOTH",
"853 308 OFFCURVE",
"759 210 OFFCURVE",
"614 210 CURVE SMOOTH",
"469 210 OFFCURVE",
"375 308 OFFCURVE",
"375 462 CURVE SMOOTH",
"375 616 OFFCURVE",
"469 714 OFFCURVE",
"614 714 CURVE SMOOTH"
);
}
);
width = 1228;
}
);
unicode = 006F;
},
{
color = 6;
glyphname = oslash;
lastChange = "2014-11-22 20:44:30 +0000";
layers = (
{
background = {
paths = (
{
closed = 1;
nodes = (
"138 101 LINE SMOOTH",
"105 69 OFFCURVE",
"106 41 OFFCURVE",
"140 6 CURVE SMOOTH",
"174 -29 OFFCURVE",
"202 -31 OFFCURVE",
"235 1 CURVE SMOOTH",
"1089 822 LINE SMOOTH",
"1123 854 OFFCURVE",
"1122 883 OFFCURVE",
"1088 918 CURVE SMOOTH",
"1054 953 OFFCURVE",
"1025 955 OFFCURVE",
"992 923 CURVE SMOOTH"
);
}
);
};
components = (
{
name = o;
transform = "{1, 0, 0, 1, 0, 0}";
}
);
layerId = UUID0;
name = Regular;
paths = (
{
closed = 1;
nodes = (
"108 71 LINE SMOOTH",
"75 39 OFFCURVE",
"76 11 OFFCURVE",
"110 -24 CURVE SMOOTH",
"144 -59 OFFCURVE",
"172 -61 OFFCURVE",
"205 -29 CURVE SMOOTH",
"1119 852 LINE SMOOTH",
"1153 884 OFFCURVE",
"1152 913 OFFCURVE",
"1118 948 CURVE SMOOTH",
"1084 983 OFFCURVE",
"1055 985 OFFCURVE",
"1022 953 CURVE SMOOTH"
);
}
);
width = 1228;
},
{
background = {
paths = (
{
closed = 1;
nodes = (
"164 130 LINE SMOOTH",
"133 98 OFFCURVE",
"133 72 OFFCURVE",
"187 20 CURVE SMOOTH",
"241 -32 OFFCURVE",
"267 -32 OFFCURVE",
"298 1 CURVE SMOOTH",
"1064 794 LINE SMOOTH",
"1095 826 OFFCURVE",
"1095 852 OFFCURVE",
"1041 904 CURVE SMOOTH",
"987 956 OFFCURVE",
"961 956 OFFCURVE",
"930 923 CURVE SMOOTH"
);
}
);
};
components = (
{
name = o;
transform = "{1, 0, 0, 1, 0, 0}";
}
);
layerId = "222D0B97-E2BD-4249-A584-FAB7D66A0D71";
name = Bold;
paths = (
{
closed = 1;
nodes = (
"104 70 LINE SMOOTH",
"73 38 OFFCURVE",
"73 12 OFFCURVE",
"127 -40 CURVE SMOOTH",
"181 -92 OFFCURVE",
"206 -92 OFFCURVE",
"238 -59 CURVE SMOOTH",
"1124 854 LINE SMOOTH",
"1155 886 OFFCURVE",
"1155 912 OFFCURVE",
"1101 964 CURVE SMOOTH",
"1047 1016 OFFCURVE",
"1022 1016 OFFCURVE",
"990 983 CURVE SMOOTH"
);
}
);
width = 1228;
}
);
unicode = 00F8;
},
{
glyphname = oe;
lastChange = "2014-02-03 05:31:17 +0000";
layers = (
{
layerId = UUID0;
name = Regular;
paths = (
{
closed = 1;
nodes = (
"749 946 OFFCURVE",
"667 899 OFFCURVE",
"613 806 CURVE",
"564 897 OFFCURVE",
"488 946 OFFCURVE",
"382 946 CURVE SMOOTH",
"175 946 OFFCURVE",
"70 769 OFFCURVE",
"70 462 CURVE SMOOTH",
"70 155 OFFCURVE",
"175 -22 OFFCURVE",
"382 -22 CURVE SMOOTH",
"487 -22 OFFCURVE",
"564 26 OFFCURVE",
"613 116 CURVE",
"667 23 OFFCURVE",
"750 -22 OFFCURVE",
"853 -22 CURVE SMOOTH",
"948 -22 OFFCURVE",
"1038 14 OFFCURVE",
"1112 84 CURVE SMOOTH",
"1144 114 OFFCURVE",
"1149 149 OFFCURVE",
"1118 187 CURVE SMOOTH",
"1087 225 OFFCURVE",
"1048 226 OFFCURVE",
"1023 201 CURVE",
"967 147 OFFCURVE",
"917 123 OFFCURVE",
"853 123 CURVE SMOOTH",
"764 123 OFFCURVE",
"693 199 OFFCURVE",
"689 440 CURVE",
"1088 440 LINE SMOOTH",
"1133 440 OFFCURVE",
"1152 457 OFFCURVE",
"1151 502 CURVE SMOOTH",
"1144 769 OFFCURVE",
"1065 946 OFFCURVE",
"853 946 CURVE SMOOTH"
);
},
{
closed = 1;
nodes = (
"487 798 OFFCURVE",
"536 697 OFFCURVE",
"536 462 CURVE SMOOTH",
"536 227 OFFCURVE",
"487 126 OFFCURVE",
"382 126 CURVE SMOOTH",
"277 126 OFFCURVE",
"228 227 OFFCURVE",
"228 462 CURVE SMOOTH",
"228 697 OFFCURVE",
"277 798 OFFCURVE",
"382 798 CURVE SMOOTH"
);
},
{
closed = 1;
nodes = (
"946 801 OFFCURVE",
"985 717 OFFCURVE",
"994 580 CURVE",
"694 580 LINE",
"710 739 OFFCURVE",
"763 801 OFFCURVE",
"855 801 CURVE SMOOTH"
);
}
);
width = 1228;
},
{
layerId = "222D0B97-E2BD-4249-A584-FAB7D66A0D71";
name = Bold;
paths = (
{
closed = 1;
nodes = (
"753 946 OFFCURVE",
"675 905 OFFCURVE",
"620 836 CURVE",
"568 905 OFFCURVE",
"492 946 OFFCURVE",
"384 946 CURVE SMOOTH",
"125 946 OFFCURVE",
"27 742 OFFCURVE",
"27 462 CURVE SMOOTH",
"27 182 OFFCURVE",
"125 -22 OFFCURVE",
"384 -22 CURVE SMOOTH",
"488 -22 OFFCURVE",
"564 17 OFFCURVE",
"616 84 CURVE",
"667 17 OFFCURVE",
"742 -22 OFFCURVE",
"843 -22 CURVE SMOOTH",
"950 -22 OFFCURVE",
"1055 10 OFFCURVE",
"1145 49 CURVE SMOOTH",
"1193 70 OFFCURVE",
"1201 108 OFFCURVE",
"1176 179 CURVE SMOOTH",
"1155 241 OFFCURVE",
"1127 277 OFFCURVE",
"1076 255 CURVE SMOOTH",
"993 220 OFFCURVE",
"933 205 OFFCURVE",
"858 205 CURVE SMOOTH",
"782 205 OFFCURVE",
"738 262 OFFCURVE",
"724 370 CURVE",
"1130 370 LINE SMOOTH",
"1175 370 OFFCURVE",
"1193 387 OFFCURVE",
"1193 432 CURVE SMOOTH",
"1193 729 OFFCURVE",
"1129 946 OFFCURVE",
"858 946 CURVE SMOOTH"
);
},
{
closed = 1;
nodes = (
"470 719 OFFCURVE",
"503 638 OFFCURVE",
"503 462 CURVE SMOOTH",
"503 286 OFFCURVE",
"470 205 OFFCURVE",
"384 205 CURVE SMOOTH",
"298 205 OFFCURVE",
"265 286 OFFCURVE",
"265 462 CURVE SMOOTH",
"265 638 OFFCURVE",
"298 719 OFFCURVE",
"384 719 CURVE SMOOTH"
);
},
{
closed = 1;
nodes = (
"926 719 OFFCURVE",
"962 661 OFFCURVE",
"968 565 CURVE",
"724 565 LINE",
"738 669 OFFCURVE",
"777 719 OFFCURVE",
"858 719 CURVE SMOOTH"
);
}
);
width = 1228;
}
);
unicode = 0153;
},
{
glyphname = p;
lastChange = "2015-01-07 12:33:16 +0000";
layers = (
{
background = {
paths = (
{
closed = 1;
nodes = (
"332 869 LINE",
"332 915 OFFCURVE",
"315 934 OFFCURVE",
"262 934 CURVE SMOOTH",
"209 934 OFFCURVE",
"192 915 OFFCURVE",
"192 869 CURVE SMOOTH",
"192 -338 LINE SMOOTH",
"192 -384 OFFCURVE",
"211 -403 OFFCURVE",
"267 -403 CURVE SMOOTH",
"323 -403 OFFCURVE",
"342 -384 OFFCURVE",
"342 -338 CURVE SMOOTH",
"342 143 LINE",
"422 41 OFFCURVE",
"526 -22 OFFCURVE",
"659 -22 CURVE SMOOTH",
"906 -22 OFFCURVE",
"1089 160 OFFCURVE",
"1089 462 CURVE SMOOTH",
"1089 764 OFFCURVE",
"906 946 OFFCURVE",
"659 946 CURVE SMOOTH",
"526 946 OFFCURVE",
"414 883 OFFCURVE",
"332 776 CURVE"
);
},
{
closed = 1;
nodes = (
"342 674 OFFCURVE",
"472 798 OFFCURVE",
"649 798 CURVE SMOOTH",
"830 798 OFFCURVE",
"935 658 OFFCURVE",
"935 462 CURVE SMOOTH",
"935 266 OFFCURVE",
"830 126 OFFCURVE",
"649 126 CURVE SMOOTH",
"472 126 OFFCURVE",
"342 250 OFFCURVE",
"342 462 CURVE SMOOTH"
);
}
);
};
layerId = UUID0;
name = Regular;
paths = (
{
closed = 1;
nodes = (
"526 946 OFFCURVE",
"414 883 OFFCURVE",
"332 776 CURVE",
"332 869 LINE SMOOTH",
"332 915 OFFCURVE",
"316 934 OFFCURVE",
"263 934 CURVE SMOOTH",
"261 934 LINE SMOOTH",
"208 934 OFFCURVE",
"192 915 OFFCURVE",
"192 869 CURVE SMOOTH",
"192 -333 LINE SMOOTH",
"192 -379 OFFCURVE",
"210 -398 OFFCURVE",
"266 -398 CURVE SMOOTH",
"268 -398 LINE SMOOTH",
"324 -398 OFFCURVE",
"342 -379 OFFCURVE",
"342 -333 CURVE SMOOTH",
"342 143 LINE",
"422 41 OFFCURVE",
"526 -22 OFFCURVE",
"659 -22 CURVE SMOOTH",
"906 -22 OFFCURVE",
"1089 160 OFFCURVE",
"1089 462 CURVE SMOOTH",
"1089 764 OFFCURVE",
"906 946 OFFCURVE",
"659 946 CURVE SMOOTH"
);
},
{
closed = 1;
nodes = (
"830 798 OFFCURVE",
"935 658 OFFCURVE",
"935 462 CURVE SMOOTH",
"935 266 OFFCURVE",
"830 126 OFFCURVE",
"649 126 CURVE SMOOTH",
"472 126 OFFCURVE",
"342 250 OFFCURVE",
"342 462 CURVE SMOOTH",
"342 674 OFFCURVE",
"472 798 OFFCURVE",
"649 798 CURVE SMOOTH"
);
}
);
width = 1228;
},
{
layerId = "222D0B97-E2BD-4249-A584-FAB7D66A0D71";
name = Bold;
paths = (
{
closed = 1;
nodes = (
"556 946 OFFCURVE",
"453 886 OFFCURVE",
"387 787 CURVE",
"387 861 LINE SMOOTH",
"387 906 OFFCURVE",
"369 924 OFFCURVE",
"324 924 CURVE SMOOTH",
"230 924 LINE SMOOTH",
"185 924 OFFCURVE",
"167 906 OFFCURVE",
"167 861 CURVE SMOOTH",
"167 -325 LINE SMOOTH",
"167 -370 OFFCURVE",
"185 -388 OFFCURVE",
"230 -388 CURVE SMOOTH",
"354 -388 LINE SMOOTH",
"399 -388 OFFCURVE",
"417 -370 OFFCURVE",
"417 -325 CURVE SMOOTH",
"417 96 LINE",
"484 22 OFFCURVE",
"574 -22 OFFCURVE",
"680 -22 CURVE SMOOTH",
"949 -22 OFFCURVE",
"1105 192 OFFCURVE",
"1105 462 CURVE SMOOTH",
"1105 732 OFFCURVE",
"949 946 OFFCURVE",
"680 946 CURVE SMOOTH"
);
},
{
closed = 1;
nodes = (
"765 714 OFFCURVE",
"843 616 OFFCURVE",
"843 462 CURVE SMOOTH",
"843 308 OFFCURVE",
"765 210 OFFCURVE",
"640 210 CURVE SMOOTH",
"515 210 OFFCURVE",
"410 298 OFFCURVE",
"410 462 CURVE SMOOTH",
"410 626 OFFCURVE",
"515 714 OFFCURVE",
"640 714 CURVE SMOOTH"
);
}
);
width = 1228;
}
);
unicode = 0070;
},
{
glyphname = thorn;
lastChange = "2014-11-16 17:39:22 +0000";
layers = (
{
layerId = UUID0;
name = Regular;
paths = (
{
closed = 1;
nodes = (
"266 1322 LINE SMOOTH",
"210 1322 OFFCURVE",
"192 1303 OFFCURVE",
"192 1257 CURVE SMOOTH",
"192 -333 LINE SMOOTH",
"192 -379 OFFCURVE",
"210 -398 OFFCURVE",
"266 -398 CURVE SMOOTH",
"268 -398 LINE SMOOTH",
"324 -398 OFFCURVE",
"342 -379 OFFCURVE",
"342 -333 CURVE SMOOTH",
"342 143 LINE",
"422 41 OFFCURVE",
"526 -22 OFFCURVE",
"659 -22 CURVE SMOOTH",
"906 -22 OFFCURVE",
"1089 160 OFFCURVE",
"1089 462 CURVE SMOOTH",
"1089 764 OFFCURVE",
"906 946 OFFCURVE",
"659 946 CURVE SMOOTH",
"531 946 OFFCURVE",
"423 886 OFFCURVE",
"342 787 CURVE",
"342 1257 LINE SMOOTH",
"342 1303 OFFCURVE",
"324 1322 OFFCURVE",
"268 1322 CURVE SMOOTH"
);
},
{
closed = 1;
nodes = (
"830 798 OFFCURVE",
"935 658 OFFCURVE",
"935 462 CURVE SMOOTH",
"935 266 OFFCURVE",
"830 126 OFFCURVE",
"649 126 CURVE SMOOTH",
"472 126 OFFCURVE",
"342 250 OFFCURVE",
"342 462 CURVE SMOOTH",
"342 674 OFFCURVE",
"472 798 OFFCURVE",
"649 798 CURVE SMOOTH"
);
}
);
width = 1228;
},
{
layerId = "222D0B97-E2BD-4249-A584-FAB7D66A0D71";
name = Bold;
paths = (
{
closed = 1;
nodes = (
"230 1312 LINE SMOOTH",
"185 1312 OFFCURVE",
"167 1294 OFFCURVE",
"167 1249 CURVE SMOOTH",
"167 -325 LINE SMOOTH",
"167 -370 OFFCURVE",
"185 -388 OFFCURVE",
"230 -388 CURVE SMOOTH",
"354 -388 LINE SMOOTH",
"399 -388 OFFCURVE",
"417 -370 OFFCURVE",
"417 -325 CURVE SMOOTH",
"417 96 LINE",
"484 22 OFFCURVE",
"574 -22 OFFCURVE",
"680 -22 CURVE SMOOTH",
"949 -22 OFFCURVE",
"1105 192 OFFCURVE",
"1105 462 CURVE SMOOTH",
"1105 732 OFFCURVE",
"949 946 OFFCURVE",
"680 946 CURVE SMOOTH",
"574 946 OFFCURVE",
"484 902 OFFCURVE",
"417 828 CURVE",
"417 1249 LINE SMOOTH",
"417 1294 OFFCURVE",
"399 1312 OFFCURVE",
"354 1312 CURVE SMOOTH"
);
},
{
closed = 1;
nodes = (
"765 714 OFFCURVE",
"843 616 OFFCURVE",
"843 462 CURVE SMOOTH",
"843 308 OFFCURVE",
"765 210 OFFCURVE",
"640 210 CURVE SMOOTH",
"515 210 OFFCURVE",
"410 298 OFFCURVE",
"410 462 CURVE SMOOTH",
"410 626 OFFCURVE",
"515 714 OFFCURVE",
"640 714 CURVE SMOOTH"
);
}
);
width = 1228;
}
);
unicode = 00FE;
},
{
glyphname = q;
lastChange = "2015-01-07 12:33:27 +0000";
layers = (
{
layerId = UUID0;
name = Regular;
paths = (
{
closed = 1;
nodes = (
"322 946 OFFCURVE",
"139 764 OFFCURVE",
"139 462 CURVE SMOOTH",
"139 160 OFFCURVE",
"322 -22 OFFCURVE",
"569 -22 CURVE SMOOTH",
"702 -22 OFFCURVE",
"806 41 OFFCURVE",
"886 143 CURVE",
"886 -333 LINE SMOOTH",
"886 -379 OFFCURVE",
"904 -398 OFFCURVE",
"960 -398 CURVE SMOOTH",
"962 -398 LINE SMOOTH",
"1018 -398 OFFCURVE",
"1036 -379 OFFCURVE",
"1036 -333 CURVE SMOOTH",
"1036 869 LINE SMOOTH",
"1036 915 OFFCURVE",
"1020 934 OFFCURVE",
"967 934 CURVE SMOOTH",
"965 934 LINE SMOOTH",
"912 934 OFFCURVE",
"896 915 OFFCURVE",
"896 869 CURVE SMOOTH",
"896 776 LINE",
"814 883 OFFCURVE",
"702 946 OFFCURVE",
"569 946 CURVE SMOOTH"
);
},
{
closed = 1;
nodes = (
"756 798 OFFCURVE",
"886 674 OFFCURVE",
"886 462 CURVE SMOOTH",
"886 250 OFFCURVE",
"756 126 OFFCURVE",
"579 126 CURVE SMOOTH",
"398 126 OFFCURVE",
"293 266 OFFCURVE",
"293 462 CURVE SMOOTH",
"293 658 OFFCURVE",
"398 798 OFFCURVE",
"579 798 CURVE SMOOTH"
);
}
);
width = 1228;
},
{
layerId = "222D0B97-E2BD-4249-A584-FAB7D66A0D71";
name = Bold;
paths = (
{
closed = 1;
nodes = (
"279 946 OFFCURVE",
"123 732 OFFCURVE",
"123 462 CURVE SMOOTH",
"123 192 OFFCURVE",
"279 -22 OFFCURVE",
"548 -22 CURVE SMOOTH",
"654 -22 OFFCURVE",
"744 22 OFFCURVE",
"811 96 CURVE",
"811 -325 LINE SMOOTH",
"811 -370 OFFCURVE",
"829 -388 OFFCURVE",
"874 -388 CURVE SMOOTH",
"998 -388 LINE SMOOTH",
"1043 -388 OFFCURVE",
"1061 -370 OFFCURVE",
"1061 -325 CURVE SMOOTH",
"1061 861 LINE SMOOTH",
"1061 906 OFFCURVE",
"1043 924 OFFCURVE",
"998 924 CURVE SMOOTH",
"904 924 LINE SMOOTH",
"859 924 OFFCURVE",
"841 906 OFFCURVE",
"841 861 CURVE SMOOTH",
"841 787 LINE",
"775 886 OFFCURVE",
"672 946 OFFCURVE",
"548 946 CURVE SMOOTH"
);
},
{
closed = 1;
nodes = (
"713 714 OFFCURVE",
"818 626 OFFCURVE",
"818 462 CURVE SMOOTH",
"818 298 OFFCURVE",
"713 210 OFFCURVE",
"588 210 CURVE SMOOTH",
"463 210 OFFCURVE",
"385 308 OFFCURVE",
"385 462 CURVE SMOOTH",
"385 616 OFFCURVE",
"463 714 OFFCURVE",
"588 714 CURVE SMOOTH"
);
}
);
width = 1228;
}
);
unicode = 0071;
},
{
glyphname = r;
lastChange = "2015-01-09 16:58:05 +0000";
layers = (
{
layerId = UUID0;
name = Regular;
paths = (
{
closed = 1;
nodes = (
"726 946 OFFCURVE",
"561 828 OFFCURVE",
"447 634 CURVE",
"447 869 LINE SMOOTH",
"447 915 OFFCURVE",
"431 934 OFFCURVE",
"378 934 CURVE SMOOTH",
"376 934 LINE SMOOTH",
"323 934 OFFCURVE",
"307 915 OFFCURVE",
"307 869 CURVE SMOOTH",
"307 55 LINE SMOOTH",
"307 9 OFFCURVE",
"325 -10 OFFCURVE",
"381 -10 CURVE SMOOTH",
"383 -10 LINE SMOOTH",
"439 -10 OFFCURVE",
"457 9 OFFCURVE",
"457 55 CURVE SMOOTH",
"457 270 LINE SMOOTH",
"457 554 OFFCURVE",
"663 786 OFFCURVE",
"896 786 CURVE SMOOTH",
"932 786 OFFCURVE",
"969 780 OFFCURVE",
"1006 768 CURVE SMOOTH",
"1048 754 OFFCURVE",
"1068 778 OFFCURVE",
"1081 830 CURVE SMOOTH",
"1093 880 OFFCURVE",
"1079 911 OFFCURVE",
"1036 925 CURVE SMOOTH",
"992 939 OFFCURVE",
"948 946 OFFCURVE",
"905 946 CURVE SMOOTH"
);
}
);
width = 1228;
},
{
layerId = "222D0B97-E2BD-4249-A584-FAB7D66A0D71";
name = Bold;
paths = (
{
closed = 1;
nodes = (
"724 946 OFFCURVE",
"579 850 OFFCURVE",
"487 690 CURVE",
"487 861 LINE SMOOTH",
"487 906 OFFCURVE",
"469 924 OFFCURVE",
"424 924 CURVE SMOOTH",
"320 924 LINE SMOOTH",
"275 924 OFFCURVE",
"257 906 OFFCURVE",
"257 861 CURVE SMOOTH",
"257 63 LINE SMOOTH",
"257 18 OFFCURVE",
"275 0 OFFCURVE",
"320 0 CURVE SMOOTH",
"444 0 LINE SMOOTH",
"489 0 OFFCURVE",
"507 18 OFFCURVE",
"507 63 CURVE SMOOTH",
"507 290 LINE SMOOTH",
"507 517 OFFCURVE",
"669 678 OFFCURVE",
"867 678 CURVE SMOOTH",
"902 678 OFFCURVE",
"938 673 OFFCURVE",
"975 662 CURVE SMOOTH",
"1021 649 OFFCURVE",
"1056 682 OFFCURVE",
"1076 767 CURVE SMOOTH",
"1094 845 OFFCURVE",
"1084 894 OFFCURVE",
"1030 916 CURVE SMOOTH",
"980 936 OFFCURVE",
"929 946 OFFCURVE",
"880 946 CURVE SMOOTH"
);
}
);
width = 1228;
}
);
unicode = 0072;
},
{
glyphname = s;
lastChange = "2014-01-30 14:54:26 +0000";
layers = (
{
layerId = UUID0;
name = Regular;
paths = (
{
closed = 1;
nodes = (
"913 -22 OFFCURVE",
"1048 98 OFFCURVE",
"1048 277 CURVE SMOOTH",
"1048 403 OFFCURVE",
"979 467 OFFCURVE",
"884 502 CURVE SMOOTH",
"738 556 OFFCURVE",
"532 542 OFFCURVE",
"421 578 CURVE SMOOTH",
"374 593 OFFCURVE",
"344 617 OFFCURVE",
"344 660 CURVE SMOOTH",
"344 753 OFFCURVE",
"431 801 OFFCURVE",
"570 801 CURVE SMOOTH",
"689 801 OFFCURVE",
"806 772 OFFCURVE",
"912 718 CURVE SMOOTH",
"945 701 OFFCURVE",
"973 707 OFFCURVE",
"996 759 CURVE SMOOTH",
"1018 809 OFFCURVE",
"1004 840 OFFCURVE",
"966 859 CURVE SMOOTH",
"845 920 OFFCURVE",
"706 946 OFFCURVE",
"564 946 CURVE SMOOTH",
"352 946 OFFCURVE",
"190 849 OFFCURVE",
"190 660 CURVE SMOOTH",
"190 544 OFFCURVE",
"252 483 OFFCURVE",
"340 448 CURVE SMOOTH",
"485 391 OFFCURVE",
"698 406 OFFCURVE",
"813 367 CURVE SMOOTH",
"863 350 OFFCURVE",
"894 324 OFFCURVE",
"894 277 CURVE SMOOTH",
"894 186 OFFCURVE",
"813 123 OFFCURVE",
"644 123 CURVE SMOOTH",
"512 123 OFFCURVE",
"384 156 OFFCURVE",
"275 217 CURVE SMOOTH",
"243 235 OFFCURVE",
"215 230 OFFCURVE",
"190 179 CURVE SMOOTH",
"166 130 OFFCURVE",
"179 99 OFFCURVE",
"217 78 CURVE SMOOTH",
"345 8 OFFCURVE",
"492 -22 OFFCURVE",
"654 -22 CURVE SMOOTH"
);
}
);
width = 1228;
},
{
layerId = "222D0B97-E2BD-4249-A584-FAB7D66A0D71";
name = Bold;
paths = (
{
closed = 1;
nodes = (
"932 -22 OFFCURVE",
"1071 108 OFFCURVE",
"1071 297 CURVE SMOOTH",
"1071 431 OFFCURVE",
"998 499 OFFCURVE",
"900 535 CURVE SMOOTH",
"767 585 OFFCURVE",
"590 576 OFFCURVE",
"493 596 CURVE SMOOTH",
"449 605 OFFCURVE",
"422 620 OFFCURVE",
"422 649 CURVE SMOOTH",
"422 704 OFFCURVE",
"467 734 OFFCURVE",
"578 734 CURVE SMOOTH",
"681 734 OFFCURVE",
"799 715 OFFCURVE",
"928 669 CURVE SMOOTH",
"969 654 OFFCURVE",
"1007 672 OFFCURVE",
"1028 748 CURVE SMOOTH",
"1050 825 OFFCURVE",
"1029 859 OFFCURVE",
"986 874 CURVE SMOOTH",
"848 921 OFFCURVE",
"694 946 OFFCURVE",
"556 946 CURVE SMOOTH",
"320 946 OFFCURVE",
"164 833 OFFCURVE",
"164 645 CURVE SMOOTH",
"164 525 OFFCURVE",
"220 456 OFFCURVE",
"299 415 CURVE SMOOTH",
"427 348 OFFCURVE",
"615 354 OFFCURVE",
"724 334 CURVE SMOOTH",
"777 324 OFFCURVE",
"812 309 OFFCURVE",
"812 276 CURVE SMOOTH",
"812 223 OFFCURVE",
"765 190 OFFCURVE",
"624 190 CURVE SMOOTH",
"521 190 OFFCURVE",
"403 209 OFFCURVE",
"274 255 CURVE SMOOTH",
"233 270 OFFCURVE",
"195 252 OFFCURVE",
"174 176 CURVE SMOOTH",
"152 99 OFFCURVE",
"173 65 OFFCURVE",
"216 50 CURVE SMOOTH",
"354 3 OFFCURVE",
"508 -22 OFFCURVE",
"646 -22 CURVE SMOOTH"
);
}
);
width = 1228;
}
);
unicode = 0073;
},
{
glyphname = germandbls;
lastChange = "2014-02-03 05:31:52 +0000";
layers = (
{
layerId = UUID0;
name = Regular;
paths = (
{
closed = 1;
nodes = (
"373 1317 OFFCURVE",
"235 1162 OFFCURVE",
"235 943 CURVE SMOOTH",
"235 55 LINE SMOOTH",
"235 9 OFFCURVE",
"253 -10 OFFCURVE",
"309 -10 CURVE SMOOTH",
"311 -10 LINE SMOOTH",
"367 -10 OFFCURVE",
"385 9 OFFCURVE",
"385 55 CURVE SMOOTH",
"385 932 LINE SMOOTH",
"385 1078 OFFCURVE",
"464 1169 OFFCURVE",
"602 1169 CURVE SMOOTH",
"749 1169 OFFCURVE",
"828 1094 OFFCURVE",
"828 971 CURVE SMOOTH",
"828 854 OFFCURVE",
"760 772 OFFCURVE",
"627 759 CURVE SMOOTH",
"582 755 OFFCURVE",
"564 736 OFFCURVE",
"564 688 CURVE SMOOTH",
"564 640 OFFCURVE",
"582 619 OFFCURVE",
"627 619 CURVE SMOOTH",
"782 619 OFFCURVE",
"883 527 OFFCURVE",
"883 362 CURVE SMOOTH",
"883 209 OFFCURVE",
"781 126 OFFCURVE",
"615 126 CURVE SMOOTH",
"569 126 OFFCURVE",
"551 104 OFFCURVE",
"551 55 CURVE SMOOTH",
"551 -2 OFFCURVE",
"566 -22 OFFCURVE",
"634 -22 CURVE SMOOTH",
"876 -22 OFFCURVE",
"1037 120 OFFCURVE",
"1037 360 CURVE SMOOTH",
"1037 525 OFFCURVE",
"952 648 OFFCURVE",
"810 702 CURVE",
"915 757 OFFCURVE",
"982 845 OFFCURVE",
"982 971 CURVE SMOOTH",
"982 1164 OFFCURVE",
"856 1317 OFFCURVE",
"606 1317 CURVE SMOOTH"
);
}
);
width = 1228;
},
{
layerId = "222D0B97-E2BD-4249-A584-FAB7D66A0D71";
name = Bold;
paths = (
{
closed = 1;
nodes = (
"346 1317 OFFCURVE",
"188 1144 OFFCURVE",
"188 877 CURVE SMOOTH",
"188 63 LINE SMOOTH",
"188 18 OFFCURVE",
"206 0 OFFCURVE",
"251 0 CURVE SMOOTH",
"375 0 LINE SMOOTH",
"420 0 OFFCURVE",
"438 18 OFFCURVE",
"438 63 CURVE SMOOTH",
"438 874 LINE SMOOTH",
"438 1015 OFFCURVE",
"501 1090 OFFCURVE",
"615 1090 CURVE SMOOTH",
"733 1090 OFFCURVE",
"783 1023 OFFCURVE",
"783 936 CURVE SMOOTH",
"783 837 OFFCURVE",
"735 783 OFFCURVE",
"642 774 CURVE SMOOTH",
"597 770 OFFCURVE",
"579 746 OFFCURVE",
"579 661 CURVE SMOOTH",
"579 576 OFFCURVE",
"597 549 OFFCURVE",
"642 549 CURVE SMOOTH",
"755 549 OFFCURVE",
"824 491 OFFCURVE",
"824 387 CURVE SMOOTH",
"824 267 OFFCURVE",
"758 205 OFFCURVE",
"629 205 CURVE SMOOTH",
"584 205 OFFCURVE",
"572 176 OFFCURVE",
"572 91 CURVE SMOOTH",
"572 6 OFFCURVE",
"598 -22 OFFCURVE",
"649 -22 CURVE SMOOTH",
"911 -22 OFFCURVE",
"1086 107 OFFCURVE",
"1086 367 CURVE SMOOTH",
"1086 520 OFFCURVE",
"1009 627 OFFCURVE",
"875 678 CURVE",
"980 735 OFFCURVE",
"1033 820 OFFCURVE",
"1033 946 CURVE SMOOTH",
"1033 1163 OFFCURVE",
"887 1317 OFFCURVE",
"617 1317 CURVE SMOOTH"
);
}
);
width = 1228;
}
);
unicode = 00DF;
},
{
glyphname = t;
lastChange = "2015-01-15 21:20:27 +0000";
layers = (
{
background = {
paths = (
{
closed = 0;
nodes = (
"944 728 LINE SMOOTH",
"989 728 OFFCURVE",
"1007 746 OFFCURVE",
"1007 796 CURVE SMOOTH",
"1007 846 OFFCURVE",
"989 864 OFFCURVE",
"944 864 CURVE SMOOTH"
);
}
);
};
layerId = UUID0;
name = Regular;
paths = (
{
closed = 1;
nodes = (
"402 1209 OFFCURVE",
"383 1190 OFFCURVE",
"383 1144 CURVE SMOOTH",
"383 331 LINE SMOOTH",
"383 102 OFFCURVE",
"478 -22 OFFCURVE",
"710 -22 CURVE SMOOTH",
"825 -22 OFFCURVE",
"963 27 OFFCURVE",
"1063 90 CURVE SMOOTH",
"1096 111 OFFCURVE",
"1108 139 OFFCURVE",
"1083 187 CURVE SMOOTH",
"1058 235 OFFCURVE",
"1024 243 OFFCURVE",
"994 223 CURVE SMOOTH",
"907 166 OFFCURVE",
"803 124 OFFCURVE",
"710 124 CURVE SMOOTH",
"577 124 OFFCURVE",
"533 197 OFFCURVE",
"533 344 CURVE SMOOTH",
"533 1144 LINE SMOOTH",
"533 1190 OFFCURVE",
"514 1209 OFFCURVE",
"458 1209 CURVE SMOOTH"
);
},
{
closed = 1;
nodes = (
"180 844 LINE SMOOTH",
"135 844 OFFCURVE",
"117 824 OFFCURVE",
"117 772 CURVE SMOOTH",
"117 720 OFFCURVE",
"135 700 OFFCURVE",
"180 700 CURVE SMOOTH",
"944 700 LINE SMOOTH",
"989 700 OFFCURVE",
"1007 720 OFFCURVE",
"1007 772 CURVE SMOOTH",
"1007 824 OFFCURVE",
"989 844 OFFCURVE",
"944 844 CURVE SMOOTH"
);
}
);
width = 1228;
},
{
layerId = "222D0B97-E2BD-4249-A584-FAB7D66A0D71";
name = Bold;
paths = (
{
closed = 1;
nodes = (
"390 1209 OFFCURVE",
"353 1191 OFFCURVE",
"353 1146 CURVE SMOOTH",
"353 358 LINE SMOOTH",
"353 109 OFFCURVE",
"478 -22 OFFCURVE",
"710 -22 CURVE SMOOTH",
"825 -22 OFFCURVE",
"946 16 OFFCURVE",
"1067 77 CURVE SMOOTH",
"1111 99 OFFCURVE",
"1122 138 OFFCURVE",
"1091 217 CURVE SMOOTH",
"1060 296 OFFCURVE",
"1024 306 OFFCURVE",
"983 288 CURVE SMOOTH",
"895 249 OFFCURVE",
"800 215 OFFCURVE",
"732 215 CURVE SMOOTH",
"650 215 OFFCURVE",
"603 263 OFFCURVE",
"603 376 CURVE SMOOTH",
"603 1146 LINE SMOOTH",
"603 1191 OFFCURVE",
"580 1209 OFFCURVE",
"485 1209 CURVE SMOOTH"
);
},
{
closed = 1;
nodes = (
"160 864 LINE SMOOTH",
"115 864 OFFCURVE",
"97 841 OFFCURVE",
"97 751 CURVE SMOOTH",
"97 661 OFFCURVE",
"115 639 OFFCURVE",
"160 639 CURVE SMOOTH",
"974 639 LINE SMOOTH",
"1019 639 OFFCURVE",
"1037 661 OFFCURVE",
"1037 751 CURVE SMOOTH",
"1037 841 OFFCURVE",
"1019 864 OFFCURVE",
"974 864 CURVE SMOOTH"
);
}
);
width = 1228;
}
);
unicode = 0074;
},
{
glyphname = u;
lastChange = "2015-01-07 12:25:47 +0000";
layers = (
{
layerId = UUID0;
name = Regular;
paths = (
{
closed = 1;
nodes = (
"950 934 LINE SMOOTH",
"894 934 OFFCURVE",
"876 915 OFFCURVE",
"876 869 CURVE SMOOTH",
"876 532 LINE SMOOTH",
"876 304 OFFCURVE",
"687 126 OFFCURVE",
"516 126 CURVE SMOOTH",
"387 126 OFFCURVE",
"334 204 OFFCURVE",
"334 319 CURVE SMOOTH",
"334 869 LINE SMOOTH",
"334 915 OFFCURVE",
"316 934 OFFCURVE",
"260 934 CURVE SMOOTH",
"258 934 LINE SMOOTH",
"202 934 OFFCURVE",
"184 915 OFFCURVE",
"184 869 CURVE SMOOTH",
"184 304 LINE SMOOTH",
"184 104 OFFCURVE",
"297 -22 OFFCURVE",
"501 -22 CURVE SMOOTH",
"647 -22 OFFCURVE",
"798 82 OFFCURVE",
"886 218 CURVE",
"886 55 LINE SMOOTH",
"886 9 OFFCURVE",
"902 -10 OFFCURVE",
"955 -10 CURVE SMOOTH",
"957 -10 LINE SMOOTH",
"1010 -10 OFFCURVE",
"1026 9 OFFCURVE",
"1026 55 CURVE SMOOTH",
"1026 869 LINE SMOOTH",
"1026 915 OFFCURVE",
"1008 934 OFFCURVE",
"952 934 CURVE SMOOTH"
);
}
);
width = 1228;
},
{
layerId = "222D0B97-E2BD-4249-A584-FAB7D66A0D71";
name = Bold;
paths = (
{
closed = 1;
nodes = (
"871 924 LINE SMOOTH",
"826 924 OFFCURVE",
"808 906 OFFCURVE",
"808 861 CURVE SMOOTH",
"808 566 LINE SMOOTH",
"808 378 OFFCURVE",
"672 215 OFFCURVE",
"543 215 CURVE SMOOTH",
"445 215 OFFCURVE",
"406 275 OFFCURVE",
"406 373 CURVE SMOOTH",
"406 861 LINE SMOOTH",
"406 906 OFFCURVE",
"388 924 OFFCURVE",
"343 924 CURVE SMOOTH",
"219 924 LINE SMOOTH",
"174 924 OFFCURVE",
"156 906 OFFCURVE",
"156 861 CURVE SMOOTH",
"156 314 LINE SMOOTH",
"156 114 OFFCURVE",
"279 -22 OFFCURVE",
"478 -22 CURVE SMOOTH",
"623 -22 OFFCURVE",
"748 61 OFFCURVE",
"838 188 CURVE",
"838 63 LINE SMOOTH",
"838 18 OFFCURVE",
"856 0 OFFCURVE",
"901 0 CURVE SMOOTH",
"995 0 LINE SMOOTH",
"1040 0 OFFCURVE",
"1058 18 OFFCURVE",
"1058 63 CURVE SMOOTH",
"1058 861 LINE SMOOTH",
"1058 906 OFFCURVE",
"1040 924 OFFCURVE",
"995 924 CURVE SMOOTH"
);
}
);
width = 1228;
}
);
unicode = 0075;
},
{
color = 3;
glyphname = uogonek;
lastChange = "2015-01-21 16:56:15 +0000";
layers = (
{
background = {
components = (
{
name = u;
transform = "{1, 0, 0, 1, 0, 0}";
},
{
name = ogonek;
transform = "{1, 0, 0, 1, 272, 0}";
}
);
};
layerId = UUID0;
name = Regular;
paths = (
{
closed = 1;
nodes = (
"950 934 LINE SMOOTH",
"894 934 OFFCURVE",
"876 915 OFFCURVE",
"876 869 CURVE SMOOTH",
"876 532 LINE SMOOTH",
"876 304 OFFCURVE",
"687 126 OFFCURVE",
"516 126 CURVE SMOOTH",
"387 126 OFFCURVE",
"334 204 OFFCURVE",
"334 319 CURVE SMOOTH",
"334 869 LINE SMOOTH",
"334 915 OFFCURVE",
"316 934 OFFCURVE",
"260 934 CURVE SMOOTH",
"258 934 LINE SMOOTH",
"202 934 OFFCURVE",
"184 915 OFFCURVE",
"184 869 CURVE SMOOTH",
"184 304 LINE SMOOTH",
"184 104 OFFCURVE",
"297 -22 OFFCURVE",
"501 -22 CURVE SMOOTH",
"647 -22 OFFCURVE",
"798 82 OFFCURVE",
"886 218 CURVE",
"886 39 LINE",
"765 -58 OFFCURVE",
"683 -164 OFFCURVE",
"683 -281 CURVE SMOOTH",
"683 -397 OFFCURVE",
"759 -472 OFFCURVE",
"883 -472 CURVE SMOOTH",
"945 -472 OFFCURVE",
"1001 -462 OFFCURVE",
"1047 -446 CURVE SMOOTH",
"1076 -436 OFFCURVE",
"1086 -414 OFFCURVE",
"1079 -368 CURVE SMOOTH",
"1072 -324 OFFCURVE",
"1055 -309 OFFCURVE",
"1029 -316 CURVE SMOOTH",
"993 -326 OFFCURVE",
"955 -333 OFFCURVE",
"916 -333 CURVE SMOOTH",
"870 -333 OFFCURVE",
"839 -307 OFFCURVE",
"839 -260 CURVE SMOOTH",
"839 -188 OFFCURVE",
"886 -109 OFFCURVE",
"1009 3 CURVE SMOOTH",
"1021 14 OFFCURVE",
"1026 30 OFFCURVE",
"1026 55 CURVE SMOOTH",
"1026 869 LINE SMOOTH",
"1026 915 OFFCURVE",
"1008 934 OFFCURVE",
"952 934 CURVE SMOOTH"
);
}
);
width = 1228;
},
{
background = {
components = (
{
name = u;
transform = "{1, 0, 0, 1, 0, 0}";
},
{
name = ogonek;
transform = "{1, 0, 0, 1, 277, 0}";
}
);
};
layerId = "222D0B97-E2BD-4249-A584-FAB7D66A0D71";
name = Bold;
paths = (
{
closed = 1;
nodes = (
"871 924 LINE SMOOTH",
"826 924 OFFCURVE",
"808 906 OFFCURVE",
"808 861 CURVE SMOOTH",
"808 566 LINE SMOOTH",
"808 378 OFFCURVE",
"672 215 OFFCURVE",
"543 215 CURVE SMOOTH",
"445 215 OFFCURVE",
"406 275 OFFCURVE",
"406 373 CURVE SMOOTH",
"406 861 LINE SMOOTH",
"406 906 OFFCURVE",
"388 924 OFFCURVE",
"343 924 CURVE SMOOTH",
"219 924 LINE SMOOTH",
"174 924 OFFCURVE",
"156 906 OFFCURVE",
"156 861 CURVE SMOOTH",
"156 314 LINE SMOOTH",
"156 114 OFFCURVE",
"279 -22 OFFCURVE",
"478 -22 CURVE SMOOTH",
"623 -22 OFFCURVE",
"748 61 OFFCURVE",
"838 188 CURVE",
"838 17 LINE",
"719 -59 OFFCURVE",
"626 -145 OFFCURVE",
"626 -269 CURVE SMOOTH",
"626 -402 OFFCURVE",
"716 -472 OFFCURVE",
"872 -472 CURVE SMOOTH",
"945 -472 OFFCURVE",
"1022 -460 OFFCURVE",
"1088 -438 CURVE SMOOTH",
"1118 -428 OFFCURVE",
"1131 -402 OFFCURVE",
"1127 -343 CURVE SMOOTH",
"1123 -280 OFFCURVE",
"1104 -260 OFFCURVE",
"1077 -265 CURVE SMOOTH",
"1037 -272 OFFCURVE",
"996 -278 OFFCURVE",
"957 -278 CURVE SMOOTH",
"900 -278 OFFCURVE",
"869 -256 OFFCURVE",
"869 -211 CURVE SMOOTH",
"869 -151 OFFCURVE",
"924 -78 OFFCURVE",
"1040 11 CURVE SMOOTH",
"1053 21 OFFCURVE",
"1058 38 OFFCURVE",
"1058 63 CURVE SMOOTH",
"1058 861 LINE SMOOTH",
"1058 906 OFFCURVE",
"1040 924 OFFCURVE",
"995 924 CURVE SMOOTH"
);
}
);
width = 1228;
}
);
unicode = 0173;
},
{
glyphname = v;
lastChange = "2014-01-31 04:02:59 +0000";
layers = (
{
layerId = UUID0;
name = Regular;
paths = (
{
closed = 1;
nodes = (
"999 946 OFFCURVE",
"974 938 OFFCURVE",
"954 894 CURVE SMOOTH",
"614 143 LINE",
"274 894 LINE SMOOTH",
"254 938 OFFCURVE",
"229 946 OFFCURVE",
"177 924 CURVE SMOOTH",
"125 902 OFFCURVE",
"113 877 OFFCURVE",
"133 833 CURVE SMOOTH",
"496 40 LINE SMOOTH",
"516 -3 OFFCURVE",
"548 -22 OFFCURVE",
"614 -22 CURVE",
"680 -22 OFFCURVE",
"712 -3 OFFCURVE",
"732 40 CURVE SMOOTH",
"1095 833 LINE SMOOTH",
"1115 877 OFFCURVE",
"1103 902 OFFCURVE",
"1051 924 CURVE SMOOTH"
);
}
);
width = 1228;
},
{
layerId = "222D0B97-E2BD-4249-A584-FAB7D66A0D71";
name = Bold;
paths = (
{
closed = 1;
nodes = (
"924 948 OFFCURVE",
"885 941 OFFCURVE",
"867 897 CURVE SMOOTH",
"617 298 LINE",
"366 897 LINE SMOOTH",
"347 941 OFFCURVE",
"306 948 OFFCURVE",
"213 926 CURVE SMOOTH",
"119 904 OFFCURVE",
"94 872 OFFCURVE",
"114 827 CURVE SMOOTH",
"460 43 LINE SMOOTH",
"479 -1 OFFCURVE",
"514 -22 OFFCURVE",
"611 -22 CURVE SMOOTH",
"707 -22 OFFCURVE",
"744 -2 OFFCURVE",
"764 43 CURVE SMOOTH",
"1114 827 LINE SMOOTH",
"1134 872 OFFCURVE",
"1111 904 OFFCURVE",
"1017 926 CURVE SMOOTH"
);
}
);
width = 1228;
}
);
unicode = 0076;
},
{
glyphname = w;
lastChange = "2014-01-31 04:19:09 +0000";
layers = (
{
layerId = UUID0;
name = Regular;
paths = (
{
closed = 1;
nodes = (
"1055 941 OFFCURVE",
"1034 930 OFFCURVE",
"1023 883 CURVE SMOOTH",
"864 210 LINE",
"689 743 LINE SMOOTH",
"680 769 OFFCURVE",
"658 790 OFFCURVE",
"614 790 CURVE SMOOTH",
"570 790 OFFCURVE",
"548 769 OFFCURVE",
"539 743 CURVE SMOOTH",
"364 210 LINE",
"205 883 LINE SMOOTH",
"194 930 OFFCURVE",
"173 941 OFFCURVE",
"118 930 CURVE SMOOTH",
"62 919 OFFCURVE",
"50 896 OFFCURVE",
"62 849 CURVE SMOOTH",
"261 43 LINE SMOOTH",
"273 -4 OFFCURVE",
"292 -22 OFFCURVE",
"343 -22 CURVE SMOOTH",
"400 -22 OFFCURVE",
"430 -3 OFFCURVE",
"445 43 CURVE SMOOTH",
"614 555 LINE",
"783 43 LINE SMOOTH",
"798 -3 OFFCURVE",
"828 -22 OFFCURVE",
"885 -22 CURVE SMOOTH",
"936 -22 OFFCURVE",
"955 -4 OFFCURVE",
"967 43 CURVE SMOOTH",
"1166 849 LINE SMOOTH",
"1178 896 OFFCURVE",
"1166 919 OFFCURVE",
"1110 930 CURVE SMOOTH"
);
}
);
width = 1228;
},
{
layerId = "222D0B97-E2BD-4249-A584-FAB7D66A0D71";
name = Bold;
paths = (
{
closed = 1;
nodes = (
"989 940 OFFCURVE",
"954 930 OFFCURVE",
"945 883 CURVE SMOOTH",
"851 373 LINE",
"708 717 LINE SMOOTH",
"694 751 OFFCURVE",
"670 767 OFFCURVE",
"611 767 CURVE SMOOTH",
"553 767 OFFCURVE",
"530 745 OFFCURVE",
"515 710 CURVE SMOOTH",
"370 373 LINE",
"283 883 LINE SMOOTH",
"275 930 OFFCURVE",
"236 940 OFFCURVE",
"151 930 CURVE SMOOTH",
"65 920 OFFCURVE",
"41 896 OFFCURVE",
"50 849 CURVE SMOOTH",
"203 43 LINE SMOOTH",
"212 -4 OFFCURVE",
"241 -22 OFFCURVE",
"322 -22 CURVE SMOOTH",
"403 -22 OFFCURVE",
"442 -1 OFFCURVE",
"461 43 CURVE SMOOTH",
"611 395 LINE",
"757 43 LINE SMOOTH",
"775 -1 OFFCURVE",
"813 -22 OFFCURVE",
"894 -22 CURVE SMOOTH",
"975 -22 OFFCURVE",
"1006 -5 OFFCURVE",
"1015 43 CURVE SMOOTH",
"1173 849 LINE SMOOTH",
"1182 896 OFFCURVE",
"1160 920 OFFCURVE",
"1074 930 CURVE SMOOTH"
);
}
);
width = 1228;
}
);
unicode = 0077;
},
{
glyphname = x;
lastChange = "2014-02-03 05:33:47 +0000";
layers = (
{
layerId = UUID0;
name = Regular;
paths = (
{
closed = 1;
nodes = (
"965 947 OFFCURVE",
"937 945 OFFCURVE",
"906 909 CURVE SMOOTH",
"597 550 LINE",
"552 518 LINE",
"184 89 LINE SMOOTH",
"153 52 OFFCURVE",
"165 21 OFFCURVE",
"211 0 CURVE SMOOTH",
"262 -23 OFFCURVE",
"290 -21 OFFCURVE",
"321 15 CURVE SMOOTH",
"648 400 LINE",
"697 435 LINE",
"1043 835 LINE SMOOTH",
"1075 872 OFFCURVE",
"1062 903 OFFCURVE",
"1016 924 CURVE SMOOTH"
);
},
{
closed = 1;
nodes = (
"178 903 OFFCURVE",
"165 872 OFFCURVE",
"197 835 CURVE SMOOTH",
"543 435 LINE",
"592 400 LINE",
"919 15 LINE SMOOTH",
"950 -21 OFFCURVE",
"978 -23 OFFCURVE",
"1029 0 CURVE SMOOTH",
"1075 21 OFFCURVE",
"1087 52 OFFCURVE",
"1056 89 CURVE SMOOTH",
"688 518 LINE",
"643 550 LINE",
"334 909 LINE SMOOTH",
"303 945 OFFCURVE",
"275 947 OFFCURVE",
"224 924 CURVE SMOOTH"
);
}
);
width = 1228;
},
{
layerId = "222D0B97-E2BD-4249-A584-FAB7D66A0D71";
name = Bold;
paths = (
{
closed = 1;
nodes = (
"920 949 OFFCURVE",
"878 948 OFFCURVE",
"845 910 CURVE SMOOTH",
"544.996 557.783 LINE",
"531 570 LINE",
"165 162 LINE SMOOTH",
"124 116 OFFCURVE",
"137 75 OFFCURVE",
"219 24 CURVE SMOOTH",
"298 -25 OFFCURVE",
"340 -24 OFFCURVE",
"373 14 CURVE SMOOTH",
"673.004 366.217 LINE",
"687 354 LINE",
"1053 762 LINE SMOOTH",
"1094 808 OFFCURVE",
"1081 849 OFFCURVE",
"999 900 CURVE SMOOTH"
);
},
{
closed = 1;
nodes = (
"147 849 OFFCURVE",
"134 808 OFFCURVE",
"175 762 CURVE SMOOTH",
"541 354 LINE",
"554.996 366.217 LINE",
"855 14 LINE SMOOTH",
"888 -24 OFFCURVE",
"930 -25 OFFCURVE",
"1009 24 CURVE SMOOTH",
"1091 75 OFFCURVE",
"1104 116 OFFCURVE",
"1063 162 CURVE SMOOTH",
"697 570 LINE",
"683.004 557.783 LINE",
"383 910 LINE SMOOTH",
"350 948 OFFCURVE",
"308 949 OFFCURVE",
"229 900 CURVE SMOOTH"
);
}
);
width = 1228;
}
);
unicode = 0078;
},
{
glyphname = y;
lastChange = "2014-11-16 17:39:47 +0000";
layers = (
{
background = {
paths = (
{
closed = 1;
nodes = (
"999 946 OFFCURVE",
"975 937 OFFCURVE",
"954 894 CURVE SMOOTH",
"615 211 LINE",
"274 894 LINE SMOOTH",
"252 937 OFFCURVE",
"229 946 OFFCURVE",
"177 924 CURVE SMOOTH",
"125 902 OFFCURVE",
"111 876 OFFCURVE",
"133 833 CURVE SMOOTH",
"559 -15 LINE",
"571 125 LINE",
"357 -302 LINE SMOOTH",
"335 -345 OFFCURVE",
"347 -371 OFFCURVE",
"399 -393 CURVE SMOOTH",
"451 -415 OFFCURVE",
"473 -406 OFFCURVE",
"495 -363 CURVE SMOOTH",
"1094 833 LINE SMOOTH",
"1116 876 OFFCURVE",
"1103 902 OFFCURVE",
"1051 924 CURVE SMOOTH"
);
}
);
};
layerId = UUID0;
name = Regular;
paths = (
{
closed = 1;
nodes = (
"999 946 OFFCURVE",
"975 937 OFFCURVE",
"954 894 CURVE SMOOTH",
"615 211 LINE",
"274 894 LINE SMOOTH",
"252 937 OFFCURVE",
"229 946 OFFCURVE",
"177 924 CURVE SMOOTH",
"125 902 OFFCURVE",
"111 876 OFFCURVE",
"133 833 CURVE SMOOTH",
"559 -15 LINE",
"571 125 LINE",
"359 -297 LINE SMOOTH",
"337 -340 OFFCURVE",
"349 -366 OFFCURVE",
"401 -388 CURVE SMOOTH",
"453 -410 OFFCURVE",
"475 -401 OFFCURVE",
"497 -358 CURVE SMOOTH",
"1094 833 LINE SMOOTH",
"1116 876 OFFCURVE",
"1103 902 OFFCURVE",
"1051 924 CURVE SMOOTH"
);
}
);
width = 1228;
},
{
background = {
paths = (
{
closed = 1;
nodes = (
"631 19 LINE",
"519 90 LINE",
"413 -130 OFFCURVE",
"352 -177 OFFCURVE",
"209 -188 CURVE SMOOTH",
"173 -191 OFFCURVE",
"153 -220 OFFCURVE",
"158 -311 CURVE SMOOTH",
"163 -394 OFFCURVE",
"191 -415 OFFCURVE",
"230 -414 CURVE SMOOTH",
"480 -406 OFFCURVE",
"592 -341 OFFCURVE",
"719 -57 CURVE SMOOTH",
"1114 827 LINE SMOOTH",
"1134 872 OFFCURVE",
"1111 904 OFFCURVE",
"1017 926 CURVE SMOOTH",
"924 948 OFFCURVE",
"885 941 OFFCURVE",
"867 897 CURVE SMOOTH",
"617 298 LINE",
"366 897 LINE SMOOTH",
"347 941 OFFCURVE",
"306 948 OFFCURVE",
"213 926 CURVE SMOOTH",
"119 904 OFFCURVE",
"94 872 OFFCURVE",
"114 827 CURVE SMOOTH",
"485 -13 LINE"
);
}
);
};
layerId = "222D0B97-E2BD-4249-A584-FAB7D66A0D71";
name = Bold;
paths = (
{
closed = 1;
nodes = (
"924 948 OFFCURVE",
"885 941 OFFCURVE",
"867 897 CURVE SMOOTH",
"617 298 LINE",
"366 897 LINE SMOOTH",
"347 941 OFFCURVE",
"306 948 OFFCURVE",
"213 926 CURVE SMOOTH",
"119 904 OFFCURVE",
"94 872 OFFCURVE",
"114 827 CURVE SMOOTH",
"513 -76 LINE",
"519 88 LINE",
"328 -285 LINE SMOOTH",
"306 -328 OFFCURVE",
"328 -361 OFFCURVE",
"422 -388 CURVE SMOOTH",
"515 -415 OFFCURVE",
"557 -410 OFFCURVE",
"577 -366 CURVE SMOOTH",
"1114 827 LINE SMOOTH",
"1134 872 OFFCURVE",
"1111 904 OFFCURVE",
"1017 926 CURVE SMOOTH"
);
}
);
width = 1228;
}
);
unicode = 0079;
},
{
glyphname = z;
lastChange = "2014-01-31 04:04:06 +0000";
layers = (
{
layerId = UUID0;
name = Regular;
paths = (
{
closed = 1;
nodes = (
"803 924 LINE",
"803 788 LINE",
"192 113 LINE SMOOTH",
"182 102 OFFCURVE",
"178 87 OFFCURVE",
"178 68 CURVE SMOOTH",
"178 18 OFFCURVE",
"196 0 OFFCURVE",
"241 0 CURVE SMOOTH",
"415 0 LINE",
"415 136 LINE",
"1025 810 LINE SMOOTH",
"1034 820 OFFCURVE",
"1040 835 OFFCURVE",
"1040 856 CURVE SMOOTH",
"1040 906 OFFCURVE",
"1022 924 OFFCURVE",
"977 924 CURVE SMOOTH"
);
},
{
closed = 1;
nodes = (
"331 144 LINE",
"331 0 LINE",
"987 0 LINE SMOOTH",
"1032 0 OFFCURVE",
"1050 20 OFFCURVE",
"1050 72 CURVE SMOOTH",
"1050 124 OFFCURVE",
"1032 144 OFFCURVE",
"987 144 CURVE SMOOTH"
);
},
{
closed = 1;
nodes = (
"261 924 LINE SMOOTH",
"216 924 OFFCURVE",
"198 904 OFFCURVE",
"198 852 CURVE SMOOTH",
"198 800 OFFCURVE",
"216 780 OFFCURVE",
"261 780 CURVE SMOOTH",
"889 780 LINE",
"889 924 LINE"
);
}
);
width = 1228;
},
{
layerId = "222D0B97-E2BD-4249-A584-FAB7D66A0D71";
name = Bold;
paths = (
{
closed = 1;
nodes = (
"693 924 LINE",
"693 719 LINE",
"170 184 LINE SMOOTH",
"146 159 OFFCURVE",
"138 138 OFFCURVE",
"138 102 CURVE SMOOTH",
"138 17 OFFCURVE",
"156 0 OFFCURVE",
"201 0 CURVE SMOOTH",
"525 0 LINE",
"525 205 LINE",
"1048 740 LINE SMOOTH",
"1072 765 OFFCURVE",
"1080 786 OFFCURVE",
"1080 822 CURVE SMOOTH",
"1080 907 OFFCURVE",
"1062 924 OFFCURVE",
"1017 924 CURVE SMOOTH"
);
},
{
closed = 1;
nodes = (
"403 225 LINE",
"403 0 LINE",
"1027 0 LINE",
"1072 0 OFFCURVE",
"1090 23 OFFCURVE",
"1090 113 CURVE SMOOTH",
"1090 203 OFFCURVE",
"1072 225 OFFCURVE",
"1027 225 CURVE SMOOTH"
);
},
{
closed = 1;
nodes = (
"211 924 LINE SMOOTH",
"166 924 OFFCURVE",
"148 901 OFFCURVE",
"148 811 CURVE SMOOTH",
"148 721 OFFCURVE",
"166 699 OFFCURVE",
"211 699 CURVE SMOOTH",
"825 699 LINE",
"825 924 LINE"
);
}
);
width = 1228;
}
);
unicode = 007A;
},
{
glyphname = ordfeminine;
lastChange = "2015-01-07 12:35:33 +0000";
layers = (
{
layerId = UUID0;
name = Regular;
paths = (
{
closed = 1;
nodes = (
"540 1209 OFFCURVE",
"427 1180 OFFCURVE",
"345 1128 CURVE SMOOTH",
"320 1112 OFFCURVE",
"313 1085 OFFCURVE",
"338 1042 CURVE SMOOTH",
"359 1005 OFFCURVE",
"387 1000 OFFCURVE",
"412 1015 CURVE SMOOTH",
"486 1058 OFFCURVE",
"563 1080 OFFCURVE",
"644 1080 CURVE SMOOTH",
"750 1080 OFFCURVE",
"792 1029 OFFCURVE",
"792 950 CURVE SMOOTH",
"792 899 LINE",
"719 919 OFFCURVE",
"641 927 OFFCURVE",
"558 927 CURVE SMOOTH",
"390 927 OFFCURVE",
"252 859 OFFCURVE",
"252 687 CURVE SMOOTH",
"252 541 OFFCURVE",
"368 465 OFFCURVE",
"522 465 CURVE SMOOTH",
"632 465 OFFCURVE",
"728 511 OFFCURVE",
"807 578 CURVE",
"807 524 LINE SMOOTH",
"807 489 OFFCURVE",
"824 474 OFFCURVE",
"866 474 CURVE SMOOTH",
"868 474 LINE SMOOTH",
"909 474 OFFCURVE",
"927 489 OFFCURVE",
"927 524 CURVE SMOOTH",
"927 954 LINE SMOOTH",
"927 1115 OFFCURVE",
"831 1209 OFFCURVE",
"644 1209 CURVE SMOOTH"
);
},
{
closed = 1;
nodes = (
"648 801 OFFCURVE",
"722 792 OFFCURVE",
"792 776 CURVE",
"792 707 LINE",
"716 632 OFFCURVE",
"630 590 OFFCURVE",
"526 590 CURVE SMOOTH",
"445 590 OFFCURVE",
"393 625 OFFCURVE",
"393 690 CURVE SMOOTH",
"393 772 OFFCURVE",
"466 801 OFFCURVE",
"569 801 CURVE SMOOTH"
);
}
);
width = 1228;
},
{
layerId = "222D0B97-E2BD-4249-A584-FAB7D66A0D71";
name = Bold;
paths = (
{
closed = 1;
nodes = (
"540 1209 OFFCURVE",
"430 1191 OFFCURVE",
"334 1156 CURVE SMOOTH",
"293 1142 OFFCURVE",
"294 1104 OFFCURVE",
"309 1060 CURVE SMOOTH",
"329 1001 OFFCURVE",
"353 981 OFFCURVE",
"394 994 CURVE SMOOTH",
"464 1017 OFFCURVE",
"541 1035 OFFCURVE",
"602 1035 CURVE SMOOTH",
"714 1035 OFFCURVE",
"751 998 OFFCURVE",
"751 934 CURVE SMOOTH",
"751 912 LINE",
"674 927 OFFCURVE",
"602 935 OFFCURVE",
"534 935 CURVE SMOOTH",
"352 935 OFFCURVE",
"247 852 OFFCURVE",
"247 709 CURVE SMOOTH",
"247 559 OFFCURVE",
"348 465 OFFCURVE",
"524 465 CURVE SMOOTH",
"614 465 OFFCURVE",
"699 500 OFFCURVE",
"772 556 CURVE",
"772 531 LINE SMOOTH",
"772 496 OFFCURVE",
"786 482 OFFCURVE",
"821 482 CURVE SMOOTH",
"895 482 LINE SMOOTH",
"930 482 OFFCURVE",
"944 496 OFFCURVE",
"944 531 CURVE SMOOTH",
"944 927 LINE SMOOTH",
"944 1100 OFFCURVE",
"858 1209 OFFCURVE",
"624 1209 CURVE SMOOTH"
);
},
{
closed = 1;
nodes = (
"615 776 OFFCURVE",
"680 770 OFFCURVE",
"751 756 CURVE",
"751 706 LINE",
"694 660 OFFCURVE",
"622 627 OFFCURVE",
"549 627 CURVE SMOOTH",
"481 627 OFFCURVE",
"443 653 OFFCURVE",
"443 701 CURVE SMOOTH",
"443 749 OFFCURVE",
"481 776 OFFCURVE",
"553 776 CURVE SMOOTH"
);
}
);
width = 1228;
}
);
unicode = 00AA;
},
{
glyphname = ordmasculine;
lastChange = "2014-11-20 14:52:29 +0000";
layers = (
{
layerId = UUID0;
name = Regular;
paths = (
{
closed = 1;
nodes = (
"398 1209 OFFCURVE",
"235 1053 OFFCURVE",
"235 837 CURVE SMOOTH",
"235 620 OFFCURVE",
"398 465 OFFCURVE",
"614 465 CURVE SMOOTH",
"830 465 OFFCURVE",
"993 620 OFFCURVE",
"993 837 CURVE SMOOTH",
"993 1053 OFFCURVE",
"830 1209 OFFCURVE",
"614 1209 CURVE SMOOTH"
);
},
{
closed = 1;
nodes = (
"758 1077 OFFCURVE",
"853 976 OFFCURVE",
"853 837 CURVE SMOOTH",
"853 697 OFFCURVE",
"758 597 OFFCURVE",
"614 597 CURVE SMOOTH",
"471 597 OFFCURVE",
"375 697 OFFCURVE",
"375 837 CURVE SMOOTH",
"375 976 OFFCURVE",
"471 1077 OFFCURVE",
"614 1077 CURVE SMOOTH"
);
}
);
width = 1228;
},
{
layerId = "222D0B97-E2BD-4249-A584-FAB7D66A0D71";
name = Bold;
paths = (
{
closed = 1;
nodes = (
"377 1209 OFFCURVE",
"226 1052 OFFCURVE",
"226 837 CURVE SMOOTH",
"226 622 OFFCURVE",
"377 465 OFFCURVE",
"614 465 CURVE SMOOTH",
"852 465 OFFCURVE",
"1002 622 OFFCURVE",
"1002 837 CURVE SMOOTH",
"1002 1052 OFFCURVE",
"852 1209 OFFCURVE",
"614 1209 CURVE SMOOTH"
);
},
{
closed = 1;
nodes = (
"726 1027 OFFCURVE",
"800 957 OFFCURVE",
"800 837 CURVE SMOOTH",
"800 717 OFFCURVE",
"726 648 OFFCURVE",
"614 648 CURVE SMOOTH",
"503 648 OFFCURVE",
"428 717 OFFCURVE",
"428 837 CURVE SMOOTH",
"428 957 OFFCURVE",
"503 1027 OFFCURVE",
"614 1027 CURVE SMOOTH"
);
}
);
width = 1228;
}
);
unicode = 00BA;
},
{
glyphname = Delta;
lastChange = "2014-11-22 18:26:13 +0000";
layers = (
{
layerId = UUID0;
name = Regular;
paths = (
{
closed = 1;
nodes = (
"564 1209 OFFCURVE",
"530 1191 OFFCURVE",
"514 1144 CURVE SMOOTH",
"153 106 LINE SMOOTH",
"150 97 OFFCURVE",
"147 83 OFFCURVE",
"147 68 CURVE SMOOTH",
"147 18 OFFCURVE",
"165 0 OFFCURVE",
"210 0 CURVE SMOOTH",
"1017 0 LINE SMOOTH",
"1062 0 OFFCURVE",
"1080 18 OFFCURVE",
"1080 68 CURVE SMOOTH",
"1080 83 OFFCURVE",
"1078 97 OFFCURVE",
"1075 106 CURVE SMOOTH",
"718 1144 LINE SMOOTH",
"702 1190 OFFCURVE",
"670 1209 OFFCURVE",
"617 1209 CURVE SMOOTH"
);
},
{
closed = 1;
nodes = (
"906.98 136 LINE",
"321.146 136 LINE",
"615 1022 LINE",
"617 1022 LINE"
);
}
);
width = 1228;
},
{
layerId = "222D0B97-E2BD-4249-A584-FAB7D66A0D71";
name = Bold;
paths = (
{
closed = 1;
nodes = (
"524 1209 OFFCURVE",
"480 1192 OFFCURVE",
"465 1144 CURVE SMOOTH",
"152 169 LINE SMOOTH",
"147 154 OFFCURVE",
"145 132 OFFCURVE",
"145 102 CURVE SMOOTH",
"145 17 OFFCURVE",
"163 0 OFFCURVE",
"208 0 CURVE SMOOTH",
"1020 0 LINE SMOOTH",
"1065 0 OFFCURVE",
"1083 17 OFFCURVE",
"1083 102 CURVE SMOOTH",
"1083 132 OFFCURVE",
"1081 154 OFFCURVE",
"1076 169 CURVE SMOOTH",
"767 1144 LINE SMOOTH",
"752 1190 OFFCURVE",
"710 1209 OFFCURVE",
"617 1209 CURVE SMOOTH"
);
},
{
closed = 1;
nodes = (
"800 225 LINE",
"428 225 LINE",
"614 852 LINE",
"618 852 LINE"
);
}
);
width = 1228;
}
);
unicode = 0394;
},
{
glyphname = Omega;
lastChange = "2014-11-22 18:26:13 +0000";
layers = (
{
layerId = UUID0;
name = Regular;
paths = (
{
closed = 1;
nodes = (
"299 1209 OFFCURVE",
"88 975 OFFCURVE",
"88 623 CURVE SMOOTH",
"88 416 OFFCURVE",
"191 244 OFFCURVE",
"321 144 CURVE",
"144 144 LINE SMOOTH",
"99 144 OFFCURVE",
"81 124 OFFCURVE",
"81 72 CURVE SMOOTH",
"81 20 OFFCURVE",
"99 0 OFFCURVE",
"144 0 CURVE SMOOTH",
"478 0 LINE SMOOTH",
"523 0 OFFCURVE",
"541 21 OFFCURVE",
"541 78 CURVE SMOOTH",
"541 109 OFFCURVE",
"537 133 OFFCURVE",
"524 142 CURVE SMOOTH",
"349 254 OFFCURVE",
"246 413 OFFCURVE",
"246 623 CURVE SMOOTH",
"246 893 OFFCURVE",
"392 1061 OFFCURVE",
"614 1061 CURVE SMOOTH",
"836 1061 OFFCURVE",
"982 893 OFFCURVE",
"982 623 CURVE SMOOTH",
"982 413 OFFCURVE",
"879 254 OFFCURVE",
"704 142 CURVE SMOOTH",
"691 133 OFFCURVE",
"687 109 OFFCURVE",
"687 78 CURVE SMOOTH",
"687 21 OFFCURVE",
"705 0 OFFCURVE",
"750 0 CURVE SMOOTH",
"1084 0 LINE SMOOTH",
"1129 0 OFFCURVE",
"1147 20 OFFCURVE",
"1147 72 CURVE SMOOTH",
"1147 124 OFFCURVE",
"1129 144 OFFCURVE",
"1084 144 CURVE SMOOTH",
"907 144 LINE",
"1037 244 OFFCURVE",
"1140 416 OFFCURVE",
"1140 623 CURVE SMOOTH",
"1140 975 OFFCURVE",
"929 1209 OFFCURVE",
"614 1209 CURVE SMOOTH"
);
}
);
width = 1228;
},
{
layerId = "222D0B97-E2BD-4249-A584-FAB7D66A0D71";
name = Bold;
paths = (
{
closed = 1;
nodes = (
"284 1209 OFFCURVE",
"63 994 OFFCURVE",
"63 644 CURVE SMOOTH",
"63 472 OFFCURVE",
"138 336 OFFCURVE",
"260 235 CURVE",
"107 235 LINE SMOOTH",
"62 235 OFFCURVE",
"44 212 OFFCURVE",
"44 117 CURVE SMOOTH",
"44 22 OFFCURVE",
"62 0 OFFCURVE",
"107 0 CURVE SMOOTH",
"477 0 LINE SMOOTH",
"522 0 OFFCURVE",
"540 28 OFFCURVE",
"540 153 CURVE SMOOTH",
"540 219 OFFCURVE",
"535 249 OFFCURVE",
"512 264 CURVE SMOOTH",
"383 350 OFFCURVE",
"331 473 OFFCURVE",
"331 644 CURVE SMOOTH",
"331 862 OFFCURVE",
"427 982 OFFCURVE",
"614 982 CURVE SMOOTH",
"801 982 OFFCURVE",
"897 862 OFFCURVE",
"897 644 CURVE SMOOTH",
"897 473 OFFCURVE",
"845 350 OFFCURVE",
"716 264 CURVE SMOOTH",
"693 249 OFFCURVE",
"688 219 OFFCURVE",
"688 153 CURVE SMOOTH",
"688 28 OFFCURVE",
"706 0 OFFCURVE",
"751 0 CURVE SMOOTH",
"1121 0 LINE SMOOTH",
"1166 0 OFFCURVE",
"1184 22 OFFCURVE",
"1184 117 CURVE SMOOTH",
"1184 212 OFFCURVE",
"1166 235 OFFCURVE",
"1121 235 CURVE SMOOTH",
"968 235 LINE",
"1090 336 OFFCURVE",
"1165 472 OFFCURVE",
"1165 644 CURVE SMOOTH",
"1165 994 OFFCURVE",
"944 1209 OFFCURVE",
"614 1209 CURVE SMOOTH"
);
}
);
width = 1228;
}
);
unicode = 03A9;
},
{
glyphname = mu;
lastChange = "2015-01-07 12:36:03 +0000";
layers = (
{
layerId = UUID0;
name = Regular;
paths = (
{
closed = 1;
nodes = (
"944 934 LINE SMOOTH",
"888 934 OFFCURVE",
"870 915 OFFCURVE",
"870 869 CURVE SMOOTH",
"870 502 LINE SMOOTH",
"870 292 OFFCURVE",
"701 126 OFFCURVE",
"550 126 CURVE SMOOTH",
"421 126 OFFCURVE",
"368 204 OFFCURVE",
"368 319 CURVE SMOOTH",
"368 869 LINE SMOOTH",
"368 915 OFFCURVE",
"350 934 OFFCURVE",
"294 934 CURVE SMOOTH",
"292 934 LINE SMOOTH",
"236 934 OFFCURVE",
"218 915 OFFCURVE",
"218 869 CURVE SMOOTH",
"218 -333 LINE SMOOTH",
"218 -379 OFFCURVE",
"236 -398 OFFCURVE",
"292 -398 CURVE SMOOTH",
"294 -398 LINE SMOOTH",
"350 -398 OFFCURVE",
"368 -379 OFFCURVE",
"368 -333 CURVE SMOOTH",
"368 25 LINE",
"412 -6 OFFCURVE",
"470 -22 OFFCURVE",
"535 -22 CURVE SMOOTH",
"675 -22 OFFCURVE",
"800 74 OFFCURVE",
"880 198 CURVE",
"880 55 LINE SMOOTH",
"880 9 OFFCURVE",
"896 -10 OFFCURVE",
"949 -10 CURVE SMOOTH",
"951 -10 LINE SMOOTH",
"1004 -10 OFFCURVE",
"1020 9 OFFCURVE",
"1020 55 CURVE SMOOTH",
"1020 869 LINE SMOOTH",
"1020 915 OFFCURVE",
"1002 934 OFFCURVE",
"946 934 CURVE SMOOTH"
);
}
);
width = 1228;
},
{
layerId = "222D0B97-E2BD-4249-A584-FAB7D66A0D71";
name = Bold;
paths = (
{
closed = 1;
nodes = (
"869 924 LINE SMOOTH",
"824 924 OFFCURVE",
"806 906 OFFCURVE",
"806 861 CURVE SMOOTH",
"806 506 LINE SMOOTH",
"806 348 OFFCURVE",
"685 215 OFFCURVE",
"571 215 CURVE SMOOTH",
"473 215 OFFCURVE",
"434 275 OFFCURVE",
"434 373 CURVE SMOOTH",
"434 861 LINE SMOOTH",
"434 906 OFFCURVE",
"416 924 OFFCURVE",
"371 924 CURVE SMOOTH",
"247 924 LINE SMOOTH",
"202 924 OFFCURVE",
"184 906 OFFCURVE",
"184 861 CURVE SMOOTH",
"184 -325 LINE SMOOTH",
"184 -370 OFFCURVE",
"202 -388 OFFCURVE",
"247 -388 CURVE SMOOTH",
"371 -388 LINE SMOOTH",
"416 -388 OFFCURVE",
"434 -370 OFFCURVE",
"434 -325 CURVE SMOOTH",
"434 -12 LINE",
"457 -18 OFFCURVE",
"481 -22 OFFCURVE",
"506 -22 CURVE SMOOTH",
"639 -22 OFFCURVE",
"754 53 OFFCURVE",
"836 168 CURVE",
"836 63 LINE SMOOTH",
"836 18 OFFCURVE",
"854 0 OFFCURVE",
"899 0 CURVE SMOOTH",
"993 0 LINE SMOOTH",
"1038 0 OFFCURVE",
"1056 18 OFFCURVE",
"1056 63 CURVE SMOOTH",
"1056 861 LINE SMOOTH",
"1056 906 OFFCURVE",
"1038 924 OFFCURVE",
"993 924 CURVE SMOOTH"
);
}
);
width = 1228;
}
);
unicode = 03BC;
},
{
glyphname = pi;
lastChange = "2014-11-18 04:38:01 +0000";
layers = (
{
layerId = UUID0;
name = Regular;
paths = (
{
closed = 1;
nodes = (
"161 924 LINE SMOOTH",
"116 924 OFFCURVE",
"98 904 OFFCURVE",
"98 852 CURVE SMOOTH",
"98 800 OFFCURVE",
"116 780 OFFCURVE",
"161 780 CURVE SMOOTH",
"248 780 LINE",
"248 55 LINE SMOOTH",
"248 9 OFFCURVE",
"266 -10 OFFCURVE",
"322 -10 CURVE SMOOTH",
"324 -10 LINE SMOOTH",
"380 -10 OFFCURVE",
"398 9 OFFCURVE",
"398 55 CURVE SMOOTH",
"398 780 LINE",
"830 780 LINE",
"830 55 LINE SMOOTH",
"830 9 OFFCURVE",
"848 -10 OFFCURVE",
"904 -10 CURVE SMOOTH",
"906 -10 LINE SMOOTH",
"962 -10 OFFCURVE",
"980 9 OFFCURVE",
"980 55 CURVE SMOOTH",
"980 780 LINE",
"1067 780 LINE SMOOTH",
"1112 780 OFFCURVE",
"1130 800 OFFCURVE",
"1130 852 CURVE SMOOTH",
"1130 904 OFFCURVE",
"1112 924 OFFCURVE",
"1067 924 CURVE SMOOTH"
);
}
);
width = 1228;
},
{
layerId = "222D0B97-E2BD-4249-A584-FAB7D66A0D71";
name = Bold;
paths = (
{
closed = 1;
nodes = (
"133 924 LINE SMOOTH",
"88 924 OFFCURVE",
"70 901 OFFCURVE",
"70 811 CURVE SMOOTH",
"70 721 OFFCURVE",
"88 699 OFFCURVE",
"133 699 CURVE SMOOTH",
"216 699 LINE",
"216 63 LINE SMOOTH",
"216 18 OFFCURVE",
"234 0 OFFCURVE",
"279 0 CURVE SMOOTH",
"403 0 LINE SMOOTH",
"448 0 OFFCURVE",
"466 18 OFFCURVE",
"466 63 CURVE SMOOTH",
"466 699 LINE",
"762 699 LINE",
"762 63 LINE SMOOTH",
"762 18 OFFCURVE",
"780 0 OFFCURVE",
"825 0 CURVE SMOOTH",
"949 0 LINE SMOOTH",
"994 0 OFFCURVE",
"1012 18 OFFCURVE",
"1012 63 CURVE SMOOTH",
"1012 699 LINE",
"1095 699 LINE SMOOTH",
"1140 699 OFFCURVE",
"1158 721 OFFCURVE",
"1158 811 CURVE SMOOTH",
"1158 901 OFFCURVE",
"1140 924 OFFCURVE",
"1095 924 CURVE SMOOTH"
);
}
);
width = 1228;
}
);
unicode = 03C0;
},
{
glyphname = zero;
lastChange = "2014-01-31 04:05:13 +0000";
layers = (
{
layerId = UUID0;
name = Regular;
paths = (
{
closed = 1;
nodes = (
"354 1209 OFFCURVE",
"190 963 OFFCURVE",
"190 593 CURVE SMOOTH",
"190 223 OFFCURVE",
"354 -22 OFFCURVE",
"614 -22 CURVE SMOOTH",
"874 -22 OFFCURVE",
"1038 223 OFFCURVE",
"1038 593 CURVE SMOOTH",
"1038 963 OFFCURVE",
"874 1209 OFFCURVE",
"614 1209 CURVE SMOOTH"
);
},
{
closed = 1;
nodes = (
"771 1061 OFFCURVE",
"884 891 OFFCURVE",
"884 593 CURVE SMOOTH",
"884 295 OFFCURVE",
"771 126 OFFCURVE",
"614 126 CURVE SMOOTH",
"457 126 OFFCURVE",
"344 295 OFFCURVE",
"344 593 CURVE SMOOTH",
"344 891 OFFCURVE",
"457 1061 OFFCURVE",
"614 1061 CURVE SMOOTH"
);
}
);
width = 1228;
},
{
layerId = "222D0B97-E2BD-4249-A584-FAB7D66A0D71";
name = Bold;
paths = (
{
closed = 1;
nodes = (
"314 1209 OFFCURVE",
"136 953 OFFCURVE",
"136 593 CURVE SMOOTH",
"136 233 OFFCURVE",
"314 -22 OFFCURVE",
"614 -22 CURVE SMOOTH",
"914 -22 OFFCURVE",
"1092 233 OFFCURVE",
"1092 593 CURVE SMOOTH",
"1092 953 OFFCURVE",
"914 1209 OFFCURVE",
"614 1209 CURVE SMOOTH"
);
},
{
closed = 1;
nodes = (
"751 972 OFFCURVE",
"830 847 OFFCURVE",
"830 593 CURVE SMOOTH",
"830 339 OFFCURVE",
"751 215 OFFCURVE",
"614 215 CURVE SMOOTH",
"477 215 OFFCURVE",
"398 339 OFFCURVE",
"398 593 CURVE SMOOTH",
"398 847 OFFCURVE",
"477 972 OFFCURVE",
"614 972 CURVE SMOOTH"
);
}
);
width = 1228;
}
);
unicode = 0030;
},
{
glyphname = one;
lastChange = "2015-01-15 21:18:24 +0000";
layers = (
{
layerId = UUID0;
name = Regular;
paths = (
{
closed = 1;
nodes = (
"251 968 LINE SMOOTH",
"221 950 OFFCURVE",
"208 915 OFFCURVE",
"234 870 CURVE SMOOTH",
"261 823 OFFCURVE",
"294 823 OFFCURVE",
"320 839 CURVE SMOOTH",
"569 994 LINE",
"569 108 LINE",
"719 108 LINE",
"719 1157 LINE SMOOTH",
"719 1211 OFFCURVE",
"668 1224 OFFCURVE",
"628 1200 CURVE SMOOTH"
);
},
{
closed = 1;
nodes = (
"300 144 LINE SMOOTH",
"255 144 OFFCURVE",
"237 124 OFFCURVE",
"237 72 CURVE SMOOTH",
"237 20 OFFCURVE",
"255 0 OFFCURVE",
"300 0 CURVE SMOOTH",
"974 0 LINE SMOOTH",
"1019 0 OFFCURVE",
"1037 20 OFFCURVE",
"1037 72 CURVE SMOOTH",
"1037 124 OFFCURVE",
"1019 144 OFFCURVE",
"974 144 CURVE SMOOTH"
);
}
);
width = 1228;
},
{
layerId = "222D0B97-E2BD-4249-A584-FAB7D66A0D71";
name = Bold;
paths = (
{
closed = 1;
nodes = (
"225 958 LINE SMOOTH",
"184 935 OFFCURVE",
"172 902 OFFCURVE",
"206 825 CURVE SMOOTH",
"241 747 OFFCURVE",
"270 727 OFFCURVE",
"310 750 CURVE SMOOTH",
"519 869 LINE",
"519 165 LINE",
"769 165 LINE",
"769 1148 LINE SMOOTH",
"769 1214 OFFCURVE",
"702 1227 OFFCURVE",
"647 1196 CURVE SMOOTH"
);
},
{
closed = 1;
nodes = (
"273 225 LINE SMOOTH",
"228 225 OFFCURVE",
"210 203 OFFCURVE",
"210 112 CURVE SMOOTH",
"210 21 OFFCURVE",
"228 0 OFFCURVE",
"273 0 CURVE SMOOTH",
"1005 0 LINE SMOOTH",
"1050 0 OFFCURVE",
"1068 21 OFFCURVE",
"1068 112 CURVE SMOOTH",
"1068 203 OFFCURVE",
"1050 225 OFFCURVE",
"1005 225 CURVE SMOOTH"
);
}
);
width = 1228;
}
);
unicode = 0031;
},
